<?xml version="1.0" standalone="no"?>
<!DOCTYPE svg PUBLIC "-//W3C//DTD SVG 1.1//EN"
  "http://www.w3.org/Graphics/SVG/1.1/DTD/svg11.dtd">
<svg width="800" height="400" version="1.1"
  xmlns="http://www.w3.org/2000/svg">
<polygon points="33.480000000000004,2 49.14,11 49.14,29 33.480000000000004,38 17.820000000000004,29 17.820000000000004,11" style="stroke:grey;fill:grey;"/><polygon points="66.80000000000001,2 82.46000000000001,11 82.46000000000001,29 66.80000000000001,38 51.140000000000015,29 51.140000000000015,11" style="stroke:grey;fill:grey;"/><polygon points="100.12,2 115.78,11 115.78,29 100.12,38 84.46000000000001,29 84.46000000000001,11" style="stroke:grey;fill:grey;"/><polygon points="133.44,2 149.1,11 149.1,29 133.44,38 117.78,29 117.78,11" style="stroke:grey;fill:grey;"/><polygon points="166.76,2 182.42,11 182.42,29 166.76,38 151.1,29 151.1,11" style="stroke:grey;fill:grey;"/><polygon points="200.07999999999998,2 215.73999999999998,11 215.73999999999998,29 200.07999999999998,38 184.42,29 184.42,11" style="stroke:grey;fill:grey;"/><polygon points="233.39999999999998,2 249.05999999999997,11 249.05999999999997,29 233.39999999999998,38 217.73999999999998,29 217.73999999999998,11" style="stroke:grey;fill:grey;"/><polygon points="266.71999999999997,2 282.38,11 282.38,29 266.71999999999997,38 251.05999999999997,29 251.05999999999997,11" style="stroke:grey;fill:grey;"/><polygon points="300.03999999999996,2 315.7,11 315.7,29 300.03999999999996,38 284.37999999999994,29 284.37999999999994,11" style="stroke:grey;fill:grey;"/><polygon points="333.35999999999996,2 349.02,11 349.02,29 333.35999999999996,38 317.69999999999993,29 317.69999999999993,11" style="stroke:grey;fill:grey;"/><polygon points="366.67999999999995,2 382.34,11 382.34,29 366.67999999999995,38 351.0199999999999,29 351.0199999999999,11" style="stroke:grey;fill:grey;"/><polygon points="399.99999999999994,2 415.65999999999997,11 415.65999999999997,29 399.99999999999994,38 384.3399999999999,29 384.3399999999999,11" style="stroke:grey;fill:grey;"/><polygon points="433.31999999999994,2 448.97999999999996,11 448.97999999999996,29 433.31999999999994,38 417.6599999999999,29 417.6599999999999,11" style="stroke:grey;fill:grey;"/><polygon points="466.63999999999993,2 482.29999999999995,11 482.29999999999995,29 466.63999999999993,38 450.9799999999999,29 450.9799999999999,11" style="stroke:grey;fill:grey;"/><polygon points="499.9599999999999,2 515.6199999999999,11 515.6199999999999,29 499.9599999999999,38 484.2999999999999,29 484.2999999999999,11" style="stroke:grey;fill:grey;"/><polygon points="533.28,2 548.9399999999999,11 548.9399999999999,29 533.28,38 517.62,29 517.62,11" style="stroke:grey;fill:grey;"/><polygon points="566.6,2 582.26,11 582.26,29 566.6,38 550.94,29 550.94,11" style="stroke:grey;fill:grey;"/><polygon points="599.9200000000001,2 615.58,11 615.58,29 599.9200000000001,38 584.2600000000001,29 584.2600000000001,11" style="stroke:grey;fill:grey;"/><polygon points="633.2400000000001,2 648.9000000000001,11 648.9000000000001,29 633.2400000000001,38 617.5800000000002,29 617.5800000000002,11" style="stroke:grey;fill:grey;"/><polygon points="666.5600000000002,2 682.2200000000001,11 682.2200000000001,29 666.5600000000002,38 650.9000000000002,29 650.9000000000002,11" style="stroke:grey;fill:grey;"/><polygon points="699.8800000000002,2 715.5400000000002,11 715.5400000000002,29 699.8800000000002,38 684.2200000000003,29 684.2200000000003,11" style="stroke:grey;fill:grey;"/><polygon points="733.2000000000003,2 748.8600000000002,11 748.8600000000002,29 733.2000000000003,38 717.5400000000003,29 717.5400000000003,11" style="stroke:grey;fill:grey;"/><polygon points="50.14,30.739999999999995 65.8,39.739999999999995 65.8,57.739999999999995 50.14,66.74 34.480000000000004,57.739999999999995 34.480000000000004,39.739999999999995" style="stroke:grey;fill:grey;"/><polygon points="83.46000000000001,30.739999999999995 99.12,39.739999999999995 99.12,57.739999999999995 83.46000000000001,66.74 67.80000000000001,57.739999999999995 67.80000000000001,39.739999999999995" style="stroke:grey;fill:grey;"/><polygon points="116.78,30.739999999999995 132.44,39.739999999999995 132.44,57.739999999999995 116.78,66.74 101.12,57.739999999999995 101.12,39.739999999999995" style="stroke:grey;fill:grey;"/><polygon points="150.1,30.739999999999995 165.76,39.739999999999995 165.76,57.739999999999995 150.1,66.74 134.44,57.739999999999995 134.44,39.739999999999995" style="stroke:grey;fill:grey;"/><polygon points="183.42,30.739999999999995 199.07999999999998,39.739999999999995 199.07999999999998,57.739999999999995 183.42,66.74 167.76,57.739999999999995 167.76,39.739999999999995" style="stroke:grey;fill:grey;"/><polygon points="216.73999999999998,30.739999999999995 232.39999999999998,39.739999999999995 232.39999999999998,57.739999999999995 216.73999999999998,66.74 201.07999999999998,57.739999999999995 201.07999999999998,39.739999999999995" style="stroke:grey;fill:grey;"/><polygon points="250.05999999999997,30.739999999999995 265.71999999999997,39.739999999999995 265.71999999999997,57.739999999999995 250.05999999999997,66.74 234.39999999999998,57.739999999999995 234.39999999999998,39.739999999999995" style="stroke:grey;fill:grey;"/><polygon points="283.38,30.739999999999995 299.04,39.739999999999995 299.04,57.739999999999995 283.38,66.74 267.71999999999997,57.739999999999995 267.71999999999997,39.739999999999995" style="stroke:grey;fill:grey;"/><polygon points="316.7,30.739999999999995 332.36,39.739999999999995 332.36,57.739999999999995 316.7,66.74 301.03999999999996,57.739999999999995 301.03999999999996,39.739999999999995" style="stroke:grey;fill:grey;"/><polygon points="350.02,30.739999999999995 365.68,39.739999999999995 365.68,57.739999999999995 350.02,66.74 334.35999999999996,57.739999999999995 334.35999999999996,39.739999999999995" style="stroke:grey;fill:grey;"/><polygon points="383.34,30.739999999999995 399.0,39.739999999999995 399.0,57.739999999999995 383.34,66.74 367.67999999999995,57.739999999999995 367.67999999999995,39.739999999999995" style="stroke:grey;fill:grey;"/><polygon points="416.65999999999997,30.739999999999995 432.32,39.739999999999995 432.32,57.739999999999995 416.65999999999997,66.74 400.99999999999994,57.739999999999995 400.99999999999994,39.739999999999995" style="stroke:grey;fill:grey;"/><polygon points="449.97999999999996,30.739999999999995 465.64,39.739999999999995 465.64,57.739999999999995 449.97999999999996,66.74 434.31999999999994,57.739999999999995 434.31999999999994,39.739999999999995" style="stroke:grey;fill:grey;"/><polygon points="483.29999999999995,30.739999999999995 498.96,39.739999999999995 498.96,57.739999999999995 483.29999999999995,66.74 467.63999999999993,57.739999999999995 467.63999999999993,39.739999999999995" style="stroke:grey;fill:grey;"/><polygon points="516.62,30.739999999999995 532.28,39.739999999999995 532.28,57.739999999999995 516.62,66.74 500.96,57.739999999999995 500.96,39.739999999999995" style="stroke:grey;fill:grey;"/><polygon points="549.94,30.739999999999995 565.6,39.739999999999995 565.6,57.739999999999995 549.94,66.74 534.2800000000001,57.739999999999995 534.2800000000001,39.739999999999995" style="stroke:grey;fill:grey;"/><polygon points="583.2600000000001,30.739999999999995 598.9200000000001,39.739999999999995 598.9200000000001,57.739999999999995 583.2600000000001,66.74 567.6000000000001,57.739999999999995 567.6000000000001,39.739999999999995" style="stroke:grey;fill:grey;"/><polygon points="616.5800000000002,30.739999999999995 632.2400000000001,39.739999999999995 632.2400000000001,57.739999999999995 616.5800000000002,66.74 600.9200000000002,57.739999999999995 600.9200000000002,39.739999999999995" style="stroke:grey;fill:grey;"/><polygon points="649.9000000000002,30.739999999999995 665.5600000000002,39.739999999999995 665.5600000000002,57.739999999999995 649.9000000000002,66.74 634.2400000000002,57.739999999999995 634.2400000000002,39.739999999999995" style="stroke:grey;fill:grey;"/><polygon points="683.2200000000003,30.739999999999995 698.8800000000002,39.739999999999995 698.8800000000002,57.739999999999995 683.2200000000003,66.74 667.5600000000003,57.739999999999995 667.5600000000003,39.739999999999995" style="stroke:grey;fill:grey;"/><polygon points="716.5400000000003,30.739999999999995 732.2000000000003,39.739999999999995 732.2000000000003,57.739999999999995 716.5400000000003,66.74 700.8800000000003,57.739999999999995 700.8800000000003,39.739999999999995" style="stroke:grey;fill:grey;"/><polygon points="33.480000000000004,59.47999999999999 49.14,68.47999999999999 49.14,86.47999999999999 33.480000000000004,95.47999999999999 17.820000000000004,86.47999999999999 17.820000000000004,68.47999999999999" style="stroke:grey;fill:grey;"/><polygon points="66.80000000000001,59.47999999999999 82.46000000000001,68.47999999999999 82.46000000000001,86.47999999999999 66.80000000000001,95.47999999999999 51.140000000000015,86.47999999999999 51.140000000000015,68.47999999999999" style="stroke:grey;fill:grey;"/><polygon points="100.12,59.47999999999999 115.78,68.47999999999999 115.78,86.47999999999999 100.12,95.47999999999999 84.46000000000001,86.47999999999999 84.46000000000001,68.47999999999999" style="stroke:grey;fill:grey;"/><polygon points="133.44,59.47999999999999 149.1,68.47999999999999 149.1,86.47999999999999 133.44,95.47999999999999 117.78,86.47999999999999 117.78,68.47999999999999" style="stroke:grey;fill:grey;"/><polygon points="166.76,59.47999999999999 182.42,68.47999999999999 182.42,86.47999999999999 166.76,95.47999999999999 151.1,86.47999999999999 151.1,68.47999999999999" style="stroke:grey;fill:grey;"/><polygon points="200.07999999999998,59.47999999999999 215.73999999999998,68.47999999999999 215.73999999999998,86.47999999999999 200.07999999999998,95.47999999999999 184.42,86.47999999999999 184.42,68.47999999999999" style="stroke:grey;fill:grey;"/><polygon points="233.39999999999998,59.47999999999999 249.05999999999997,68.47999999999999 249.05999999999997,86.47999999999999 233.39999999999998,95.47999999999999 217.73999999999998,86.47999999999999 217.73999999999998,68.47999999999999" style="stroke:grey;fill:grey;"/><polygon points="266.71999999999997,59.47999999999999 282.38,68.47999999999999 282.38,86.47999999999999 266.71999999999997,95.47999999999999 251.05999999999997,86.47999999999999 251.05999999999997,68.47999999999999" style="stroke:grey;fill:grey;"/><polygon points="300.03999999999996,59.47999999999999 315.7,68.47999999999999 315.7,86.47999999999999 300.03999999999996,95.47999999999999 284.37999999999994,86.47999999999999 284.37999999999994,68.47999999999999" style="stroke:grey;fill:grey;"/><polygon points="333.35999999999996,59.47999999999999 349.02,68.47999999999999 349.02,86.47999999999999 333.35999999999996,95.47999999999999 317.69999999999993,86.47999999999999 317.69999999999993,68.47999999999999" style="stroke:grey;fill:grey;"/><polygon points="366.67999999999995,59.47999999999999 382.34,68.47999999999999 382.34,86.47999999999999 366.67999999999995,95.47999999999999 351.0199999999999,86.47999999999999 351.0199999999999,68.47999999999999" style="stroke:grey;fill:grey;"/><polygon points="399.99999999999994,59.47999999999999 415.65999999999997,68.47999999999999 415.65999999999997,86.47999999999999 399.99999999999994,95.47999999999999 384.3399999999999,86.47999999999999 384.3399999999999,68.47999999999999" style="stroke:grey;fill:grey;"/><polygon points="433.31999999999994,59.47999999999999 448.97999999999996,68.47999999999999 448.97999999999996,86.47999999999999 433.31999999999994,95.47999999999999 417.6599999999999,86.47999999999999 417.6599999999999,68.47999999999999" style="stroke:grey;fill:grey;"/><polygon points="466.63999999999993,59.47999999999999 482.29999999999995,68.47999999999999 482.29999999999995,86.47999999999999 466.63999999999993,95.47999999999999 450.9799999999999,86.47999999999999 450.9799999999999,68.47999999999999" style="stroke:grey;fill:grey;"/><polygon points="499.9599999999999,59.47999999999999 515.6199999999999,68.47999999999999 515.6199999999999,86.47999999999999 499.9599999999999,95.47999999999999 484.2999999999999,86.47999999999999 484.2999999999999,68.47999999999999" style="stroke:grey;fill:grey;"/><polygon points="533.28,59.47999999999999 548.9399999999999,68.47999999999999 548.9399999999999,86.47999999999999 533.28,95.47999999999999 517.62,86.47999999999999 517.62,68.47999999999999" style="stroke:grey;fill:grey;"/><polygon points="566.6,59.47999999999999 582.26,68.47999999999999 582.26,86.47999999999999 566.6,95.47999999999999 550.94,86.47999999999999 550.94,68.47999999999999" style="stroke:grey;fill:grey;"/><polygon points="599.9200000000001,59.47999999999999 615.58,68.47999999999999 615.58,86.47999999999999 599.9200000000001,95.47999999999999 584.2600000000001,86.47999999999999 584.2600000000001,68.47999999999999" style="stroke:grey;fill:grey;"/><polygon points="633.2400000000001,59.47999999999999 648.9000000000001,68.47999999999999 648.9000000000001,86.47999999999999 633.2400000000001,95.47999999999999 617.5800000000002,86.47999999999999 617.5800000000002,68.47999999999999" style="stroke:grey;fill:grey;"/><polygon points="666.5600000000002,59.47999999999999 682.2200000000001,68.47999999999999 682.2200000000001,86.47999999999999 666.5600000000002,95.47999999999999 650.9000000000002,86.47999999999999 650.9000000000002,68.47999999999999" style="stroke:grey;fill:grey;"/><polygon points="699.8800000000002,59.47999999999999 715.5400000000002,68.47999999999999 715.5400000000002,86.47999999999999 699.8800000000002,95.47999999999999 684.2200000000003,86.47999999999999 684.2200000000003,68.47999999999999" style="stroke:grey;fill:grey;"/><polygon points="733.2000000000003,59.47999999999999 748.8600000000002,68.47999999999999 748.8600000000002,86.47999999999999 733.2000000000003,95.47999999999999 717.5400000000003,86.47999999999999 717.5400000000003,68.47999999999999" style="stroke:grey;fill:grey;"/><polygon points="50.14,88.21999999999998 65.8,97.21999999999998 65.8,115.21999999999998 50.14,124.21999999999998 34.480000000000004,115.21999999999998 34.480000000000004,97.21999999999998" style="stroke:grey;fill:grey;"/><polygon points="83.46000000000001,88.21999999999998 99.12,97.21999999999998 99.12,115.21999999999998 83.46000000000001,124.21999999999998 67.80000000000001,115.21999999999998 67.80000000000001,97.21999999999998" style="stroke:grey;fill:grey;"/><polygon points="116.78,88.21999999999998 132.44,97.21999999999998 132.44,115.21999999999998 116.78,124.21999999999998 101.12,115.21999999999998 101.12,97.21999999999998" style="stroke:grey;fill:grey;"/><polygon points="150.1,88.21999999999998 165.76,97.21999999999998 165.76,115.21999999999998 150.1,124.21999999999998 134.44,115.21999999999998 134.44,97.21999999999998" style="stroke:grey;fill:grey;"/><polygon points="183.42,88.21999999999998 199.07999999999998,97.21999999999998 199.07999999999998,115.21999999999998 183.42,124.21999999999998 167.76,115.21999999999998 167.76,97.21999999999998" style="stroke:grey;fill:grey;"/><polygon points="216.73999999999998,88.21999999999998 232.39999999999998,97.21999999999998 232.39999999999998,115.21999999999998 216.73999999999998,124.21999999999998 201.07999999999998,115.21999999999998 201.07999999999998,97.21999999999998" style="stroke:grey;fill:grey;"/><polygon points="250.05999999999997,88.21999999999998 265.71999999999997,97.21999999999998 265.71999999999997,115.21999999999998 250.05999999999997,124.21999999999998 234.39999999999998,115.21999999999998 234.39999999999998,97.21999999999998" style="stroke:grey;fill:grey;"/><polygon points="283.38,88.21999999999998 299.04,97.21999999999998 299.04,115.21999999999998 283.38,124.21999999999998 267.71999999999997,115.21999999999998 267.71999999999997,97.21999999999998" style="stroke:grey;fill:grey;"/><polygon points="316.7,88.21999999999998 332.36,97.21999999999998 332.36,115.21999999999998 316.7,124.21999999999998 301.03999999999996,115.21999999999998 301.03999999999996,97.21999999999998" style="stroke:grey;fill:grey;"/><polygon points="350.02,88.21999999999998 365.68,97.21999999999998 365.68,115.21999999999998 350.02,124.21999999999998 334.35999999999996,115.21999999999998 334.35999999999996,97.21999999999998" style="stroke:grey;fill:grey;"/><polygon points="383.34,88.21999999999998 399.0,97.21999999999998 399.0,115.21999999999998 383.34,124.21999999999998 367.67999999999995,115.21999999999998 367.67999999999995,97.21999999999998" style="stroke:grey;fill:grey;"/><polygon points="416.65999999999997,88.21999999999998 432.32,97.21999999999998 432.32,115.21999999999998 416.65999999999997,124.21999999999998 400.99999999999994,115.21999999999998 400.99999999999994,97.21999999999998" style="stroke:grey;fill:grey;"/><polygon points="449.97999999999996,88.21999999999998 465.64,97.21999999999998 465.64,115.21999999999998 449.97999999999996,124.21999999999998 434.31999999999994,115.21999999999998 434.31999999999994,97.21999999999998" style="stroke:grey;fill:grey;"/><polygon points="483.29999999999995,88.21999999999998 498.96,97.21999999999998 498.96,115.21999999999998 483.29999999999995,124.21999999999998 467.63999999999993,115.21999999999998 467.63999999999993,97.21999999999998" style="stroke:grey;fill:grey;"/><polygon points="516.62,88.21999999999998 532.28,97.21999999999998 532.28,115.21999999999998 516.62,124.21999999999998 500.96,115.21999999999998 500.96,97.21999999999998" style="stroke:grey;fill:grey;"/><polygon points="549.94,88.21999999999998 565.6,97.21999999999998 565.6,115.21999999999998 549.94,124.21999999999998 534.2800000000001,115.21999999999998 534.2800000000001,97.21999999999998" style="stroke:grey;fill:grey;"/><polygon points="583.2600000000001,88.21999999999998 598.9200000000001,97.21999999999998 598.9200000000001,115.21999999999998 583.2600000000001,124.21999999999998 567.6000000000001,115.21999999999998 567.6000000000001,97.21999999999998" style="stroke:grey;fill:grey;"/><polygon points="616.5800000000002,88.21999999999998 632.2400000000001,97.21999999999998 632.2400000000001,115.21999999999998 616.5800000000002,124.21999999999998 600.9200000000002,115.21999999999998 600.9200000000002,97.21999999999998" style="stroke:grey;fill:grey;"/><polygon points="649.9000000000002,88.21999999999998 665.5600000000002,97.21999999999998 665.5600000000002,115.21999999999998 649.9000000000002,124.21999999999998 634.2400000000002,115.21999999999998 634.2400000000002,97.21999999999998" style="stroke:grey;fill:grey;"/><polygon points="683.2200000000003,88.21999999999998 698.8800000000002,97.21999999999998 698.8800000000002,115.21999999999998 683.2200000000003,124.21999999999998 667.5600000000003,115.21999999999998 667.5600000000003,97.21999999999998" style="stroke:grey;fill:grey;"/><polygon points="716.5400000000003,88.21999999999998 732.2000000000003,97.21999999999998 732.2000000000003,115.21999999999998 716.5400000000003,124.21999999999998 700.8800000000003,115.21999999999998 700.8800000000003,97.21999999999998" style="stroke:grey;fill:grey;"/><polygon points="33.480000000000004,116.95999999999998 49.14,125.95999999999998 49.14,143.95999999999998 33.480000000000004,152.95999999999998 17.820000000000004,143.95999999999998 17.820000000000004,125.95999999999998" style="stroke:grey;fill:grey;"/><polygon points="66.80000000000001,116.95999999999998 82.46000000000001,125.95999999999998 82.46000000000001,143.95999999999998 66.80000000000001,152.95999999999998 51.140000000000015,143.95999999999998 51.140000000000015,125.95999999999998" style="stroke:grey;fill:grey;"/><polygon points="100.12,116.95999999999998 115.78,125.95999999999998 115.78,143.95999999999998 100.12,152.95999999999998 84.46000000000001,143.95999999999998 84.46000000000001,125.95999999999998" style="stroke:grey;fill:grey;"/><polygon points="133.44,116.95999999999998 149.1,125.95999999999998 149.1,143.95999999999998 133.44,152.95999999999998 117.78,143.95999999999998 117.78,125.95999999999998" style="stroke:grey;fill:grey;"/><polygon points="166.76,116.95999999999998 182.42,125.95999999999998 182.42,143.95999999999998 166.76,152.95999999999998 151.1,143.95999999999998 151.1,125.95999999999998" style="stroke:grey;fill:grey;"/><polygon points="200.07999999999998,116.95999999999998 215.73999999999998,125.95999999999998 215.73999999999998,143.95999999999998 200.07999999999998,152.95999999999998 184.42,143.95999999999998 184.42,125.95999999999998" style="stroke:grey;fill:grey;"/><polygon points="233.39999999999998,116.95999999999998 249.05999999999997,125.95999999999998 249.05999999999997,143.95999999999998 233.39999999999998,152.95999999999998 217.73999999999998,143.95999999999998 217.73999999999998,125.95999999999998" style="stroke:grey;fill:grey;"/><polygon points="266.71999999999997,116.95999999999998 282.38,125.95999999999998 282.38,143.95999999999998 266.71999999999997,152.95999999999998 251.05999999999997,143.95999999999998 251.05999999999997,125.95999999999998" style="stroke:grey;fill:grey;"/><polygon points="300.03999999999996,116.95999999999998 315.7,125.95999999999998 315.7,143.95999999999998 300.03999999999996,152.95999999999998 284.37999999999994,143.95999999999998 284.37999999999994,125.95999999999998" style="stroke:grey;fill:grey;"/><polygon points="333.35999999999996,116.95999999999998 349.02,125.95999999999998 349.02,143.95999999999998 333.35999999999996,152.95999999999998 317.69999999999993,143.95999999999998 317.69999999999993,125.95999999999998" style="stroke:grey;fill:grey;"/><polygon points="366.67999999999995,116.95999999999998 382.34,125.95999999999998 382.34,143.95999999999998 366.67999999999995,152.95999999999998 351.0199999999999,143.95999999999998 351.0199999999999,125.95999999999998" style="stroke:grey;fill:grey;"/><polygon points="399.99999999999994,116.95999999999998 415.65999999999997,125.95999999999998 415.65999999999997,143.95999999999998 399.99999999999994,152.95999999999998 384.3399999999999,143.95999999999998 384.3399999999999,125.95999999999998" style="stroke:grey;fill:grey;"/><polygon points="433.31999999999994,116.95999999999998 448.97999999999996,125.95999999999998 448.97999999999996,143.95999999999998 433.31999999999994,152.95999999999998 417.6599999999999,143.95999999999998 417.6599999999999,125.95999999999998" style="stroke:grey;fill:grey;"/><polygon points="466.63999999999993,116.95999999999998 482.29999999999995,125.95999999999998 482.29999999999995,143.95999999999998 466.63999999999993,152.95999999999998 450.9799999999999,143.95999999999998 450.9799999999999,125.95999999999998" style="stroke:grey;fill:grey;"/><polygon points="499.9599999999999,116.95999999999998 515.6199999999999,125.95999999999998 515.6199999999999,143.95999999999998 499.9599999999999,152.95999999999998 484.2999999999999,143.95999999999998 484.2999999999999,125.95999999999998" style="stroke:grey;fill:grey;"/><polygon points="533.28,116.95999999999998 548.9399999999999,125.95999999999998 548.9399999999999,143.95999999999998 533.28,152.95999999999998 517.62,143.95999999999998 517.62,125.95999999999998" style="stroke:grey;fill:grey;"/><polygon points="566.6,116.95999999999998 582.26,125.95999999999998 582.26,143.95999999999998 566.6,152.95999999999998 550.94,143.95999999999998 550.94,125.95999999999998" style="stroke:grey;fill:grey;"/><polygon points="599.9200000000001,116.95999999999998 615.58,125.95999999999998 615.58,143.95999999999998 599.9200000000001,152.95999999999998 584.2600000000001,143.95999999999998 584.2600000000001,125.95999999999998" style="stroke:grey;fill:grey;"/><polygon points="633.2400000000001,116.95999999999998 648.9000000000001,125.95999999999998 648.9000000000001,143.95999999999998 633.2400000000001,152.95999999999998 617.5800000000002,143.95999999999998 617.5800000000002,125.95999999999998" style="stroke:grey;fill:grey;"/><polygon points="666.5600000000002,116.95999999999998 682.2200000000001,125.95999999999998 682.2200000000001,143.95999999999998 666.5600000000002,152.95999999999998 650.9000000000002,143.95999999999998 650.9000000000002,125.95999999999998" style="stroke:grey;fill:grey;"/><polygon points="699.8800000000002,116.95999999999998 715.5400000000002,125.95999999999998 715.5400000000002,143.95999999999998 699.8800000000002,152.95999999999998 684.2200000000003,143.95999999999998 684.2200000000003,125.95999999999998" style="stroke:grey;fill:grey;"/><polygon points="733.2000000000003,116.95999999999998 748.8600000000002,125.95999999999998 748.8600000000002,143.95999999999998 733.2000000000003,152.95999999999998 717.5400000000003,143.95999999999998 717.5400000000003,125.95999999999998" style="stroke:grey;fill:grey;"/><polygon points="50.14,145.7 65.8,154.7 65.8,172.7 50.14,181.7 34.480000000000004,172.7 34.480000000000004,154.7" style="stroke:grey;fill:grey;"/><polygon points="83.46000000000001,145.7 99.12,154.7 99.12,172.7 83.46000000000001,181.7 67.80000000000001,172.7 67.80000000000001,154.7" style="stroke:grey;fill:grey;"/><polygon points="116.78,145.7 132.44,154.7 132.44,172.7 116.78,181.7 101.12,172.7 101.12,154.7" style="stroke:grey;fill:grey;"/><polygon points="150.1,145.7 165.76,154.7 165.76,172.7 150.1,181.7 134.44,172.7 134.44,154.7" style="stroke:grey;fill:grey;"/><polygon points="183.42,145.7 199.07999999999998,154.7 199.07999999999998,172.7 183.42,181.7 167.76,172.7 167.76,154.7" style="stroke:grey;fill:grey;"/><polygon points="216.73999999999998,145.7 232.39999999999998,154.7 232.39999999999998,172.7 216.73999999999998,181.7 201.07999999999998,172.7 201.07999999999998,154.7" style="stroke:grey;fill:grey;"/><polygon points="250.05999999999997,145.7 265.71999999999997,154.7 265.71999999999997,172.7 250.05999999999997,181.7 234.39999999999998,172.7 234.39999999999998,154.7" style="stroke:grey;fill:grey;"/><polygon points="283.38,145.7 299.04,154.7 299.04,172.7 283.38,181.7 267.71999999999997,172.7 267.71999999999997,154.7" style="stroke:grey;fill:grey;"/><polygon points="316.7,145.7 332.36,154.7 332.36,172.7 316.7,181.7 301.03999999999996,172.7 301.03999999999996,154.7" style="stroke:grey;fill:grey;"/><polygon points="350.02,145.7 365.68,154.7 365.68,172.7 350.02,181.7 334.35999999999996,172.7 334.35999999999996,154.7" style="stroke:grey;fill:grey;"/><polygon points="383.34,145.7 399.0,154.7 399.0,172.7 383.34,181.7 367.67999999999995,172.7 367.67999999999995,154.7" style="stroke:grey;fill:grey;"/><polygon points="416.65999999999997,145.7 432.32,154.7 432.32,172.7 416.65999999999997,181.7 400.99999999999994,172.7 400.99999999999994,154.7" style="stroke:grey;fill:grey;"/><polygon points="449.97999999999996,145.7 465.64,154.7 465.64,172.7 449.97999999999996,181.7 434.31999999999994,172.7 434.31999999999994,154.7" style="stroke:grey;fill:grey;"/><polygon points="483.29999999999995,145.7 498.96,154.7 498.96,172.7 483.29999999999995,181.7 467.63999999999993,172.7 467.63999999999993,154.7" style="stroke:grey;fill:grey;"/><polygon points="516.62,145.7 532.28,154.7 532.28,172.7 516.62,181.7 500.96,172.7 500.96,154.7" style="stroke:grey;fill:grey;"/><polygon points="549.94,145.7 565.6,154.7 565.6,172.7 549.94,181.7 534.2800000000001,172.7 534.2800000000001,154.7" style="stroke:grey;fill:grey;"/><polygon points="583.2600000000001,145.7 598.9200000000001,154.7 598.9200000000001,172.7 583.2600000000001,181.7 567.6000000000001,172.7 567.6000000000001,154.7" style="stroke:grey;fill:grey;"/><polygon points="616.5800000000002,145.7 632.2400000000001,154.7 632.2400000000001,172.7 616.5800000000002,181.7 600.9200000000002,172.7 600.9200000000002,154.7" style="stroke:grey;fill:grey;"/><polygon points="649.9000000000002,145.7 665.5600000000002,154.7 665.5600000000002,172.7 649.9000000000002,181.7 634.2400000000002,172.7 634.2400000000002,154.7" style="stroke:grey;fill:grey;"/><polygon points="683.2200000000003,145.7 698.8800000000002,154.7 698.8800000000002,172.7 683.2200000000003,181.7 667.5600000000003,172.7 667.5600000000003,154.7" style="stroke:grey;fill:grey;"/><polygon points="716.5400000000003,145.7 732.2000000000003,154.7 732.2000000000003,172.7 716.5400000000003,181.7 700.8800000000003,172.7 700.8800000000003,154.7" style="stroke:grey;fill:grey;"/><polygon points="33.480000000000004,174.44 49.14,183.44 49.14,201.44 33.480000000000004,210.44 17.820000000000004,201.44 17.820000000000004,183.44" style="stroke:grey;fill:grey;"/><polygon points="66.80000000000001,174.44 82.46000000000001,183.44 82.46000000000001,201.44 66.80000000000001,210.44 51.140000000000015,201.44 51.140000000000015,183.44" style="stroke:grey;fill:grey;"/><polygon points="100.12,174.44 115.78,183.44 115.78,201.44 100.12,210.44 84.46000000000001,201.44 84.46000000000001,183.44" style="stroke:grey;fill:grey;"/><polygon points="133.44,174.44 149.1,183.44 149.1,201.44 133.44,210.44 117.78,201.44 117.78,183.44" style="stroke:grey;fill:grey;"/><polygon points="166.76,174.44 182.42,183.44 182.42,201.44 166.76,210.44 151.1,201.44 151.1,183.44" style="stroke:grey;fill:grey;"/><polygon points="200.07999999999998,174.44 215.73999999999998,183.44 215.73999999999998,201.44 200.07999999999998,210.44 184.42,201.44 184.42,183.44" style="stroke:grey;fill:grey;"/><polygon points="233.39999999999998,174.44 249.05999999999997,183.44 249.05999999999997,201.44 233.39999999999998,210.44 217.73999999999998,201.44 217.73999999999998,183.44" style="stroke:grey;fill:grey;"/><polygon points="266.71999999999997,174.44 282.38,183.44 282.38,201.44 266.71999999999997,210.44 251.05999999999997,201.44 251.05999999999997,183.44" style="stroke:grey;fill:grey;"/><polygon points="300.03999999999996,174.44 315.7,183.44 315.7,201.44 300.03999999999996,210.44 284.37999999999994,201.44 284.37999999999994,183.44" style="stroke:grey;fill:grey;"/><polygon points="333.35999999999996,174.44 349.02,183.44 349.02,201.44 333.35999999999996,210.44 317.69999999999993,201.44 317.69999999999993,183.44" style="stroke:grey;fill:grey;"/><polygon points="366.67999999999995,174.44 382.34,183.44 382.34,201.44 366.67999999999995,210.44 351.0199999999999,201.44 351.0199999999999,183.44" style="stroke:grey;fill:grey;"/><polygon points="399.99999999999994,174.44 415.65999999999997,183.44 415.65999999999997,201.44 399.99999999999994,210.44 384.3399999999999,201.44 384.3399999999999,183.44" style="stroke:grey;fill:grey;"/><polygon points="433.31999999999994,174.44 448.97999999999996,183.44 448.97999999999996,201.44 433.31999999999994,210.44 417.6599999999999,201.44 417.6599999999999,183.44" style="stroke:grey;fill:grey;"/><polygon points="466.63999999999993,174.44 482.29999999999995,183.44 482.29999999999995,201.44 466.63999999999993,210.44 450.9799999999999,201.44 450.9799999999999,183.44" style="stroke:grey;fill:grey;"/><polygon points="499.9599999999999,174.44 515.6199999999999,183.44 515.6199999999999,201.44 499.9599999999999,210.44 484.2999999999999,201.44 484.2999999999999,183.44" style="stroke:grey;fill:grey;"/><polygon points="533.28,174.44 548.9399999999999,183.44 548.9399999999999,201.44 533.28,210.44 517.62,201.44 517.62,183.44" style="stroke:grey;fill:grey;"/><polygon points="566.6,174.44 582.26,183.44 582.26,201.44 566.6,210.44 550.94,201.44 550.94,183.44" style="stroke:grey;fill:grey;"/><polygon points="599.9200000000001,174.44 615.58,183.44 615.58,201.44 599.9200000000001,210.44 584.2600000000001,201.44 584.2600000000001,183.44" style="stroke:grey;fill:grey;"/><polygon points="633.2400000000001,174.44 648.9000000000001,183.44 648.9000000000001,201.44 633.2400000000001,210.44 617.5800000000002,201.44 617.5800000000002,183.44" style="stroke:grey;fill:grey;"/><polygon points="666.5600000000002,174.44 682.2200000000001,183.44 682.2200000000001,201.44 666.5600000000002,210.44 650.9000000000002,201.44 650.9000000000002,183.44" style="stroke:grey;fill:grey;"/><polygon points="699.8800000000002,174.44 715.5400000000002,183.44 715.5400000000002,201.44 699.8800000000002,210.44 684.2200000000003,201.44 684.2200000000003,183.44" style="stroke:grey;fill:grey;"/><polygon points="733.2000000000003,174.44 748.8600000000002,183.44 748.8600000000002,201.44 733.2000000000003,210.44 717.5400000000003,201.44 717.5400000000003,183.44" style="stroke:grey;fill:grey;"/><polygon points="50.14,203.18 65.8,212.18 65.8,230.18 50.14,239.18 34.480000000000004,230.18 34.480000000000004,212.18" style="stroke:grey;fill:grey;"/><polygon points="83.46000000000001,203.18 99.12,212.18 99.12,230.18 83.46000000000001,239.18 67.80000000000001,230.18 67.80000000000001,212.18" style="stroke:grey;fill:grey;"/><polygon points="116.78,203.18 132.44,212.18 132.44,230.18 116.78,239.18 101.12,230.18 101.12,212.18" style="stroke:grey;fill:grey;"/><polygon points="150.1,203.18 165.76,212.18 165.76,230.18 150.1,239.18 134.44,230.18 134.44,212.18" style="stroke:grey;fill:grey;"/><polygon points="183.42,203.18 199.07999999999998,212.18 199.07999999999998,230.18 183.42,239.18 167.76,230.18 167.76,212.18" style="stroke:grey;fill:grey;"/><polygon points="216.73999999999998,203.18 232.39999999999998,212.18 232.39999999999998,230.18 216.73999999999998,239.18 201.07999999999998,230.18 201.07999999999998,212.18" style="stroke:grey;fill:grey;"/><polygon points="250.05999999999997,203.18 265.71999999999997,212.18 265.71999999999997,230.18 250.05999999999997,239.18 234.39999999999998,230.18 234.39999999999998,212.18" style="stroke:grey;fill:grey;"/><polygon points="283.38,203.18 299.04,212.18 299.04,230.18 283.38,239.18 267.71999999999997,230.18 267.71999999999997,212.18" style="stroke:grey;fill:grey;"/><polygon points="316.7,203.18 332.36,212.18 332.36,230.18 316.7,239.18 301.03999999999996,230.18 301.03999999999996,212.18" style="stroke:grey;fill:grey;"/><polygon points="350.02,203.18 365.68,212.18 365.68,230.18 350.02,239.18 334.35999999999996,230.18 334.35999999999996,212.18" style="stroke:grey;fill:grey;"/><polygon points="383.34,203.18 399.0,212.18 399.0,230.18 383.34,239.18 367.67999999999995,230.18 367.67999999999995,212.18" style="stroke:grey;fill:grey;"/><polygon points="416.65999999999997,203.18 432.32,212.18 432.32,230.18 416.65999999999997,239.18 400.99999999999994,230.18 400.99999999999994,212.18" style="stroke:grey;fill:grey;"/><polygon points="449.97999999999996,203.18 465.64,212.18 465.64,230.18 449.97999999999996,239.18 434.31999999999994,230.18 434.31999999999994,212.18" style="stroke:grey;fill:grey;"/><polygon points="483.29999999999995,203.18 498.96,212.18 498.96,230.18 483.29999999999995,239.18 467.63999999999993,230.18 467.63999999999993,212.18" style="stroke:grey;fill:grey;"/><polygon points="516.62,203.18 532.28,212.18 532.28,230.18 516.62,239.18 500.96,230.18 500.96,212.18" style="stroke:grey;fill:grey;"/><polygon points="549.94,203.18 565.6,212.18 565.6,230.18 549.94,239.18 534.2800000000001,230.18 534.2800000000001,212.18" style="stroke:grey;fill:grey;"/><polygon points="583.2600000000001,203.18 598.9200000000001,212.18 598.9200000000001,230.18 583.2600000000001,239.18 567.6000000000001,230.18 567.6000000000001,212.18" style="stroke:grey;fill:grey;"/><polygon points="616.5800000000002,203.18 632.2400000000001,212.18 632.2400000000001,230.18 616.5800000000002,239.18 600.9200000000002,230.18 600.9200000000002,212.18" style="stroke:grey;fill:grey;"/><polygon points="649.9000000000002,203.18 665.5600000000002,212.18 665.5600000000002,230.18 649.9000000000002,239.18 634.2400000000002,230.18 634.2400000000002,212.18" style="stroke:grey;fill:grey;"/><polygon points="683.2200000000003,203.18 698.8800000000002,212.18 698.8800000000002,230.18 683.2200000000003,239.18 667.5600000000003,230.18 667.5600000000003,212.18" style="stroke:grey;fill:grey;"/><polygon points="716.5400000000003,203.18 732.2000000000003,212.18 732.2000000000003,230.18 716.5400000000003,239.18 700.8800000000003,230.18 700.8800000000003,212.18" style="stroke:grey;fill:grey;"/><polygon points="33.480000000000004,231.92000000000002 49.14,240.92000000000002 49.14,258.92 33.480000000000004,267.92 17.820000000000004,258.92 17.820000000000004,240.92000000000002" style="stroke:grey;fill:grey;"/><polygon points="66.80000000000001,231.92000000000002 82.46000000000001,240.92000000000002 82.46000000000001,258.92 66.80000000000001,267.92 51.140000000000015,258.92 51.140000000000015,240.92000000000002" style="stroke:grey;fill:grey;"/><polygon points="100.12,231.92000000000002 115.78,240.92000000000002 115.78,258.92 100.12,267.92 84.46000000000001,258.92 84.46000000000001,240.92000000000002" style="stroke:grey;fill:grey;"/><polygon points="133.44,231.92000000000002 149.1,240.92000000000002 149.1,258.92 133.44,267.92 117.78,258.92 117.78,240.92000000000002" style="stroke:grey;fill:grey;"/><polygon points="166.76,231.92000000000002 182.42,240.92000000000002 182.42,258.92 166.76,267.92 151.1,258.92 151.1,240.92000000000002" style="stroke:grey;fill:grey;"/><polygon points="200.07999999999998,231.92000000000002 215.73999999999998,240.92000000000002 215.73999999999998,258.92 200.07999999999998,267.92 184.42,258.92 184.42,240.92000000000002" style="stroke:grey;fill:grey;"/><polygon points="233.39999999999998,231.92000000000002 249.05999999999997,240.92000000000002 249.05999999999997,258.92 233.39999999999998,267.92 217.73999999999998,258.92 217.73999999999998,240.92000000000002" style="stroke:grey;fill:grey;"/><polygon points="266.71999999999997,231.92000000000002 282.38,240.92000000000002 282.38,258.92 266.71999999999997,267.92 251.05999999999997,258.92 251.05999999999997,240.92000000000002" style="stroke:grey;fill:grey;"/><polygon points="300.03999999999996,231.92000000000002 315.7,240.92000000000002 315.7,258.92 300.03999999999996,267.92 284.37999999999994,258.92 284.37999999999994,240.92000000000002" style="stroke:grey;fill:grey;"/><polygon points="333.35999999999996,231.92000000000002 349.02,240.92000000000002 349.02,258.92 333.35999999999996,267.92 317.69999999999993,258.92 317.69999999999993,240.92000000000002" style="stroke:grey;fill:grey;"/><polygon points="366.67999999999995,231.92000000000002 382.34,240.92000000000002 382.34,258.92 366.67999999999995,267.92 351.0199999999999,258.92 351.0199999999999,240.92000000000002" style="stroke:grey;fill:grey;"/><polygon points="399.99999999999994,231.92000000000002 415.65999999999997,240.92000000000002 415.65999999999997,258.92 399.99999999999994,267.92 384.3399999999999,258.92 384.3399999999999,240.92000000000002" style="stroke:grey;fill:grey;"/><polygon points="433.31999999999994,231.92000000000002 448.97999999999996,240.92000000000002 448.97999999999996,258.92 433.31999999999994,267.92 417.6599999999999,258.92 417.6599999999999,240.92000000000002" style="stroke:grey;fill:grey;"/><polygon points="466.63999999999993,231.92000000000002 482.29999999999995,240.92000000000002 482.29999999999995,258.92 466.63999999999993,267.92 450.9799999999999,258.92 450.9799999999999,240.92000000000002" style="stroke:grey;fill:grey;"/><polygon points="499.9599999999999,231.92000000000002 515.6199999999999,240.92000000000002 515.6199999999999,258.92 499.9599999999999,267.92 484.2999999999999,258.92 484.2999999999999,240.92000000000002" style="stroke:grey;fill:grey;"/><polygon points="533.28,231.92000000000002 548.9399999999999,240.92000000000002 548.9399999999999,258.92 533.28,267.92 517.62,258.92 517.62,240.92000000000002" style="stroke:grey;fill:grey;"/><polygon points="566.6,231.92000000000002 582.26,240.92000000000002 582.26,258.92 566.6,267.92 550.94,258.92 550.94,240.92000000000002" style="stroke:grey;fill:grey;"/><polygon points="599.9200000000001,231.92000000000002 615.58,240.92000000000002 615.58,258.92 599.9200000000001,267.92 584.2600000000001,258.92 584.2600000000001,240.92000000000002" style="stroke:grey;fill:grey;"/><polygon points="633.2400000000001,231.92000000000002 648.9000000000001,240.92000000000002 648.9000000000001,258.92 633.2400000000001,267.92 617.5800000000002,258.92 617.5800000000002,240.92000000000002" style="stroke:grey;fill:grey;"/><polygon points="666.5600000000002,231.92000000000002 682.2200000000001,240.92000000000002 682.2200000000001,258.92 666.5600000000002,267.92 650.9000000000002,258.92 650.9000000000002,240.92000000000002" style="stroke:grey;fill:grey;"/><polygon points="699.8800000000002,231.92000000000002 715.5400000000002,240.92000000000002 715.5400000000002,258.92 699.8800000000002,267.92 684.2200000000003,258.92 684.2200000000003,240.92000000000002" style="stroke:grey;fill:grey;"/><polygon points="733.2000000000003,231.92000000000002 748.8600000000002,240.92000000000002 748.8600000000002,258.92 733.2000000000003,267.92 717.5400000000003,258.92 717.5400000000003,240.92000000000002" style="stroke:grey;fill:grey;"/><polygon points="50.14,260.66 65.8,269.66 65.8,287.66 50.14,296.66 34.480000000000004,287.66 34.480000000000004,269.66" style="stroke:grey;fill:grey;"/><polygon points="83.46000000000001,260.66 99.12,269.66 99.12,287.66 83.46000000000001,296.66 67.80000000000001,287.66 67.80000000000001,269.66" style="stroke:grey;fill:grey;"/><polygon points="116.78,260.66 132.44,269.66 132.44,287.66 116.78,296.66 101.12,287.66 101.12,269.66" style="stroke:grey;fill:grey;"/><polygon points="150.1,260.66 165.76,269.66 165.76,287.66 150.1,296.66 134.44,287.66 134.44,269.66" style="stroke:grey;fill:grey;"/><polygon points="183.42,260.66 199.07999999999998,269.66 199.07999999999998,287.66 183.42,296.66 167.76,287.66 167.76,269.66" style="stroke:grey;fill:grey;"/><polygon points="216.73999999999998,260.66 232.39999999999998,269.66 232.39999999999998,287.66 216.73999999999998,296.66 201.07999999999998,287.66 201.07999999999998,269.66" style="stroke:grey;fill:grey;"/><polygon points="250.05999999999997,260.66 265.71999999999997,269.66 265.71999999999997,287.66 250.05999999999997,296.66 234.39999999999998,287.66 234.39999999999998,269.66" style="stroke:grey;fill:grey;"/><polygon points="283.38,260.66 299.04,269.66 299.04,287.66 283.38,296.66 267.71999999999997,287.66 267.71999999999997,269.66" style="stroke:grey;fill:grey;"/><polygon points="316.7,260.66 332.36,269.66 332.36,287.66 316.7,296.66 301.03999999999996,287.66 301.03999999999996,269.66" style="stroke:grey;fill:grey;"/><polygon points="350.02,260.66 365.68,269.66 365.68,287.66 350.02,296.66 334.35999999999996,287.66 334.35999999999996,269.66" style="stroke:grey;fill:grey;"/><polygon points="383.34,260.66 399.0,269.66 399.0,287.66 383.34,296.66 367.67999999999995,287.66 367.67999999999995,269.66" style="stroke:grey;fill:grey;"/><polygon points="416.65999999999997,260.66 432.32,269.66 432.32,287.66 416.65999999999997,296.66 400.99999999999994,287.66 400.99999999999994,269.66" style="stroke:grey;fill:grey;"/><polygon points="449.97999999999996,260.66 465.64,269.66 465.64,287.66 449.97999999999996,296.66 434.31999999999994,287.66 434.31999999999994,269.66" style="stroke:grey;fill:grey;"/><polygon points="483.29999999999995,260.66 498.96,269.66 498.96,287.66 483.29999999999995,296.66 467.63999999999993,287.66 467.63999999999993,269.66" style="stroke:grey;fill:grey;"/><polygon points="516.62,260.66 532.28,269.66 532.28,287.66 516.62,296.66 500.96,287.66 500.96,269.66" style="stroke:grey;fill:grey;"/><polygon points="549.94,260.66 565.6,269.66 565.6,287.66 549.94,296.66 534.2800000000001,287.66 534.2800000000001,269.66" style="stroke:grey;fill:grey;"/><polygon points="583.2600000000001,260.66 598.9200000000001,269.66 598.9200000000001,287.66 583.2600000000001,296.66 567.6000000000001,287.66 567.6000000000001,269.66" style="stroke:grey;fill:grey;"/><polygon points="616.5800000000002,260.66 632.2400000000001,269.66 632.2400000000001,287.66 616.5800000000002,296.66 600.9200000000002,287.66 600.9200000000002,269.66" style="stroke:grey;fill:grey;"/><polygon points="649.9000000000002,260.66 665.5600000000002,269.66 665.5600000000002,287.66 649.9000000000002,296.66 634.2400000000002,287.66 634.2400000000002,269.66" style="stroke:grey;fill:grey;"/><polygon points="683.2200000000003,260.66 698.8800000000002,269.66 698.8800000000002,287.66 683.2200000000003,296.66 667.5600000000003,287.66 667.5600000000003,269.66" style="stroke:grey;fill:grey;"/><polygon points="716.5400000000003,260.66 732.2000000000003,269.66 732.2000000000003,287.66 716.5400000000003,296.66 700.8800000000003,287.66 700.8800000000003,269.66" style="stroke:grey;fill:grey;"/></svg>
