<?xml version="1.0" standalone="no"?>
<!DOCTYPE svg PUBLIC "-//W3C//DTD SVG 1.1//EN"
  "http://www.w3.org/Graphics/SVG/1.1/DTD/svg11.dtd">
<svg width="768.3275000000001" height="394.2873563218391" version="1.1"
  xmlns="http://www.w3.org/2000/svg">
<polygon points="43.573750000000004,2.0 85.14750000000001,25.892959770114945 85.14750000000001,73.67887931034484 43.573750000000004,97.57183908045978 2.0,73.67887931034484 2.0,25.892959770114945" style="stroke:grey;fill:grey;"/><polygon points="128.72125,2.0 170.29500000000002,25.892959770114945 170.29500000000002,73.67887931034484 128.72125,97.57183908045978 87.1475,73.67887931034484 87.1475,25.892959770114945" style="stroke:grey;fill:grey;"/><polygon points="213.86875,2.0 255.4425,25.892959770114945 255.4425,73.67887931034484 213.86875,97.57183908045978 172.29500000000002,73.67887931034484 172.29500000000002,25.892959770114945" style="stroke:grey;fill:grey;"/><polygon points="299.01625,2.0 340.59000000000003,25.892959770114945 340.59000000000003,73.67887931034484 299.01625,97.57183908045978 257.4425,73.67887931034484 257.4425,25.892959770114945" style="stroke:grey;fill:grey;"/><polygon points="384.16375000000005,2.0 425.73750000000007,25.892959770114945 425.73750000000007,73.67887931034484 384.16375000000005,97.57183908045978 342.59000000000003,73.67887931034484 342.59000000000003,25.892959770114945" style="stroke:grey;fill:grey;"/><polygon points="469.3112500000001,2.0 510.8850000000001,25.892959770114945 510.8850000000001,73.67887931034484 469.3112500000001,97.57183908045978 427.73750000000007,73.67887931034484 427.73750000000007,25.892959770114945" style="stroke:grey;fill:grey;"/><polygon points="554.4587500000001,2.0 596.0325000000001,25.892959770114945 596.0325000000001,73.67887931034484 554.4587500000001,97.57183908045978 512.8850000000001,73.67887931034484 512.8850000000001,25.892959770114945" style="stroke:grey;fill:grey;"/><polygon points="639.6062500000002,2.0 681.1800000000002,25.892959770114945 681.1800000000002,73.67887931034484 639.6062500000002,97.57183908045978 598.0325000000001,73.67887931034484 598.0325000000001,25.892959770114945" style="stroke:grey;fill:grey;"/><polygon points="724.7537500000002,2.0 766.3275000000002,25.892959770114945 766.3275000000002,73.67887931034484 724.7537500000002,97.57183908045978 683.1800000000002,73.67887931034484 683.1800000000002,25.892959770114945" style="stroke:grey;fill:grey;"/><polygon points="86.14750000000001,75.41887931034483 127.72125000000001,99.31183908045978 127.72125000000001,147.09775862068966 86.14750000000001,170.9907183908046 44.573750000000004,147.09775862068966 44.573750000000004,99.31183908045978" style="stroke:grey;fill:grey;"/><polygon points="171.29500000000002,75.41887931034483 212.86875000000003,99.31183908045978 212.86875000000003,147.09775862068966 171.29500000000002,170.9907183908046 129.72125,147.09775862068966 129.72125,99.31183908045978" style="stroke:grey;fill:grey;"/><polygon points="256.4425,75.41887931034483 298.01625,99.31183908045978 298.01625,147.09775862068966 256.4425,170.9907183908046 214.86874999999998,147.09775862068966 214.86874999999998,99.31183908045978" style="stroke:grey;fill:grey;"/><polygon points="341.59000000000003,75.41887931034483 383.16375000000005,99.31183908045978 383.16375000000005,147.09775862068966 341.59000000000003,170.9907183908046 300.01625,147.09775862068966 300.01625,99.31183908045978" style="stroke:grey;fill:grey;"/><polygon points="426.73750000000007,75.41887931034483 468.3112500000001,99.31183908045978 468.3112500000001,147.09775862068966 426.73750000000007,170.9907183908046 385.16375000000005,147.09775862068966 385.16375000000005,99.31183908045978" style="stroke:grey;fill:grey;"/><polygon points="511.8850000000001,75.41887931034483 553.4587500000001,99.31183908045978 553.4587500000001,147.09775862068966 511.8850000000001,170.9907183908046 470.3112500000001,147.09775862068966 470.3112500000001,99.31183908045978" style="stroke:grey;fill:grey;"/><polygon points="597.0325000000001,75.41887931034483 638.6062500000002,99.31183908045978 638.6062500000002,147.09775862068966 597.0325000000001,170.9907183908046 555.4587500000001,147.09775862068966 555.4587500000001,99.31183908045978" style="stroke:grey;fill:grey;"/><polygon points="682.1800000000002,75.41887931034483 723.7537500000002,99.31183908045978 723.7537500000002,147.09775862068966 682.1800000000002,170.9907183908046 640.6062500000002,147.09775862068966 640.6062500000002,99.31183908045978" style="stroke:grey;fill:grey;"/><polygon points="43.573750000000004,148.83775862068967 85.14750000000001,172.7307183908046 85.14750000000001,220.5166379310345 43.573750000000004,244.40959770114944 2.0,220.5166379310345 2.0,172.7307183908046" style="stroke:grey;fill:grey;"/><polygon points="128.72125,148.83775862068967 170.29500000000002,172.7307183908046 170.29500000000002,220.5166379310345 128.72125,244.40959770114944 87.1475,220.5166379310345 87.1475,172.7307183908046" style="stroke:grey;fill:grey;"/><polygon points="213.86875,148.83775862068967 255.4425,172.7307183908046 255.4425,220.5166379310345 213.86875,244.40959770114944 172.29500000000002,220.5166379310345 172.29500000000002,172.7307183908046" style="stroke:grey;fill:grey;"/><polygon points="299.01625,148.83775862068967 340.59000000000003,172.7307183908046 340.59000000000003,220.5166379310345 299.01625,244.40959770114944 257.4425,220.5166379310345 257.4425,172.7307183908046" style="stroke:grey;fill:grey;"/><polygon points="384.16375000000005,148.83775862068967 425.73750000000007,172.7307183908046 425.73750000000007,220.5166379310345 384.16375000000005,244.40959770114944 342.59000000000003,220.5166379310345 342.59000000000003,172.7307183908046" style="stroke:grey;fill:grey;"/><polygon points="469.3112500000001,148.83775862068967 510.8850000000001,172.7307183908046 510.8850000000001,220.5166379310345 469.3112500000001,244.40959770114944 427.73750000000007,220.5166379310345 427.73750000000007,172.7307183908046" style="stroke:grey;fill:grey;"/><polygon points="554.4587500000001,148.83775862068967 596.0325000000001,172.7307183908046 596.0325000000001,220.5166379310345 554.4587500000001,244.40959770114944 512.8850000000001,220.5166379310345 512.8850000000001,172.7307183908046" style="stroke:grey;fill:grey;"/><polygon points="639.6062500000002,148.83775862068967 681.1800000000002,172.7307183908046 681.1800000000002,220.5166379310345 639.6062500000002,244.40959770114944 598.0325000000001,220.5166379310345 598.0325000000001,172.7307183908046" style="stroke:grey;fill:grey;"/><polygon points="724.7537500000002,148.83775862068967 766.3275000000002,172.7307183908046 766.3275000000002,220.5166379310345 724.7537500000002,244.40959770114944 683.1800000000002,220.5166379310345 683.1800000000002,172.7307183908046" style="stroke:grey;fill:grey;"/><polygon points="86.14750000000001,222.2566379310345 127.72125000000001,246.14959770114945 127.72125000000001,293.93551724137933 86.14750000000001,317.8284770114943 44.573750000000004,293.93551724137933 44.573750000000004,246.14959770114945" style="stroke:grey;fill:grey;"/><polygon points="171.29500000000002,222.2566379310345 212.86875000000003,246.14959770114945 212.86875000000003,293.93551724137933 171.29500000000002,317.8284770114943 129.72125,293.93551724137933 129.72125,246.14959770114945" style="stroke:grey;fill:grey;"/><polygon points="256.4425,222.2566379310345 298.01625,246.14959770114945 298.01625,293.93551724137933 256.4425,317.8284770114943 214.86874999999998,293.93551724137933 214.86874999999998,246.14959770114945" style="stroke:grey;fill:grey;"/><polygon points="341.59000000000003,222.2566379310345 383.16375000000005,246.14959770114945 383.16375000000005,293.93551724137933 341.59000000000003,317.8284770114943 300.01625,293.93551724137933 300.01625,246.14959770114945" style="stroke:grey;fill:grey;"/><polygon points="426.73750000000007,222.2566379310345 468.3112500000001,246.14959770114945 468.3112500000001,293.93551724137933 426.73750000000007,317.8284770114943 385.16375000000005,293.93551724137933 385.16375000000005,246.14959770114945" style="stroke:grey;fill:grey;"/><polygon points="511.8850000000001,222.2566379310345 553.4587500000001,246.14959770114945 553.4587500000001,293.93551724137933 511.8850000000001,317.8284770114943 470.3112500000001,293.93551724137933 470.3112500000001,246.14959770114945" style="stroke:grey;fill:grey;"/><polygon points="597.0325000000001,222.2566379310345 638.6062500000002,246.14959770114945 638.6062500000002,293.93551724137933 597.0325000000001,317.8284770114943 555.4587500000001,293.93551724137933 555.4587500000001,246.14959770114945" style="stroke:grey;fill:grey;"/><polygon points="682.1800000000002,222.2566379310345 723.7537500000002,246.14959770114945 723.7537500000002,293.93551724137933 682.1800000000002,317.8284770114943 640.6062500000002,293.93551724137933 640.6062500000002,246.14959770114945" style="stroke:grey;fill:grey;"/><polygon points="43.573750000000004,295.67551724137934 85.14750000000001,319.5684770114943 85.14750000000001,367.35439655172416 43.573750000000004,391.2473563218391 2.0,367.35439655172416 2.0,319.5684770114943" style="stroke:grey;fill:grey;"/><polygon points="128.72125,295.67551724137934 170.29500000000002,319.5684770114943 170.29500000000002,367.35439655172416 128.72125,391.2473563218391 87.1475,367.35439655172416 87.1475,319.5684770114943" style="stroke:grey;fill:grey;"/><polygon points="213.86875,295.67551724137934 255.4425,319.5684770114943 255.4425,367.35439655172416 213.86875,391.2473563218391 172.29500000000002,367.35439655172416 172.29500000000002,319.5684770114943" style="stroke:grey;fill:grey;"/><polygon points="299.01625,295.67551724137934 340.59000000000003,319.5684770114943 340.59000000000003,367.35439655172416 299.01625,391.2473563218391 257.4425,367.35439655172416 257.4425,319.5684770114943" style="stroke:grey;fill:grey;"/><polygon points="384.16375000000005,295.67551724137934 425.73750000000007,319.5684770114943 425.73750000000007,367.35439655172416 384.16375000000005,391.2473563218391 342.59000000000003,367.35439655172416 342.59000000000003,319.5684770114943" style="stroke:grey;fill:grey;"/><polygon points="469.3112500000001,295.67551724137934 510.8850000000001,319.5684770114943 510.8850000000001,367.35439655172416 469.3112500000001,391.2473563218391 427.73750000000007,367.35439655172416 427.73750000000007,319.5684770114943" style="stroke:grey;fill:grey;"/><polygon points="554.4587500000001,295.67551724137934 596.0325000000001,319.5684770114943 596.0325000000001,367.35439655172416 554.4587500000001,391.2473563218391 512.8850000000001,367.35439655172416 512.8850000000001,319.5684770114943" style="stroke:grey;fill:grey;"/><polygon points="639.6062500000002,295.67551724137934 681.1800000000002,319.5684770114943 681.1800000000002,367.35439655172416 639.6062500000002,391.2473563218391 598.0325000000001,367.35439655172416 598.0325000000001,319.5684770114943" style="stroke:grey;fill:grey;"/><polygon points="724.7537500000002,295.67551724137934 766.3275000000002,319.5684770114943 766.3275000000002,367.35439655172416 724.7537500000002,391.2473563218391 683.1800000000002,367.35439655172416 683.1800000000002,319.5684770114943" style="stroke:grey;fill:grey;"/></svg>
