<?xml version="1.0" standalone="no"?>
<svg width="400" height="400" version="1.1" xmlns="http://www.w3.org/2000/svg">
<polygon points="29.56242774566474 10.000000000000004 49.12485549132948 21.24277456647399 49.12485549132948 43.72832369942197 29.56242774566474 54.97109826589596 10.0 43.72832369942197 10.0 21.24277456647399" style="fill:grey" fill="transparent" stroke-width="0"/>
<polygon points="78.68728323699422 10.000000000000004 98.24971098265895 21.24277456647399 98.24971098265895 43.72832369942197 78.68728323699422 54.97109826589596 59.124855491329484 43.72832369942197 59.124855491329484 21.24277456647399" style="fill:grey" fill="transparent" stroke-width="0"/>
<polygon points="127.8121387283237 10.000000000000004 147.37456647398844 21.24277456647399 147.37456647398844 43.72832369942197 127.8121387283237 54.97109826589596 108.24971098265897 43.72832369942197 108.24971098265897 21.24277456647399" style="fill:grey" fill="transparent" stroke-width="0"/>
<polygon points="176.93699421965317 10.000000000000004 196.4994219653179 21.24277456647399 196.4994219653179 43.72832369942197 176.93699421965317 54.97109826589596 157.37456647398844 43.72832369942197 157.37456647398844 21.24277456647399" style="fill:grey" fill="transparent" stroke-width="0"/>
<polygon points="226.06184971098264 10.000000000000004 245.62427745664738 21.24277456647399 245.62427745664738 43.72832369942197 226.06184971098264 54.97109826589596 206.4994219653179 43.72832369942197 206.4994219653179 21.24277456647399" style="fill:grey" fill="transparent" stroke-width="0"/>
<polygon points="275.1867052023121 10.000000000000004 294.7491329479769 21.24277456647399 294.7491329479769 43.72832369942197 275.1867052023121 54.97109826589596 255.62427745664738 43.72832369942197 255.62427745664738 21.24277456647399" style="fill:grey" fill="transparent" stroke-width="0"/>
<polygon points="324.3115606936416 10.000000000000004 343.87398843930634 21.24277456647399 343.87398843930634 43.72832369942197 324.3115606936416 54.97109826589596 304.7491329479768 43.72832369942197 304.7491329479768 21.24277456647399" style="fill:grey" fill="transparent" stroke-width="0"/>
<polygon points="373.43641618497105 10.000000000000004 392.9988439306358 21.24277456647399 392.9988439306358 43.72832369942197 373.43641618497105 54.97109826589596 353.8739884393063 43.72832369942197 353.8739884393063 21.24277456647399" style="fill:grey" fill="transparent" stroke-width="0"/>
<polygon points="54.12485549132948 53.72832369942196 73.68728323699422 64.97109826589596 73.68728323699422 87.45664739884393 54.12485549132948 98.69942196531792 34.562427745664735 87.45664739884393 34.562427745664735 64.97109826589596" style="fill:grey" fill="transparent" stroke-width="0"/>
<polygon points="103.24971098265895 53.72832369942196 122.81213872832369 64.97109826589596 122.81213872832369 87.45664739884393 103.24971098265895 98.69942196531792 83.68728323699422 87.45664739884393 83.68728323699422 64.97109826589596" style="fill:grey" fill="transparent" stroke-width="0"/>
<polygon points="152.37456647398844 53.72832369942196 171.93699421965317 64.97109826589596 171.93699421965317 87.45664739884393 152.37456647398844 98.69942196531792 132.8121387283237 87.45664739884393 132.8121387283237 64.97109826589596" style="fill:grey" fill="transparent" stroke-width="0"/>
<polygon points="201.4994219653179 53.72832369942196 221.06184971098264 64.97109826589596 221.06184971098264 87.45664739884393 201.4994219653179 98.69942196531792 181.93699421965317 87.45664739884393 181.93699421965317 64.97109826589596" style="fill:grey" fill="transparent" stroke-width="0"/>
<polygon points="250.62427745664738 53.72832369942196 270.1867052023121 64.97109826589596 270.1867052023121 87.45664739884393 250.62427745664738 98.69942196531792 231.06184971098264 87.45664739884393 231.06184971098264 64.97109826589596" style="fill:grey" fill="transparent" stroke-width="0"/>
<polygon points="299.7491329479769 53.72832369942196 319.31156069364164 64.97109826589596 319.31156069364164 87.45664739884393 299.7491329479769 98.69942196531792 280.1867052023121 87.45664739884393 280.1867052023121 64.97109826589596" style="fill:grey" fill="transparent" stroke-width="0"/>
<polygon points="348.87398843930634 53.72832369942196 368.4364161849711 64.97109826589596 368.4364161849711 87.45664739884393 348.87398843930634 98.69942196531792 329.3115606936416 87.45664739884393 329.3115606936416 64.97109826589596" style="fill:grey" fill="transparent" stroke-width="0"/>
<polygon points="397.9988439306358 53.72832369942196 417.5612716763006 64.97109826589596 417.5612716763006 87.45664739884393 397.9988439306358 98.69942196531792 378.43641618497105 87.45664739884393 378.43641618497105 64.97109826589596" style="fill:grey" fill="transparent" stroke-width="0"/>
<polygon points="29.56242774566474 97.45664739884393 49.12485549132948 108.69942196531792 49.12485549132948 131.1849710982659 29.56242774566474 142.4277456647399 10.0 131.1849710982659 10.0 108.69942196531792" style="fill:grey" fill="transparent" stroke-width="0"/>
<polygon points="78.68728323699422 97.45664739884393 98.24971098265895 108.69942196531792 98.24971098265895 131.1849710982659 78.68728323699422 142.4277456647399 59.124855491329484 131.1849710982659 59.124855491329484 108.69942196531792" style="fill:grey" fill="transparent" stroke-width="0"/>
<polygon points="127.8121387283237 97.45664739884393 147.37456647398844 108.69942196531792 147.37456647398844 131.1849710982659 127.8121387283237 142.4277456647399 108.24971098265897 131.1849710982659 108.24971098265897 108.69942196531792" style="fill:grey" fill="transparent" stroke-width="0"/>
<polygon points="176.93699421965317 97.45664739884393 196.4994219653179 108.69942196531792 196.4994219653179 131.1849710982659 176.93699421965317 142.4277456647399 157.37456647398844 131.1849710982659 157.37456647398844 108.69942196531792" style="fill:grey" fill="transparent" stroke-width="0"/>
<polygon points="226.06184971098264 97.45664739884393 245.62427745664738 108.69942196531792 245.62427745664738 131.1849710982659 226.06184971098264 142.4277456647399 206.4994219653179 131.1849710982659 206.4994219653179 108.69942196531792" style="fill:grey" fill="transparent" stroke-width="0"/>
<polygon points="275.1867052023121 97.45664739884393 294.7491329479769 108.69942196531792 294.7491329479769 131.1849710982659 275.1867052023121 142.4277456647399 255.62427745664738 131.1849710982659 255.62427745664738 108.69942196531792" style="fill:grey" fill="transparent" stroke-width="0"/>
<polygon points="324.3115606936416 97.45664739884393 343.87398843930634 108.69942196531792 343.87398843930634 131.1849710982659 324.3115606936416 142.4277456647399 304.7491329479768 131.1849710982659 304.7491329479768 108.69942196531792" style="fill:grey" fill="transparent" stroke-width="0"/>
<polygon points="373.43641618497105 97.45664739884393 392.9988439306358 108.69942196531792 392.9988439306358 131.1849710982659 373.43641618497105 142.4277456647399 353.8739884393063 131.1849710982659 353.8739884393063 108.69942196531792" style="fill:grey" fill="transparent" stroke-width="0"/>
<polygon points="54.12485549132948 141.1849710982659 73.68728323699422 152.42774566473986 73.68728323699422 174.91329479768785 54.12485549132948 186.15606936416182 34.562427745664735 174.91329479768785 34.562427745664735 152.42774566473986" style="fill:grey" fill="transparent" stroke-width="0"/>
<polygon points="103.24971098265895 141.1849710982659 122.81213872832369 152.42774566473986 122.81213872832369 174.91329479768785 103.24971098265895 186.15606936416182 83.68728323699422 174.91329479768785 83.68728323699422 152.42774566473986" style="fill:grey" fill="transparent" stroke-width="0"/>
<polygon points="152.37456647398844 141.1849710982659 171.93699421965317 152.42774566473986 171.93699421965317 174.91329479768785 152.37456647398844 186.15606936416182 132.8121387283237 174.91329479768785 132.8121387283237 152.42774566473986" style="fill:grey" fill="transparent" stroke-width="0"/>
<polygon points="201.4994219653179 141.1849710982659 221.06184971098264 152.42774566473986 221.06184971098264 174.91329479768785 201.4994219653179 186.15606936416182 181.93699421965317 174.91329479768785 181.93699421965317 152.42774566473986" style="fill:grey" fill="transparent" stroke-width="0"/>
<polygon points="250.62427745664738 141.1849710982659 270.1867052023121 152.42774566473986 270.1867052023121 174.91329479768785 250.62427745664738 186.15606936416182 231.06184971098264 174.91329479768785 231.06184971098264 152.42774566473986" style="fill:grey" fill="transparent" stroke-width="0"/>
<polygon points="299.7491329479769 141.1849710982659 319.31156069364164 152.42774566473986 319.31156069364164 174.91329479768785 299.7491329479769 186.15606936416182 280.1867052023121 174.91329479768785 280.1867052023121 152.42774566473986" style="fill:grey" fill="transparent" stroke-width="0"/>
<polygon points="348.87398843930634 141.1849710982659 368.4364161849711 152.42774566473986 368.4364161849711 174.91329479768785 348.87398843930634 186.15606936416182 329.3115606936416 174.91329479768785 329.3115606936416 152.42774566473986" style="fill:grey" fill="transparent" stroke-width="0"/>
<polygon points="397.9988439306358 141.1849710982659 417.5612716763006 152.42774566473986 417.5612716763006 174.91329479768785 397.9988439306358 186.15606936416182 378.43641618497105 174.91329479768785 378.43641618497105 152.42774566473986" style="fill:grey" fill="transparent" stroke-width="0"/>
<polygon points="29.56242774566474 184.91329479768785 49.12485549132948 196.15606936416182 49.12485549132948 218.64161849710982 29.56242774566474 229.8843930635838 10.0 218.64161849710982 10.0 196.15606936416182" style="fill:grey" fill="transparent" stroke-width="0"/>
<polygon points="78.68728323699422 184.91329479768785 98.24971098265895 196.15606936416182 98.24971098265895 218.64161849710982 78.68728323699422 229.8843930635838 59.124855491329484 218.64161849710982 59.124855491329484 196.15606936416182" style="fill:grey" fill="transparent" stroke-width="0"/>
<polygon points="127.8121387283237 184.91329479768785 147.37456647398844 196.15606936416182 147.37456647398844 218.64161849710982 127.8121387283237 229.8843930635838 108.24971098265897 218.64161849710982 108.24971098265897 196.15606936416182" style="fill:grey" fill="transparent" stroke-width="0"/>
<polygon points="176.93699421965317 184.91329479768785 196.4994219653179 196.15606936416182 196.4994219653179 218.64161849710982 176.93699421965317 229.8843930635838 157.37456647398844 218.64161849710982 157.37456647398844 196.15606936416182" style="fill:grey" fill="transparent" stroke-width="0"/>
<polygon points="226.06184971098264 184.91329479768785 245.62427745664738 196.15606936416182 245.62427745664738 218.64161849710982 226.06184971098264 229.8843930635838 206.4994219653179 218.64161849710982 206.4994219653179 196.15606936416182" style="fill:grey" fill="transparent" stroke-width="0"/>
<polygon points="275.1867052023121 184.91329479768785 294.7491329479769 196.15606936416182 294.7491329479769 218.64161849710982 275.1867052023121 229.8843930635838 255.62427745664738 218.64161849710982 255.62427745664738 196.15606936416182" style="fill:grey" fill="transparent" stroke-width="0"/>
<polygon points="324.3115606936416 184.91329479768785 343.87398843930634 196.15606936416182 343.87398843930634 218.64161849710982 324.3115606936416 229.8843930635838 304.7491329479768 218.64161849710982 304.7491329479768 196.15606936416182" style="fill:grey" fill="transparent" stroke-width="0"/>
<polygon points="373.43641618497105 184.91329479768785 392.9988439306358 196.15606936416182 392.9988439306358 218.64161849710982 373.43641618497105 229.8843930635838 353.8739884393063 218.64161849710982 353.8739884393063 196.15606936416182" style="fill:grey" fill="transparent" stroke-width="0"/>
<polygon points="54.12485549132948 228.64161849710982 73.68728323699422 239.8843930635838 73.68728323699422 262.3699421965318 54.12485549132948 273.6127167630058 34.562427745664735 262.3699421965318 34.562427745664735 239.8843930635838" style="fill:grey" fill="transparent" stroke-width="0"/>
<polygon points="103.24971098265895 228.64161849710982 122.81213872832369 239.8843930635838 122.81213872832369 262.3699421965318 103.24971098265895 273.6127167630058 83.68728323699422 262.3699421965318 83.68728323699422 239.8843930635838" style="fill:grey" fill="transparent" stroke-width="0"/>
<polygon points="152.37456647398844 228.64161849710982 171.93699421965317 239.8843930635838 171.93699421965317 262.3699421965318 152.37456647398844 273.6127167630058 132.8121387283237 262.3699421965318 132.8121387283237 239.8843930635838" style="fill:grey" fill="transparent" stroke-width="0"/>
<polygon points="201.4994219653179 228.64161849710982 221.06184971098264 239.8843930635838 221.06184971098264 262.3699421965318 201.4994219653179 273.6127167630058 181.93699421965317 262.3699421965318 181.93699421965317 239.8843930635838" style="fill:grey" fill="transparent" stroke-width="0"/>
<polygon points="250.62427745664738 228.64161849710982 270.1867052023121 239.8843930635838 270.1867052023121 262.3699421965318 250.62427745664738 273.6127167630058 231.06184971098264 262.3699421965318 231.06184971098264 239.8843930635838" style="fill:grey" fill="transparent" stroke-width="0"/>
<polygon points="299.7491329479769 228.64161849710982 319.31156069364164 239.8843930635838 319.31156069364164 262.3699421965318 299.7491329479769 273.6127167630058 280.1867052023121 262.3699421965318 280.1867052023121 239.8843930635838" style="fill:grey" fill="transparent" stroke-width="0"/>
<polygon points="348.87398843930634 228.64161849710982 368.4364161849711 239.8843930635838 368.4364161849711 262.3699421965318 348.87398843930634 273.6127167630058 329.3115606936416 262.3699421965318 329.3115606936416 239.8843930635838" style="fill:grey" fill="transparent" stroke-width="0"/>
<polygon points="397.9988439306358 228.64161849710982 417.5612716763006 239.8843930635838 417.5612716763006 262.3699421965318 397.9988439306358 273.6127167630058 378.43641618497105 262.3699421965318 378.43641618497105 239.8843930635838" style="fill:grey" fill="transparent" stroke-width="0"/>
<polygon points="29.56242774566474 272.3699421965317 49.12485549132948 283.6127167630057 49.12485549132948 306.0982658959537 29.56242774566474 317.3410404624277 10.0 306.0982658959537 10.0 283.6127167630057" style="fill:grey" fill="transparent" stroke-width="0"/>
<polygon points="78.68728323699422 272.3699421965317 98.24971098265895 283.6127167630057 98.24971098265895 306.0982658959537 78.68728323699422 317.3410404624277 59.124855491329484 306.0982658959537 59.124855491329484 283.6127167630057" style="fill:grey" fill="transparent" stroke-width="0"/>
<polygon points="127.8121387283237 272.3699421965317 147.37456647398844 283.6127167630057 147.37456647398844 306.0982658959537 127.8121387283237 317.3410404624277 108.24971098265897 306.0982658959537 108.24971098265897 283.6127167630057" style="fill:grey" fill="transparent" stroke-width="0"/>
<polygon points="176.93699421965317 272.3699421965317 196.4994219653179 283.6127167630057 196.4994219653179 306.0982658959537 176.93699421965317 317.3410404624277 157.37456647398844 306.0982658959537 157.37456647398844 283.6127167630057" style="fill:grey" fill="transparent" stroke-width="0"/>
<polygon points="226.06184971098264 272.3699421965317 245.62427745664738 283.6127167630057 245.62427745664738 306.0982658959537 226.06184971098264 317.3410404624277 206.4994219653179 306.0982658959537 206.4994219653179 283.6127167630057" style="fill:grey" fill="transparent" stroke-width="0"/>
<polygon points="275.1867052023121 272.3699421965317 294.7491329479769 283.6127167630057 294.7491329479769 306.0982658959537 275.1867052023121 317.3410404624277 255.62427745664738 306.0982658959537 255.62427745664738 283.6127167630057" style="fill:grey" fill="transparent" stroke-width="0"/>
<polygon points="324.3115606936416 272.3699421965317 343.87398843930634 283.6127167630057 343.87398843930634 306.0982658959537 324.3115606936416 317.3410404624277 304.7491329479768 306.0982658959537 304.7491329479768 283.6127167630057" style="fill:grey" fill="transparent" stroke-width="0"/>
<polygon points="373.43641618497105 272.3699421965317 392.9988439306358 283.6127167630057 392.9988439306358 306.0982658959537 373.43641618497105 317.3410404624277 353.8739884393063 306.0982658959537 353.8739884393063 283.6127167630057" style="fill:grey" fill="transparent" stroke-width="0"/>
<polygon points="54.12485549132948 316.09826589595366 73.68728323699422 327.34104046242766 73.68728323699422 349.82658959537565 54.12485549132948 361.06936416184965 34.562427745664735 349.82658959537565 34.562427745664735 327.34104046242766" style="fill:grey" fill="transparent" stroke-width="0"/>
<polygon points="103.24971098265895 316.09826589595366 122.81213872832369 327.34104046242766 122.81213872832369 349.82658959537565 103.24971098265895 361.06936416184965 83.68728323699422 349.82658959537565 83.68728323699422 327.34104046242766" style="fill:grey" fill="transparent" stroke-width="0"/>
<polygon points="152.37456647398844 316.09826589595366 171.93699421965317 327.34104046242766 171.93699421965317 349.82658959537565 152.37456647398844 361.06936416184965 132.8121387283237 349.82658959537565 132.8121387283237 327.34104046242766" style="fill:grey" fill="transparent" stroke-width="0"/>
<polygon points="201.4994219653179 316.09826589595366 221.06184971098264 327.34104046242766 221.06184971098264 349.82658959537565 201.4994219653179 361.06936416184965 181.93699421965317 349.82658959537565 181.93699421965317 327.34104046242766" style="fill:grey" fill="transparent" stroke-width="0"/>
<polygon points="250.62427745664738 316.09826589595366 270.1867052023121 327.34104046242766 270.1867052023121 349.82658959537565 250.62427745664738 361.06936416184965 231.06184971098264 349.82658959537565 231.06184971098264 327.34104046242766" style="fill:grey" fill="transparent" stroke-width="0"/>
<polygon points="299.7491329479769 316.09826589595366 319.31156069364164 327.34104046242766 319.31156069364164 349.82658959537565 299.7491329479769 361.06936416184965 280.1867052023121 349.82658959537565 280.1867052023121 327.34104046242766" style="fill:grey" fill="transparent" stroke-width="0"/>
<polygon points="348.87398843930634 316.09826589595366 368.4364161849711 327.34104046242766 368.4364161849711 349.82658959537565 348.87398843930634 361.06936416184965 329.3115606936416 349.82658959537565 329.3115606936416 327.34104046242766" style="fill:grey" fill="transparent" stroke-width="0"/>
<polygon points="397.9988439306358 316.09826589595366 417.5612716763006 327.34104046242766 417.5612716763006 349.82658959537565 397.9988439306358 361.06936416184965 378.43641618497105 349.82658959537565 378.43641618497105 327.34104046242766" style="fill:grey" fill="transparent" stroke-width="0"/>
<polygon points="29.56242774566474 359.8265895953756 49.12485549132948 371.0693641618496 49.12485549132948 393.5549132947976 29.56242774566474 404.7976878612716 10.0 393.5549132947976 10.0 371.0693641618496" style="fill:grey" fill="transparent" stroke-width="0"/>
<polygon points="78.68728323699422 359.8265895953756 98.24971098265895 371.0693641618496 98.24971098265895 393.5549132947976 78.68728323699422 404.7976878612716 59.124855491329484 393.5549132947976 59.124855491329484 371.0693641618496" style="fill:grey" fill="transparent" stroke-width="0"/>
<polygon points="127.8121387283237 359.8265895953756 147.37456647398844 371.0693641618496 147.37456647398844 393.5549132947976 127.8121387283237 404.7976878612716 108.24971098265897 393.5549132947976 108.24971098265897 371.0693641618496" style="fill:grey" fill="transparent" stroke-width="0"/>
<polygon points="176.93699421965317 359.8265895953756 196.4994219653179 371.0693641618496 196.4994219653179 393.5549132947976 176.93699421965317 404.7976878612716 157.37456647398844 393.5549132947976 157.37456647398844 371.0693641618496" style="fill:grey" fill="transparent" stroke-width="0"/>
<polygon points="226.06184971098264 359.8265895953756 245.62427745664738 371.0693641618496 245.62427745664738 393.5549132947976 226.06184971098264 404.7976878612716 206.4994219653179 393.5549132947976 206.4994219653179 371.0693641618496" style="fill:grey" fill="transparent" stroke-width="0"/>
<polygon points="275.1867052023121 359.8265895953756 294.7491329479769 371.0693641618496 294.7491329479769 393.5549132947976 275.1867052023121 404.7976878612716 255.62427745664738 393.5549132947976 255.62427745664738 371.0693641618496" style="fill:grey" fill="transparent" stroke-width="0"/>
<polygon points="324.3115606936416 359.8265895953756 343.87398843930634 371.0693641618496 343.87398843930634 393.5549132947976 324.3115606936416 404.7976878612716 304.7491329479768 393.5549132947976 304.7491329479768 371.0693641618496" style="fill:grey" fill="transparent" stroke-width="0"/>
<polygon points="373.43641618497105 359.8265895953756 392.9988439306358 371.0693641618496 392.9988439306358 393.5549132947976 373.43641618497105 404.7976878612716 353.8739884393063 393.5549132947976 353.8739884393063 371.0693641618496" style="fill:grey" fill="transparent" stroke-width="0"/>
</svg>
