<?xml version="1.0" standalone="no"?>
<!DOCTYPE svg PUBLIC "-//W3C//DTD SVG 1.1//EN"
  "http://www.w3.org/Graphics/SVG/1.1/DTD/svg11.dtd">
<svg width="400" height="400" version="1.1"
  xmlns="http://www.w3.org/2000/svg">
<polygon points="19.4,2 36.8,12 36.8,32 19.4,42 2.0,32 2.0,12" style="stroke:grey;fill:grey;"/><polygon points="56.199999999999996,2 73.6,12 73.6,32 56.199999999999996,42 38.8,32 38.8,12" style="stroke:grey;fill:grey;"/><polygon points="93.0,2 110.4,12 110.4,32 93.0,42 75.6,32 75.6,12" style="stroke:grey;fill:grey;"/><polygon points="129.8,2 147.20000000000002,12 147.20000000000002,32 129.8,42 112.4,32 112.4,12" style="stroke:grey;fill:grey;"/><polygon points="166.60000000000002,2 184.00000000000003,12 184.00000000000003,32 166.60000000000002,42 149.20000000000002,32 149.20000000000002,12" style="stroke:grey;fill:grey;"/><polygon points="203.40000000000003,2 220.80000000000004,12 220.80000000000004,32 203.40000000000003,42 186.00000000000003,32 186.00000000000003,12" style="stroke:grey;fill:grey;"/><polygon points="240.20000000000005,2 257.6,12 257.6,32 240.20000000000005,42 222.80000000000004,32 222.80000000000004,12" style="stroke:grey;fill:grey;"/><polygon points="277.00000000000006,2 294.40000000000003,12 294.40000000000003,32 277.00000000000006,42 259.6000000000001,32 259.6000000000001,12" style="stroke:grey;fill:grey;"/><polygon points="313.80000000000007,2 331.20000000000005,12 331.20000000000005,32 313.80000000000007,42 296.4000000000001,32 296.4000000000001,12" style="stroke:grey;fill:grey;"/><polygon points="350.6000000000001,2 368.00000000000006,12 368.00000000000006,32 350.6000000000001,42 333.2000000000001,32 333.2000000000001,12" style="stroke:grey;fill:grey;"/><polygon points="387.4000000000001,2 404.80000000000007,12 404.80000000000007,32 387.4000000000001,42 370.0000000000001,32 370.0000000000001,12" style="stroke:grey;fill:grey;"/><polygon points="37.8,33.739999999999995 55.199999999999996,43.739999999999995 55.199999999999996,63.739999999999995 37.8,73.74 20.4,63.739999999999995 20.4,43.739999999999995" style="stroke:grey;fill:grey;"/><polygon points="74.6,33.739999999999995 92.0,43.739999999999995 92.0,63.739999999999995 74.6,73.74 57.199999999999996,63.739999999999995 57.199999999999996,43.739999999999995" style="stroke:grey;fill:grey;"/><polygon points="111.39999999999999,33.739999999999995 128.79999999999998,43.739999999999995 128.79999999999998,63.739999999999995 111.39999999999999,73.74 94.0,63.739999999999995 94.0,43.739999999999995" style="stroke:grey;fill:grey;"/><polygon points="148.2,33.739999999999995 165.6,43.739999999999995 165.6,63.739999999999995 148.2,73.74 130.79999999999998,63.739999999999995 130.79999999999998,43.739999999999995" style="stroke:grey;fill:grey;"/><polygon points="185.0,33.739999999999995 202.4,43.739999999999995 202.4,63.739999999999995 185.0,73.74 167.6,63.739999999999995 167.6,43.739999999999995" style="stroke:grey;fill:grey;"/><polygon points="221.8,33.739999999999995 239.20000000000002,43.739999999999995 239.20000000000002,63.739999999999995 221.8,73.74 204.4,63.739999999999995 204.4,43.739999999999995" style="stroke:grey;fill:grey;"/><polygon points="258.6,33.739999999999995 276.0,43.739999999999995 276.0,63.739999999999995 258.6,73.74 241.20000000000002,63.739999999999995 241.20000000000002,43.739999999999995" style="stroke:grey;fill:grey;"/><polygon points="295.40000000000003,33.739999999999995 312.8,43.739999999999995 312.8,63.739999999999995 295.40000000000003,73.74 278.00000000000006,63.739999999999995 278.00000000000006,43.739999999999995" style="stroke:grey;fill:grey;"/><polygon points="332.20000000000005,33.739999999999995 349.6,43.739999999999995 349.6,63.739999999999995 332.20000000000005,73.74 314.80000000000007,63.739999999999995 314.80000000000007,43.739999999999995" style="stroke:grey;fill:grey;"/><polygon points="369.00000000000006,33.739999999999995 386.40000000000003,43.739999999999995 386.40000000000003,63.739999999999995 369.00000000000006,73.74 351.6000000000001,63.739999999999995 351.6000000000001,43.739999999999995" style="stroke:grey;fill:grey;"/><polygon points="19.4,65.47999999999999 36.8,75.47999999999999 36.8,95.47999999999999 19.4,105.47999999999999 2.0,95.47999999999999 2.0,75.47999999999999" style="stroke:grey;fill:grey;"/><polygon points="56.199999999999996,65.47999999999999 73.6,75.47999999999999 73.6,95.47999999999999 56.199999999999996,105.47999999999999 38.8,95.47999999999999 38.8,75.47999999999999" style="stroke:grey;fill:grey;"/><polygon points="93.0,65.47999999999999 110.4,75.47999999999999 110.4,95.47999999999999 93.0,105.47999999999999 75.6,95.47999999999999 75.6,75.47999999999999" style="stroke:grey;fill:grey;"/><polygon points="129.8,65.47999999999999 147.20000000000002,75.47999999999999 147.20000000000002,95.47999999999999 129.8,105.47999999999999 112.4,95.47999999999999 112.4,75.47999999999999" style="stroke:grey;fill:grey;"/><polygon points="166.60000000000002,65.47999999999999 184.00000000000003,75.47999999999999 184.00000000000003,95.47999999999999 166.60000000000002,105.47999999999999 149.20000000000002,95.47999999999999 149.20000000000002,75.47999999999999" style="stroke:grey;fill:grey;"/><polygon points="203.40000000000003,65.47999999999999 220.80000000000004,75.47999999999999 220.80000000000004,95.47999999999999 203.40000000000003,105.47999999999999 186.00000000000003,95.47999999999999 186.00000000000003,75.47999999999999" style="stroke:grey;fill:grey;"/><polygon points="240.20000000000005,65.47999999999999 257.6,75.47999999999999 257.6,95.47999999999999 240.20000000000005,105.47999999999999 222.80000000000004,95.47999999999999 222.80000000000004,75.47999999999999" style="stroke:grey;fill:grey;"/><polygon points="277.00000000000006,65.47999999999999 294.40000000000003,75.47999999999999 294.40000000000003,95.47999999999999 277.00000000000006,105.47999999999999 259.6000000000001,95.47999999999999 259.6000000000001,75.47999999999999" style="stroke:grey;fill:grey;"/><polygon points="313.80000000000007,65.47999999999999 331.20000000000005,75.47999999999999 331.20000000000005,95.47999999999999 313.80000000000007,105.47999999999999 296.4000000000001,95.47999999999999 296.4000000000001,75.47999999999999" style="stroke:grey;fill:grey;"/><polygon points="350.6000000000001,65.47999999999999 368.00000000000006,75.47999999999999 368.00000000000006,95.47999999999999 350.6000000000001,105.47999999999999 333.2000000000001,95.47999999999999 333.2000000000001,75.47999999999999" style="stroke:grey;fill:grey;"/><polygon points="387.4000000000001,65.47999999999999 404.80000000000007,75.47999999999999 404.80000000000007,95.47999999999999 387.4000000000001,105.47999999999999 370.0000000000001,95.47999999999999 370.0000000000001,75.47999999999999" style="stroke:grey;fill:grey;"/><polygon points="37.8,97.21999999999998 55.199999999999996,107.21999999999998 55.199999999999996,127.21999999999998 37.8,137.21999999999997 20.4,127.21999999999998 20.4,107.21999999999998" style="stroke:grey;fill:grey;"/><polygon points="74.6,97.21999999999998 92.0,107.21999999999998 92.0,127.21999999999998 74.6,137.21999999999997 57.199999999999996,127.21999999999998 57.199999999999996,107.21999999999998" style="stroke:grey;fill:grey;"/><polygon points="111.39999999999999,97.21999999999998 128.79999999999998,107.21999999999998 128.79999999999998,127.21999999999998 111.39999999999999,137.21999999999997 94.0,127.21999999999998 94.0,107.21999999999998" style="stroke:grey;fill:grey;"/><polygon points="148.2,97.21999999999998 165.6,107.21999999999998 165.6,127.21999999999998 148.2,137.21999999999997 130.79999999999998,127.21999999999998 130.79999999999998,107.21999999999998" style="stroke:grey;fill:grey;"/><polygon points="185.0,97.21999999999998 202.4,107.21999999999998 202.4,127.21999999999998 185.0,137.21999999999997 167.6,127.21999999999998 167.6,107.21999999999998" style="stroke:grey;fill:grey;"/><polygon points="221.8,97.21999999999998 239.20000000000002,107.21999999999998 239.20000000000002,127.21999999999998 221.8,137.21999999999997 204.4,127.21999999999998 204.4,107.21999999999998" style="stroke:grey;fill:grey;"/><polygon points="258.6,97.21999999999998 276.0,107.21999999999998 276.0,127.21999999999998 258.6,137.21999999999997 241.20000000000002,127.21999999999998 241.20000000000002,107.21999999999998" style="stroke:grey;fill:grey;"/><polygon points="295.40000000000003,97.21999999999998 312.8,107.21999999999998 312.8,127.21999999999998 295.40000000000003,137.21999999999997 278.00000000000006,127.21999999999998 278.00000000000006,107.21999999999998" style="stroke:grey;fill:grey;"/><polygon points="332.20000000000005,97.21999999999998 349.6,107.21999999999998 349.6,127.21999999999998 332.20000000000005,137.21999999999997 314.80000000000007,127.21999999999998 314.80000000000007,107.21999999999998" style="stroke:grey;fill:grey;"/><polygon points="369.00000000000006,97.21999999999998 386.40000000000003,107.21999999999998 386.40000000000003,127.21999999999998 369.00000000000006,137.21999999999997 351.6000000000001,127.21999999999998 351.6000000000001,107.21999999999998" style="stroke:grey;fill:grey;"/><polygon points="19.4,128.95999999999998 36.8,138.95999999999998 36.8,158.95999999999998 19.4,168.95999999999998 2.0,158.95999999999998 2.0,138.95999999999998" style="stroke:grey;fill:grey;"/><polygon points="56.199999999999996,128.95999999999998 73.6,138.95999999999998 73.6,158.95999999999998 56.199999999999996,168.95999999999998 38.8,158.95999999999998 38.8,138.95999999999998" style="stroke:grey;fill:grey;"/><polygon points="93.0,128.95999999999998 110.4,138.95999999999998 110.4,158.95999999999998 93.0,168.95999999999998 75.6,158.95999999999998 75.6,138.95999999999998" style="stroke:grey;fill:grey;"/><polygon points="129.8,128.95999999999998 147.20000000000002,138.95999999999998 147.20000000000002,158.95999999999998 129.8,168.95999999999998 112.4,158.95999999999998 112.4,138.95999999999998" style="stroke:grey;fill:grey;"/><polygon points="166.60000000000002,128.95999999999998 184.00000000000003,138.95999999999998 184.00000000000003,158.95999999999998 166.60000000000002,168.95999999999998 149.20000000000002,158.95999999999998 149.20000000000002,138.95999999999998" style="stroke:grey;fill:grey;"/><polygon points="203.40000000000003,128.95999999999998 220.80000000000004,138.95999999999998 220.80000000000004,158.95999999999998 203.40000000000003,168.95999999999998 186.00000000000003,158.95999999999998 186.00000000000003,138.95999999999998" style="stroke:grey;fill:grey;"/><polygon points="240.20000000000005,128.95999999999998 257.6,138.95999999999998 257.6,158.95999999999998 240.20000000000005,168.95999999999998 222.80000000000004,158.95999999999998 222.80000000000004,138.95999999999998" style="stroke:grey;fill:grey;"/><polygon points="277.00000000000006,128.95999999999998 294.40000000000003,138.95999999999998 294.40000000000003,158.95999999999998 277.00000000000006,168.95999999999998 259.6000000000001,158.95999999999998 259.6000000000001,138.95999999999998" style="stroke:grey;fill:grey;"/><polygon points="313.80000000000007,128.95999999999998 331.20000000000005,138.95999999999998 331.20000000000005,158.95999999999998 313.80000000000007,168.95999999999998 296.4000000000001,158.95999999999998 296.4000000000001,138.95999999999998" style="stroke:grey;fill:grey;"/><polygon points="350.6000000000001,128.95999999999998 368.00000000000006,138.95999999999998 368.00000000000006,158.95999999999998 350.6000000000001,168.95999999999998 333.2000000000001,158.95999999999998 333.2000000000001,138.95999999999998" style="stroke:grey;fill:grey;"/><polygon points="387.4000000000001,128.95999999999998 404.80000000000007,138.95999999999998 404.80000000000007,158.95999999999998 387.4000000000001,168.95999999999998 370.0000000000001,158.95999999999998 370.0000000000001,138.95999999999998" style="stroke:grey;fill:grey;"/><polygon points="37.8,160.7 55.199999999999996,170.7 55.199999999999996,190.7 37.8,200.7 20.4,190.7 20.4,170.7" style="stroke:grey;fill:grey;"/><polygon points="74.6,160.7 92.0,170.7 92.0,190.7 74.6,200.7 57.199999999999996,190.7 57.199999999999996,170.7" style="stroke:grey;fill:grey;"/><polygon points="111.39999999999999,160.7 128.79999999999998,170.7 128.79999999999998,190.7 111.39999999999999,200.7 94.0,190.7 94.0,170.7" style="stroke:grey;fill:grey;"/><polygon points="148.2,160.7 165.6,170.7 165.6,190.7 148.2,200.7 130.79999999999998,190.7 130.79999999999998,170.7" style="stroke:grey;fill:grey;"/><polygon points="185.0,160.7 202.4,170.7 202.4,190.7 185.0,200.7 167.6,190.7 167.6,170.7" style="stroke:grey;fill:grey;"/><polygon points="221.8,160.7 239.20000000000002,170.7 239.20000000000002,190.7 221.8,200.7 204.4,190.7 204.4,170.7" style="stroke:grey;fill:grey;"/><polygon points="258.6,160.7 276.0,170.7 276.0,190.7 258.6,200.7 241.20000000000002,190.7 241.20000000000002,170.7" style="stroke:grey;fill:grey;"/><polygon points="295.40000000000003,160.7 312.8,170.7 312.8,190.7 295.40000000000003,200.7 278.00000000000006,190.7 278.00000000000006,170.7" style="stroke:grey;fill:grey;"/><polygon points="332.20000000000005,160.7 349.6,170.7 349.6,190.7 332.20000000000005,200.7 314.80000000000007,190.7 314.80000000000007,170.7" style="stroke:grey;fill:grey;"/><polygon points="369.00000000000006,160.7 386.40000000000003,170.7 386.40000000000003,190.7 369.00000000000006,200.7 351.6000000000001,190.7 351.6000000000001,170.7" style="stroke:grey;fill:grey;"/><polygon points="19.4,192.44 36.8,202.44 36.8,222.44 19.4,232.44 2.0,222.44 2.0,202.44" style="stroke:grey;fill:grey;"/><polygon points="56.199999999999996,192.44 73.6,202.44 73.6,222.44 56.199999999999996,232.44 38.8,222.44 38.8,202.44" style="stroke:grey;fill:grey;"/><polygon points="93.0,192.44 110.4,202.44 110.4,222.44 93.0,232.44 75.6,222.44 75.6,202.44" style="stroke:grey;fill:grey;"/><polygon points="129.8,192.44 147.20000000000002,202.44 147.20000000000002,222.44 129.8,232.44 112.4,222.44 112.4,202.44" style="stroke:grey;fill:grey;"/><polygon points="166.60000000000002,192.44 184.00000000000003,202.44 184.00000000000003,222.44 166.60000000000002,232.44 149.20000000000002,222.44 149.20000000000002,202.44" style="stroke:grey;fill:grey;"/><polygon points="203.40000000000003,192.44 220.80000000000004,202.44 220.80000000000004,222.44 203.40000000000003,232.44 186.00000000000003,222.44 186.00000000000003,202.44" style="stroke:grey;fill:grey;"/><polygon points="240.20000000000005,192.44 257.6,202.44 257.6,222.44 240.20000000000005,232.44 222.80000000000004,222.44 222.80000000000004,202.44" style="stroke:grey;fill:grey;"/><polygon points="277.00000000000006,192.44 294.40000000000003,202.44 294.40000000000003,222.44 277.00000000000006,232.44 259.6000000000001,222.44 259.6000000000001,202.44" style="stroke:grey;fill:grey;"/><polygon points="313.80000000000007,192.44 331.20000000000005,202.44 331.20000000000005,222.44 313.80000000000007,232.44 296.4000000000001,222.44 296.4000000000001,202.44" style="stroke:grey;fill:grey;"/><polygon points="350.6000000000001,192.44 368.00000000000006,202.44 368.00000000000006,222.44 350.6000000000001,232.44 333.2000000000001,222.44 333.2000000000001,202.44" style="stroke:grey;fill:grey;"/><polygon points="387.4000000000001,192.44 404.80000000000007,202.44 404.80000000000007,222.44 387.4000000000001,232.44 370.0000000000001,222.44 370.0000000000001,202.44" style="stroke:grey;fill:grey;"/><polygon points="37.8,224.18 55.199999999999996,234.18 55.199999999999996,254.18 37.8,264.18 20.4,254.18 20.4,234.18" style="stroke:grey;fill:grey;"/><polygon points="74.6,224.18 92.0,234.18 92.0,254.18 74.6,264.18 57.199999999999996,254.18 57.199999999999996,234.18" style="stroke:grey;fill:grey;"/><polygon points="111.39999999999999,224.18 128.79999999999998,234.18 128.79999999999998,254.18 111.39999999999999,264.18 94.0,254.18 94.0,234.18" style="stroke:grey;fill:grey;"/><polygon points="148.2,224.18 165.6,234.18 165.6,254.18 148.2,264.18 130.79999999999998,254.18 130.79999999999998,234.18" style="stroke:grey;fill:grey;"/><polygon points="185.0,224.18 202.4,234.18 202.4,254.18 185.0,264.18 167.6,254.18 167.6,234.18" style="stroke:grey;fill:grey;"/><polygon points="221.8,224.18 239.20000000000002,234.18 239.20000000000002,254.18 221.8,264.18 204.4,254.18 204.4,234.18" style="stroke:grey;fill:grey;"/><polygon points="258.6,224.18 276.0,234.18 276.0,254.18 258.6,264.18 241.20000000000002,254.18 241.20000000000002,234.18" style="stroke:grey;fill:grey;"/><polygon points="295.40000000000003,224.18 312.8,234.18 312.8,254.18 295.40000000000003,264.18 278.00000000000006,254.18 278.00000000000006,234.18" style="stroke:grey;fill:grey;"/><polygon points="332.20000000000005,224.18 349.6,234.18 349.6,254.18 332.20000000000005,264.18 314.80000000000007,254.18 314.80000000000007,234.18" style="stroke:grey;fill:grey;"/><polygon points="369.00000000000006,224.18 386.40000000000003,234.18 386.40000000000003,254.18 369.00000000000006,264.18 351.6000000000001,254.18 351.6000000000001,234.18" style="stroke:grey;fill:grey;"/><polygon points="19.4,255.92000000000002 36.8,265.92 36.8,285.92 19.4,295.92 2.0,285.92 2.0,265.92" style="stroke:grey;fill:grey;"/><polygon points="56.199999999999996,255.92000000000002 73.6,265.92 73.6,285.92 56.199999999999996,295.92 38.8,285.92 38.8,265.92" style="stroke:grey;fill:grey;"/><polygon points="93.0,255.92000000000002 110.4,265.92 110.4,285.92 93.0,295.92 75.6,285.92 75.6,265.92" style="stroke:grey;fill:grey;"/><polygon points="129.8,255.92000000000002 147.20000000000002,265.92 147.20000000000002,285.92 129.8,295.92 112.4,285.92 112.4,265.92" style="stroke:grey;fill:grey;"/><polygon points="166.60000000000002,255.92000000000002 184.00000000000003,265.92 184.00000000000003,285.92 166.60000000000002,295.92 149.20000000000002,285.92 149.20000000000002,265.92" style="stroke:grey;fill:grey;"/><polygon points="203.40000000000003,255.92000000000002 220.80000000000004,265.92 220.80000000000004,285.92 203.40000000000003,295.92 186.00000000000003,285.92 186.00000000000003,265.92" style="stroke:grey;fill:grey;"/><polygon points="240.20000000000005,255.92000000000002 257.6,265.92 257.6,285.92 240.20000000000005,295.92 222.80000000000004,285.92 222.80000000000004,265.92" style="stroke:grey;fill:grey;"/><polygon points="277.00000000000006,255.92000000000002 294.40000000000003,265.92 294.40000000000003,285.92 277.00000000000006,295.92 259.6000000000001,285.92 259.6000000000001,265.92" style="stroke:grey;fill:grey;"/><polygon points="313.80000000000007,255.92000000000002 331.20000000000005,265.92 331.20000000000005,285.92 313.80000000000007,295.92 296.4000000000001,285.92 296.4000000000001,265.92" style="stroke:grey;fill:grey;"/><polygon points="350.6000000000001,255.92000000000002 368.00000000000006,265.92 368.00000000000006,285.92 350.6000000000001,295.92 333.2000000000001,285.92 333.2000000000001,265.92" style="stroke:grey;fill:grey;"/><polygon points="387.4000000000001,255.92000000000002 404.80000000000007,265.92 404.80000000000007,285.92 387.4000000000001,295.92 370.0000000000001,285.92 370.0000000000001,265.92" style="stroke:grey;fill:grey;"/><polygon points="37.8,287.66 55.199999999999996,297.66 55.199999999999996,317.66 37.8,327.66 20.4,317.66 20.4,297.66" style="stroke:grey;fill:grey;"/><polygon points="74.6,287.66 92.0,297.66 92.0,317.66 74.6,327.66 57.199999999999996,317.66 57.199999999999996,297.66" style="stroke:grey;fill:grey;"/><polygon points="111.39999999999999,287.66 128.79999999999998,297.66 128.79999999999998,317.66 111.39999999999999,327.66 94.0,317.66 94.0,297.66" style="stroke:grey;fill:grey;"/><polygon points="148.2,287.66 165.6,297.66 165.6,317.66 148.2,327.66 130.79999999999998,317.66 130.79999999999998,297.66" style="stroke:grey;fill:grey;"/><polygon points="185.0,287.66 202.4,297.66 202.4,317.66 185.0,327.66 167.6,317.66 167.6,297.66" style="stroke:grey;fill:grey;"/><polygon points="221.8,287.66 239.20000000000002,297.66 239.20000000000002,317.66 221.8,327.66 204.4,317.66 204.4,297.66" style="stroke:grey;fill:grey;"/><polygon points="258.6,287.66 276.0,297.66 276.0,317.66 258.6,327.66 241.20000000000002,317.66 241.20000000000002,297.66" style="stroke:grey;fill:grey;"/><polygon points="295.40000000000003,287.66 312.8,297.66 312.8,317.66 295.40000000000003,327.66 278.00000000000006,317.66 278.00000000000006,297.66" style="stroke:grey;fill:grey;"/><polygon points="332.20000000000005,287.66 349.6,297.66 349.6,317.66 332.20000000000005,327.66 314.80000000000007,317.66 314.80000000000007,297.66" style="stroke:grey;fill:grey;"/><polygon points="369.00000000000006,287.66 386.40000000000003,297.66 386.40000000000003,317.66 369.00000000000006,327.66 351.6000000000001,317.66 351.6000000000001,297.66" style="stroke:grey;fill:grey;"/><polygon points="19.4,319.40000000000003 36.8,329.40000000000003 36.8,349.40000000000003 19.4,359.40000000000003 2.0,349.40000000000003 2.0,329.40000000000003" style="stroke:grey;fill:grey;"/><polygon points="56.199999999999996,319.40000000000003 73.6,329.40000000000003 73.6,349.40000000000003 56.199999999999996,359.40000000000003 38.8,349.40000000000003 38.8,329.40000000000003" style="stroke:grey;fill:grey;"/><polygon points="93.0,319.40000000000003 110.4,329.40000000000003 110.4,349.40000000000003 93.0,359.40000000000003 75.6,349.40000000000003 75.6,329.40000000000003" style="stroke:grey;fill:grey;"/><polygon points="129.8,319.40000000000003 147.20000000000002,329.40000000000003 147.20000000000002,349.40000000000003 129.8,359.40000000000003 112.4,349.40000000000003 112.4,329.40000000000003" style="stroke:grey;fill:grey;"/><polygon points="166.60000000000002,319.40000000000003 184.00000000000003,329.40000000000003 184.00000000000003,349.40000000000003 166.60000000000002,359.40000000000003 149.20000000000002,349.40000000000003 149.20000000000002,329.40000000000003" style="stroke:grey;fill:grey;"/><polygon points="203.40000000000003,319.40000000000003 220.80000000000004,329.40000000000003 220.80000000000004,349.40000000000003 203.40000000000003,359.40000000000003 186.00000000000003,349.40000000000003 186.00000000000003,329.40000000000003" style="stroke:grey;fill:grey;"/><polygon points="240.20000000000005,319.40000000000003 257.6,329.40000000000003 257.6,349.40000000000003 240.20000000000005,359.40000000000003 222.80000000000004,349.40000000000003 222.80000000000004,329.40000000000003" style="stroke:grey;fill:grey;"/><polygon points="277.00000000000006,319.40000000000003 294.40000000000003,329.40000000000003 294.40000000000003,349.40000000000003 277.00000000000006,359.40000000000003 259.6000000000001,349.40000000000003 259.6000000000001,329.40000000000003" style="stroke:grey;fill:grey;"/><polygon points="313.80000000000007,319.40000000000003 331.20000000000005,329.40000000000003 331.20000000000005,349.40000000000003 313.80000000000007,359.40000000000003 296.4000000000001,349.40000000000003 296.4000000000001,329.40000000000003" style="stroke:grey;fill:grey;"/><polygon points="350.6000000000001,319.40000000000003 368.00000000000006,329.40000000000003 368.00000000000006,349.40000000000003 350.6000000000001,359.40000000000003 333.2000000000001,349.40000000000003 333.2000000000001,329.40000000000003" style="stroke:grey;fill:grey;"/><polygon points="387.4000000000001,319.40000000000003 404.80000000000007,329.40000000000003 404.80000000000007,349.40000000000003 387.4000000000001,359.40000000000003 370.0000000000001,349.40000000000003 370.0000000000001,329.40000000000003" style="stroke:grey;fill:grey;"/><polygon points="37.8,351.14000000000004 55.199999999999996,361.14000000000004 55.199999999999996,381.14000000000004 37.8,391.14000000000004 20.4,381.14000000000004 20.4,361.14000000000004" style="stroke:grey;fill:grey;"/><polygon points="74.6,351.14000000000004 92.0,361.14000000000004 92.0,381.14000000000004 74.6,391.14000000000004 57.199999999999996,381.14000000000004 57.199999999999996,361.14000000000004" style="stroke:grey;fill:grey;"/><polygon points="111.39999999999999,351.14000000000004 128.79999999999998,361.14000000000004 128.79999999999998,381.14000000000004 111.39999999999999,391.14000000000004 94.0,381.14000000000004 94.0,361.14000000000004" style="stroke:grey;fill:grey;"/><polygon points="148.2,351.14000000000004 165.6,361.14000000000004 165.6,381.14000000000004 148.2,391.14000000000004 130.79999999999998,381.14000000000004 130.79999999999998,361.14000000000004" style="stroke:grey;fill:grey;"/><polygon points="185.0,351.14000000000004 202.4,361.14000000000004 202.4,381.14000000000004 185.0,391.14000000000004 167.6,381.14000000000004 167.6,361.14000000000004" style="stroke:grey;fill:grey;"/><polygon points="221.8,351.14000000000004 239.20000000000002,361.14000000000004 239.20000000000002,381.14000000000004 221.8,391.14000000000004 204.4,381.14000000000004 204.4,361.14000000000004" style="stroke:grey;fill:grey;"/><polygon points="258.6,351.14000000000004 276.0,361.14000000000004 276.0,381.14000000000004 258.6,391.14000000000004 241.20000000000002,381.14000000000004 241.20000000000002,361.14000000000004" style="stroke:grey;fill:grey;"/><polygon points="295.40000000000003,351.14000000000004 312.8,361.14000000000004 312.8,381.14000000000004 295.40000000000003,391.14000000000004 278.00000000000006,381.14000000000004 278.00000000000006,361.14000000000004" style="stroke:grey;fill:grey;"/><polygon points="332.20000000000005,351.14000000000004 349.6,361.14000000000004 349.6,381.14000000000004 332.20000000000005,391.14000000000004 314.80000000000007,381.14000000000004 314.80000000000007,361.14000000000004" style="stroke:grey;fill:grey;"/><polygon points="369.00000000000006,351.14000000000004 386.40000000000003,361.14000000000004 386.40000000000003,381.14000000000004 369.00000000000006,391.14000000000004 351.6000000000001,381.14000000000004 351.6000000000001,361.14000000000004" style="stroke:grey;fill:grey;"/></svg>
