<?xml version="1.0" standalone="no"?>
<!DOCTYPE svg PUBLIC "-//W3C//DTD SVG 1.1//EN"
  "http://www.w3.org/Graphics/SVG/1.1/DTD/svg11.dtd">
<svg width="800" height="394.2873563218391" version="1.1"
  xmlns="http://www.w3.org/2000/svg">
<polygon points="20.95,2.0 39.9,12.89080459770115 39.9,34.67241379310345 20.95,45.5632183908046 2.0,34.67241379310345 2.0,12.89080459770115" style="stroke:grey;fill:grey;"/><polygon points="60.849999999999994,2.0 79.8,12.89080459770115 79.8,34.67241379310345 60.849999999999994,45.5632183908046 41.89999999999999,34.67241379310345 41.89999999999999,12.89080459770115" style="stroke:grey;fill:grey;"/><polygon points="100.75,2.0 119.7,12.89080459770115 119.7,34.67241379310345 100.75,45.5632183908046 81.8,34.67241379310345 81.8,12.89080459770115" style="stroke:grey;fill:grey;"/><polygon points="140.65,2.0 159.6,12.89080459770115 159.6,34.67241379310345 140.65,45.5632183908046 121.7,34.67241379310345 121.7,12.89080459770115" style="stroke:grey;fill:grey;"/><polygon points="180.55,2.0 199.5,12.89080459770115 199.5,34.67241379310345 180.55,45.5632183908046 161.60000000000002,34.67241379310345 161.60000000000002,12.89080459770115" style="stroke:grey;fill:grey;"/><polygon points="220.45000000000002,2.0 239.4,12.89080459770115 239.4,34.67241379310345 220.45000000000002,45.5632183908046 201.50000000000003,34.67241379310345 201.50000000000003,12.89080459770115" style="stroke:grey;fill:grey;"/><polygon points="260.35,2.0 279.3,12.89080459770115 279.3,34.67241379310345 260.35,45.5632183908046 241.40000000000003,34.67241379310345 241.40000000000003,12.89080459770115" style="stroke:grey;fill:grey;"/><polygon points="300.25,2.0 319.2,12.89080459770115 319.2,34.67241379310345 300.25,45.5632183908046 281.3,34.67241379310345 281.3,12.89080459770115" style="stroke:grey;fill:grey;"/><polygon points="340.15,2.0 359.09999999999997,12.89080459770115 359.09999999999997,34.67241379310345 340.15,45.5632183908046 321.2,34.67241379310345 321.2,12.89080459770115" style="stroke:grey;fill:grey;"/><polygon points="380.04999999999995,2.0 398.99999999999994,12.89080459770115 398.99999999999994,34.67241379310345 380.04999999999995,45.5632183908046 361.09999999999997,34.67241379310345 361.09999999999997,12.89080459770115" style="stroke:grey;fill:grey;"/><polygon points="419.94999999999993,2.0 438.8999999999999,12.89080459770115 438.8999999999999,34.67241379310345 419.94999999999993,45.5632183908046 400.99999999999994,34.67241379310345 400.99999999999994,12.89080459770115" style="stroke:grey;fill:grey;"/><polygon points="459.8499999999999,2.0 478.7999999999999,12.89080459770115 478.7999999999999,34.67241379310345 459.8499999999999,45.5632183908046 440.8999999999999,34.67241379310345 440.8999999999999,12.89080459770115" style="stroke:grey;fill:grey;"/><polygon points="499.7499999999999,2.0 518.6999999999999,12.89080459770115 518.6999999999999,34.67241379310345 499.7499999999999,45.5632183908046 480.7999999999999,34.67241379310345 480.7999999999999,12.89080459770115" style="stroke:grey;fill:grey;"/><polygon points="539.6499999999999,2.0 558.5999999999999,12.89080459770115 558.5999999999999,34.67241379310345 539.6499999999999,45.5632183908046 520.6999999999998,34.67241379310345 520.6999999999998,12.89080459770115" style="stroke:grey;fill:grey;"/><polygon points="579.5499999999998,2.0 598.4999999999999,12.89080459770115 598.4999999999999,34.67241379310345 579.5499999999998,45.5632183908046 560.5999999999998,34.67241379310345 560.5999999999998,12.89080459770115" style="stroke:grey;fill:grey;"/><polygon points="619.4499999999998,2.0 638.3999999999999,12.89080459770115 638.3999999999999,34.67241379310345 619.4499999999998,45.5632183908046 600.4999999999998,34.67241379310345 600.4999999999998,12.89080459770115" style="stroke:grey;fill:grey;"/><polygon points="659.3499999999998,2.0 678.2999999999998,12.89080459770115 678.2999999999998,34.67241379310345 659.3499999999998,45.5632183908046 640.3999999999997,34.67241379310345 640.3999999999997,12.89080459770115" style="stroke:grey;fill:grey;"/><polygon points="699.2499999999998,2.0 718.1999999999998,12.89080459770115 718.1999999999998,34.67241379310345 699.2499999999998,45.5632183908046 680.2999999999997,34.67241379310345 680.2999999999997,12.89080459770115" style="stroke:grey;fill:grey;"/><polygon points="739.1499999999997,2.0 758.0999999999998,12.89080459770115 758.0999999999998,34.67241379310345 739.1499999999997,45.5632183908046 720.1999999999997,34.67241379310345 720.1999999999997,12.89080459770115" style="stroke:grey;fill:grey;"/><polygon points="779.0499999999997,2.0 797.9999999999998,12.89080459770115 797.9999999999998,34.67241379310345 779.0499999999997,45.5632183908046 760.0999999999997,34.67241379310345 760.0999999999997,12.89080459770115" style="stroke:grey;fill:grey;"/><polygon points="40.9,36.412413793103454 59.849999999999994,47.3032183908046 59.849999999999994,69.0848275862069 40.9,79.97563218390805 21.95,69.0848275862069 21.95,47.3032183908046" style="stroke:grey;fill:grey;"/><polygon points="80.8,36.412413793103454 99.75,47.3032183908046 99.75,69.0848275862069 80.8,79.97563218390805 61.849999999999994,69.0848275862069 61.849999999999994,47.3032183908046" style="stroke:grey;fill:grey;"/><polygon points="120.69999999999999,36.412413793103454 139.64999999999998,47.3032183908046 139.64999999999998,69.0848275862069 120.69999999999999,79.97563218390805 101.74999999999999,69.0848275862069 101.74999999999999,47.3032183908046" style="stroke:grey;fill:grey;"/><polygon points="160.6,36.412413793103454 179.54999999999998,47.3032183908046 179.54999999999998,69.0848275862069 160.6,79.97563218390805 141.65,69.0848275862069 141.65,47.3032183908046" style="stroke:grey;fill:grey;"/><polygon points="200.5,36.412413793103454 219.45,47.3032183908046 219.45,69.0848275862069 200.5,79.97563218390805 181.55,69.0848275862069 181.55,47.3032183908046" style="stroke:grey;fill:grey;"/><polygon points="240.4,36.412413793103454 259.35,47.3032183908046 259.35,69.0848275862069 240.4,79.97563218390805 221.45000000000002,69.0848275862069 221.45000000000002,47.3032183908046" style="stroke:grey;fill:grey;"/><polygon points="280.3,36.412413793103454 299.25,47.3032183908046 299.25,69.0848275862069 280.3,79.97563218390805 261.35,69.0848275862069 261.35,47.3032183908046" style="stroke:grey;fill:grey;"/><polygon points="320.2,36.412413793103454 339.15,47.3032183908046 339.15,69.0848275862069 320.2,79.97563218390805 301.25,69.0848275862069 301.25,47.3032183908046" style="stroke:grey;fill:grey;"/><polygon points="360.09999999999997,36.412413793103454 379.04999999999995,47.3032183908046 379.04999999999995,69.0848275862069 360.09999999999997,79.97563218390805 341.15,69.0848275862069 341.15,47.3032183908046" style="stroke:grey;fill:grey;"/><polygon points="399.99999999999994,36.412413793103454 418.94999999999993,47.3032183908046 418.94999999999993,69.0848275862069 399.99999999999994,79.97563218390805 381.04999999999995,69.0848275862069 381.04999999999995,47.3032183908046" style="stroke:grey;fill:grey;"/><polygon points="439.8999999999999,36.412413793103454 458.8499999999999,47.3032183908046 458.8499999999999,69.0848275862069 439.8999999999999,79.97563218390805 420.94999999999993,69.0848275862069 420.94999999999993,47.3032183908046" style="stroke:grey;fill:grey;"/><polygon points="479.7999999999999,36.412413793103454 498.7499999999999,47.3032183908046 498.7499999999999,69.0848275862069 479.7999999999999,79.97563218390805 460.8499999999999,69.0848275862069 460.8499999999999,47.3032183908046" style="stroke:grey;fill:grey;"/><polygon points="519.6999999999999,36.412413793103454 538.65,47.3032183908046 538.65,69.0848275862069 519.6999999999999,79.97563218390805 500.74999999999994,69.0848275862069 500.74999999999994,47.3032183908046" style="stroke:grey;fill:grey;"/><polygon points="559.5999999999999,36.412413793103454 578.55,47.3032183908046 578.55,69.0848275862069 559.5999999999999,79.97563218390805 540.6499999999999,69.0848275862069 540.6499999999999,47.3032183908046" style="stroke:grey;fill:grey;"/><polygon points="599.4999999999999,36.412413793103454 618.4499999999999,47.3032183908046 618.4499999999999,69.0848275862069 599.4999999999999,79.97563218390805 580.5499999999998,69.0848275862069 580.5499999999998,47.3032183908046" style="stroke:grey;fill:grey;"/><polygon points="639.3999999999999,36.412413793103454 658.3499999999999,47.3032183908046 658.3499999999999,69.0848275862069 639.3999999999999,79.97563218390805 620.4499999999998,69.0848275862069 620.4499999999998,47.3032183908046" style="stroke:grey;fill:grey;"/><polygon points="679.2999999999998,36.412413793103454 698.2499999999999,47.3032183908046 698.2499999999999,69.0848275862069 679.2999999999998,79.97563218390805 660.3499999999998,69.0848275862069 660.3499999999998,47.3032183908046" style="stroke:grey;fill:grey;"/><polygon points="719.1999999999998,36.412413793103454 738.1499999999999,47.3032183908046 738.1499999999999,69.0848275862069 719.1999999999998,79.97563218390805 700.2499999999998,69.0848275862069 700.2499999999998,47.3032183908046" style="stroke:grey;fill:grey;"/><polygon points="759.0999999999998,36.412413793103454 778.0499999999998,47.3032183908046 778.0499999999998,69.0848275862069 759.0999999999998,79.97563218390805 740.1499999999997,69.0848275862069 740.1499999999997,47.3032183908046" style="stroke:grey;fill:grey;"/><polygon points="20.95,70.82482758620691 39.9,81.71563218390806 39.9,103.49724137931035 20.95,114.3880459770115 2.0,103.49724137931035 2.0,81.71563218390806" style="stroke:grey;fill:grey;"/><polygon points="60.849999999999994,70.82482758620691 79.8,81.71563218390806 79.8,103.49724137931035 60.849999999999994,114.3880459770115 41.89999999999999,103.49724137931035 41.89999999999999,81.71563218390806" style="stroke:grey;fill:grey;"/><polygon points="100.75,70.82482758620691 119.7,81.71563218390806 119.7,103.49724137931035 100.75,114.3880459770115 81.8,103.49724137931035 81.8,81.71563218390806" style="stroke:grey;fill:grey;"/><polygon points="140.65,70.82482758620691 159.6,81.71563218390806 159.6,103.49724137931035 140.65,114.3880459770115 121.7,103.49724137931035 121.7,81.71563218390806" style="stroke:grey;fill:grey;"/><polygon points="180.55,70.82482758620691 199.5,81.71563218390806 199.5,103.49724137931035 180.55,114.3880459770115 161.60000000000002,103.49724137931035 161.60000000000002,81.71563218390806" style="stroke:grey;fill:grey;"/><polygon points="220.45000000000002,70.82482758620691 239.4,81.71563218390806 239.4,103.49724137931035 220.45000000000002,114.3880459770115 201.50000000000003,103.49724137931035 201.50000000000003,81.71563218390806" style="stroke:grey;fill:grey;"/><polygon points="260.35,70.82482758620691 279.3,81.71563218390806 279.3,103.49724137931035 260.35,114.3880459770115 241.40000000000003,103.49724137931035 241.40000000000003,81.71563218390806" style="stroke:grey;fill:grey;"/><polygon points="300.25,70.82482758620691 319.2,81.71563218390806 319.2,103.49724137931035 300.25,114.3880459770115 281.3,103.49724137931035 281.3,81.71563218390806" style="stroke:grey;fill:grey;"/><polygon points="340.15,70.82482758620691 359.09999999999997,81.71563218390806 359.09999999999997,103.49724137931035 340.15,114.3880459770115 321.2,103.49724137931035 321.2,81.71563218390806" style="stroke:grey;fill:grey;"/><polygon points="380.04999999999995,70.82482758620691 398.99999999999994,81.71563218390806 398.99999999999994,103.49724137931035 380.04999999999995,114.3880459770115 361.09999999999997,103.49724137931035 361.09999999999997,81.71563218390806" style="stroke:grey;fill:grey;"/><polygon points="419.94999999999993,70.82482758620691 438.8999999999999,81.71563218390806 438.8999999999999,103.49724137931035 419.94999999999993,114.3880459770115 400.99999999999994,103.49724137931035 400.99999999999994,81.71563218390806" style="stroke:grey;fill:grey;"/><polygon points="459.8499999999999,70.82482758620691 478.7999999999999,81.71563218390806 478.7999999999999,103.49724137931035 459.8499999999999,114.3880459770115 440.8999999999999,103.49724137931035 440.8999999999999,81.71563218390806" style="stroke:grey;fill:grey;"/><polygon points="499.7499999999999,70.82482758620691 518.6999999999999,81.71563218390806 518.6999999999999,103.49724137931035 499.7499999999999,114.3880459770115 480.7999999999999,103.49724137931035 480.7999999999999,81.71563218390806" style="stroke:grey;fill:grey;"/><polygon points="539.6499999999999,70.82482758620691 558.5999999999999,81.71563218390806 558.5999999999999,103.49724137931035 539.6499999999999,114.3880459770115 520.6999999999998,103.49724137931035 520.6999999999998,81.71563218390806" style="stroke:grey;fill:grey;"/><polygon points="579.5499999999998,70.82482758620691 598.4999999999999,81.71563218390806 598.4999999999999,103.49724137931035 579.5499999999998,114.3880459770115 560.5999999999998,103.49724137931035 560.5999999999998,81.71563218390806" style="stroke:grey;fill:grey;"/><polygon points="619.4499999999998,70.82482758620691 638.3999999999999,81.71563218390806 638.3999999999999,103.49724137931035 619.4499999999998,114.3880459770115 600.4999999999998,103.49724137931035 600.4999999999998,81.71563218390806" style="stroke:grey;fill:grey;"/><polygon points="659.3499999999998,70.82482758620691 678.2999999999998,81.71563218390806 678.2999999999998,103.49724137931035 659.3499999999998,114.3880459770115 640.3999999999997,103.49724137931035 640.3999999999997,81.71563218390806" style="stroke:grey;fill:grey;"/><polygon points="699.2499999999998,70.82482758620691 718.1999999999998,81.71563218390806 718.1999999999998,103.49724137931035 699.2499999999998,114.3880459770115 680.2999999999997,103.49724137931035 680.2999999999997,81.71563218390806" style="stroke:grey;fill:grey;"/><polygon points="739.1499999999997,70.82482758620691 758.0999999999998,81.71563218390806 758.0999999999998,103.49724137931035 739.1499999999997,114.3880459770115 720.1999999999997,103.49724137931035 720.1999999999997,81.71563218390806" style="stroke:grey;fill:grey;"/><polygon points="779.0499999999997,70.82482758620691 797.9999999999998,81.71563218390806 797.9999999999998,103.49724137931035 779.0499999999997,114.3880459770115 760.0999999999997,103.49724137931035 760.0999999999997,81.71563218390806" style="stroke:grey;fill:grey;"/><polygon points="40.9,105.23724137931036 59.849999999999994,116.12804597701151 59.849999999999994,137.9096551724138 40.9,148.80045977011497 21.95,137.9096551724138 21.95,116.12804597701151" style="stroke:grey;fill:grey;"/><polygon points="80.8,105.23724137931036 99.75,116.12804597701151 99.75,137.9096551724138 80.8,148.80045977011497 61.849999999999994,137.9096551724138 61.849999999999994,116.12804597701151" style="stroke:grey;fill:grey;"/><polygon points="120.69999999999999,105.23724137931036 139.64999999999998,116.12804597701151 139.64999999999998,137.9096551724138 120.69999999999999,148.80045977011497 101.74999999999999,137.9096551724138 101.74999999999999,116.12804597701151" style="stroke:grey;fill:grey;"/><polygon points="160.6,105.23724137931036 179.54999999999998,116.12804597701151 179.54999999999998,137.9096551724138 160.6,148.80045977011497 141.65,137.9096551724138 141.65,116.12804597701151" style="stroke:grey;fill:grey;"/><polygon points="200.5,105.23724137931036 219.45,116.12804597701151 219.45,137.9096551724138 200.5,148.80045977011497 181.55,137.9096551724138 181.55,116.12804597701151" style="stroke:grey;fill:grey;"/><polygon points="240.4,105.23724137931036 259.35,116.12804597701151 259.35,137.9096551724138 240.4,148.80045977011497 221.45000000000002,137.9096551724138 221.45000000000002,116.12804597701151" style="stroke:grey;fill:grey;"/><polygon points="280.3,105.23724137931036 299.25,116.12804597701151 299.25,137.9096551724138 280.3,148.80045977011497 261.35,137.9096551724138 261.35,116.12804597701151" style="stroke:grey;fill:grey;"/><polygon points="320.2,105.23724137931036 339.15,116.12804597701151 339.15,137.9096551724138 320.2,148.80045977011497 301.25,137.9096551724138 301.25,116.12804597701151" style="stroke:grey;fill:grey;"/><polygon points="360.09999999999997,105.23724137931036 379.04999999999995,116.12804597701151 379.04999999999995,137.9096551724138 360.09999999999997,148.80045977011497 341.15,137.9096551724138 341.15,116.12804597701151" style="stroke:grey;fill:grey;"/><polygon points="399.99999999999994,105.23724137931036 418.94999999999993,116.12804597701151 418.94999999999993,137.9096551724138 399.99999999999994,148.80045977011497 381.04999999999995,137.9096551724138 381.04999999999995,116.12804597701151" style="stroke:grey;fill:grey;"/><polygon points="439.8999999999999,105.23724137931036 458.8499999999999,116.12804597701151 458.8499999999999,137.9096551724138 439.8999999999999,148.80045977011497 420.94999999999993,137.9096551724138 420.94999999999993,116.12804597701151" style="stroke:grey;fill:grey;"/><polygon points="479.7999999999999,105.23724137931036 498.7499999999999,116.12804597701151 498.7499999999999,137.9096551724138 479.7999999999999,148.80045977011497 460.8499999999999,137.9096551724138 460.8499999999999,116.12804597701151" style="stroke:grey;fill:grey;"/><polygon points="519.6999999999999,105.23724137931036 538.65,116.12804597701151 538.65,137.9096551724138 519.6999999999999,148.80045977011497 500.74999999999994,137.9096551724138 500.74999999999994,116.12804597701151" style="stroke:grey;fill:grey;"/><polygon points="559.5999999999999,105.23724137931036 578.55,116.12804597701151 578.55,137.9096551724138 559.5999999999999,148.80045977011497 540.6499999999999,137.9096551724138 540.6499999999999,116.12804597701151" style="stroke:grey;fill:grey;"/><polygon points="599.4999999999999,105.23724137931036 618.4499999999999,116.12804597701151 618.4499999999999,137.9096551724138 599.4999999999999,148.80045977011497 580.5499999999998,137.9096551724138 580.5499999999998,116.12804597701151" style="stroke:grey;fill:grey;"/><polygon points="639.3999999999999,105.23724137931036 658.3499999999999,116.12804597701151 658.3499999999999,137.9096551724138 639.3999999999999,148.80045977011497 620.4499999999998,137.9096551724138 620.4499999999998,116.12804597701151" style="stroke:grey;fill:grey;"/><polygon points="679.2999999999998,105.23724137931036 698.2499999999999,116.12804597701151 698.2499999999999,137.9096551724138 679.2999999999998,148.80045977011497 660.3499999999998,137.9096551724138 660.3499999999998,116.12804597701151" style="stroke:grey;fill:grey;"/><polygon points="719.1999999999998,105.23724137931036 738.1499999999999,116.12804597701151 738.1499999999999,137.9096551724138 719.1999999999998,148.80045977011497 700.2499999999998,137.9096551724138 700.2499999999998,116.12804597701151" style="stroke:grey;fill:grey;"/><polygon points="759.0999999999998,105.23724137931036 778.0499999999998,116.12804597701151 778.0499999999998,137.9096551724138 759.0999999999998,148.80045977011497 740.1499999999997,137.9096551724138 740.1499999999997,116.12804597701151" style="stroke:grey;fill:grey;"/><polygon points="20.95,139.64965517241382 39.9,150.54045977011495 39.9,172.32206896551727 20.95,183.2128735632184 2.0,172.32206896551727 2.0,150.54045977011495" style="stroke:grey;fill:grey;"/><polygon points="60.849999999999994,139.64965517241382 79.8,150.54045977011495 79.8,172.32206896551727 60.849999999999994,183.2128735632184 41.89999999999999,172.32206896551727 41.89999999999999,150.54045977011495" style="stroke:grey;fill:grey;"/><polygon points="100.75,139.64965517241382 119.7,150.54045977011495 119.7,172.32206896551727 100.75,183.2128735632184 81.8,172.32206896551727 81.8,150.54045977011495" style="stroke:grey;fill:grey;"/><polygon points="140.65,139.64965517241382 159.6,150.54045977011495 159.6,172.32206896551727 140.65,183.2128735632184 121.7,172.32206896551727 121.7,150.54045977011495" style="stroke:grey;fill:grey;"/><polygon points="180.55,139.64965517241382 199.5,150.54045977011495 199.5,172.32206896551727 180.55,183.2128735632184 161.60000000000002,172.32206896551727 161.60000000000002,150.54045977011495" style="stroke:grey;fill:grey;"/><polygon points="220.45000000000002,139.64965517241382 239.4,150.54045977011495 239.4,172.32206896551727 220.45000000000002,183.2128735632184 201.50000000000003,172.32206896551727 201.50000000000003,150.54045977011495" style="stroke:grey;fill:grey;"/><polygon points="260.35,139.64965517241382 279.3,150.54045977011495 279.3,172.32206896551727 260.35,183.2128735632184 241.40000000000003,172.32206896551727 241.40000000000003,150.54045977011495" style="stroke:grey;fill:grey;"/><polygon points="300.25,139.64965517241382 319.2,150.54045977011495 319.2,172.32206896551727 300.25,183.2128735632184 281.3,172.32206896551727 281.3,150.54045977011495" style="stroke:grey;fill:grey;"/><polygon points="340.15,139.64965517241382 359.09999999999997,150.54045977011495 359.09999999999997,172.32206896551727 340.15,183.2128735632184 321.2,172.32206896551727 321.2,150.54045977011495" style="stroke:grey;fill:grey;"/><polygon points="380.04999999999995,139.64965517241382 398.99999999999994,150.54045977011495 398.99999999999994,172.32206896551727 380.04999999999995,183.2128735632184 361.09999999999997,172.32206896551727 361.09999999999997,150.54045977011495" style="stroke:grey;fill:grey;"/><polygon points="419.94999999999993,139.64965517241382 438.8999999999999,150.54045977011495 438.8999999999999,172.32206896551727 419.94999999999993,183.2128735632184 400.99999999999994,172.32206896551727 400.99999999999994,150.54045977011495" style="stroke:grey;fill:grey;"/><polygon points="459.8499999999999,139.64965517241382 478.7999999999999,150.54045977011495 478.7999999999999,172.32206896551727 459.8499999999999,183.2128735632184 440.8999999999999,172.32206896551727 440.8999999999999,150.54045977011495" style="stroke:grey;fill:grey;"/><polygon points="499.7499999999999,139.64965517241382 518.6999999999999,150.54045977011495 518.6999999999999,172.32206896551727 499.7499999999999,183.2128735632184 480.7999999999999,172.32206896551727 480.7999999999999,150.54045977011495" style="stroke:grey;fill:grey;"/><polygon points="539.6499999999999,139.64965517241382 558.5999999999999,150.54045977011495 558.5999999999999,172.32206896551727 539.6499999999999,183.2128735632184 520.6999999999998,172.32206896551727 520.6999999999998,150.54045977011495" style="stroke:grey;fill:grey;"/><polygon points="579.5499999999998,139.64965517241382 598.4999999999999,150.54045977011495 598.4999999999999,172.32206896551727 579.5499999999998,183.2128735632184 560.5999999999998,172.32206896551727 560.5999999999998,150.54045977011495" style="stroke:grey;fill:grey;"/><polygon points="619.4499999999998,139.64965517241382 638.3999999999999,150.54045977011495 638.3999999999999,172.32206896551727 619.4499999999998,183.2128735632184 600.4999999999998,172.32206896551727 600.4999999999998,150.54045977011495" style="stroke:grey;fill:grey;"/><polygon points="659.3499999999998,139.64965517241382 678.2999999999998,150.54045977011495 678.2999999999998,172.32206896551727 659.3499999999998,183.2128735632184 640.3999999999997,172.32206896551727 640.3999999999997,150.54045977011495" style="stroke:grey;fill:grey;"/><polygon points="699.2499999999998,139.64965517241382 718.1999999999998,150.54045977011495 718.1999999999998,172.32206896551727 699.2499999999998,183.2128735632184 680.2999999999997,172.32206896551727 680.2999999999997,150.54045977011495" style="stroke:grey;fill:grey;"/><polygon points="739.1499999999997,139.64965517241382 758.0999999999998,150.54045977011495 758.0999999999998,172.32206896551727 739.1499999999997,183.2128735632184 720.1999999999997,172.32206896551727 720.1999999999997,150.54045977011495" style="stroke:grey;fill:grey;"/><polygon points="779.0499999999997,139.64965517241382 797.9999999999998,150.54045977011495 797.9999999999998,172.32206896551727 779.0499999999997,183.2128735632184 760.0999999999997,172.32206896551727 760.0999999999997,150.54045977011495" style="stroke:grey;fill:grey;"/><polygon points="40.9,174.06206896551728 59.849999999999994,184.95287356321842 59.849999999999994,206.73448275862074 40.9,217.62528735632188 21.95,206.73448275862074 21.95,184.95287356321842" style="stroke:grey;fill:grey;"/><polygon points="80.8,174.06206896551728 99.75,184.95287356321842 99.75,206.73448275862074 80.8,217.62528735632188 61.849999999999994,206.73448275862074 61.849999999999994,184.95287356321842" style="stroke:grey;fill:grey;"/><polygon points="120.69999999999999,174.06206896551728 139.64999999999998,184.95287356321842 139.64999999999998,206.73448275862074 120.69999999999999,217.62528735632188 101.74999999999999,206.73448275862074 101.74999999999999,184.95287356321842" style="stroke:grey;fill:grey;"/><polygon points="160.6,174.06206896551728 179.54999999999998,184.95287356321842 179.54999999999998,206.73448275862074 160.6,217.62528735632188 141.65,206.73448275862074 141.65,184.95287356321842" style="stroke:grey;fill:grey;"/><polygon points="200.5,174.06206896551728 219.45,184.95287356321842 219.45,206.73448275862074 200.5,217.62528735632188 181.55,206.73448275862074 181.55,184.95287356321842" style="stroke:grey;fill:grey;"/><polygon points="240.4,174.06206896551728 259.35,184.95287356321842 259.35,206.73448275862074 240.4,217.62528735632188 221.45000000000002,206.73448275862074 221.45000000000002,184.95287356321842" style="stroke:grey;fill:grey;"/><polygon points="280.3,174.06206896551728 299.25,184.95287356321842 299.25,206.73448275862074 280.3,217.62528735632188 261.35,206.73448275862074 261.35,184.95287356321842" style="stroke:grey;fill:grey;"/><polygon points="320.2,174.06206896551728 339.15,184.95287356321842 339.15,206.73448275862074 320.2,217.62528735632188 301.25,206.73448275862074 301.25,184.95287356321842" style="stroke:grey;fill:grey;"/><polygon points="360.09999999999997,174.06206896551728 379.04999999999995,184.95287356321842 379.04999999999995,206.73448275862074 360.09999999999997,217.62528735632188 341.15,206.73448275862074 341.15,184.95287356321842" style="stroke:grey;fill:grey;"/><polygon points="399.99999999999994,174.06206896551728 418.94999999999993,184.95287356321842 418.94999999999993,206.73448275862074 399.99999999999994,217.62528735632188 381.04999999999995,206.73448275862074 381.04999999999995,184.95287356321842" style="stroke:grey;fill:grey;"/><polygon points="439.8999999999999,174.06206896551728 458.8499999999999,184.95287356321842 458.8499999999999,206.73448275862074 439.8999999999999,217.62528735632188 420.94999999999993,206.73448275862074 420.94999999999993,184.95287356321842" style="stroke:grey;fill:grey;"/><polygon points="479.7999999999999,174.06206896551728 498.7499999999999,184.95287356321842 498.7499999999999,206.73448275862074 479.7999999999999,217.62528735632188 460.8499999999999,206.73448275862074 460.8499999999999,184.95287356321842" style="stroke:grey;fill:grey;"/><polygon points="519.6999999999999,174.06206896551728 538.65,184.95287356321842 538.65,206.73448275862074 519.6999999999999,217.62528735632188 500.74999999999994,206.73448275862074 500.74999999999994,184.95287356321842" style="stroke:grey;fill:grey;"/><polygon points="559.5999999999999,174.06206896551728 578.55,184.95287356321842 578.55,206.73448275862074 559.5999999999999,217.62528735632188 540.6499999999999,206.73448275862074 540.6499999999999,184.95287356321842" style="stroke:grey;fill:grey;"/><polygon points="599.4999999999999,174.06206896551728 618.4499999999999,184.95287356321842 618.4499999999999,206.73448275862074 599.4999999999999,217.62528735632188 580.5499999999998,206.73448275862074 580.5499999999998,184.95287356321842" style="stroke:grey;fill:grey;"/><polygon points="639.3999999999999,174.06206896551728 658.3499999999999,184.95287356321842 658.3499999999999,206.73448275862074 639.3999999999999,217.62528735632188 620.4499999999998,206.73448275862074 620.4499999999998,184.95287356321842" style="stroke:grey;fill:grey;"/><polygon points="679.2999999999998,174.06206896551728 698.2499999999999,184.95287356321842 698.2499999999999,206.73448275862074 679.2999999999998,217.62528735632188 660.3499999999998,206.73448275862074 660.3499999999998,184.95287356321842" style="stroke:grey;fill:grey;"/><polygon points="719.1999999999998,174.06206896551728 738.1499999999999,184.95287356321842 738.1499999999999,206.73448275862074 719.1999999999998,217.62528735632188 700.2499999999998,206.73448275862074 700.2499999999998,184.95287356321842" style="stroke:grey;fill:grey;"/><polygon points="759.0999999999998,174.06206896551728 778.0499999999998,184.95287356321842 778.0499999999998,206.73448275862074 759.0999999999998,217.62528735632188 740.1499999999997,206.73448275862074 740.1499999999997,184.95287356321842" style="stroke:grey;fill:grey;"/><polygon points="20.95,208.47448275862072 39.9,219.36528735632186 39.9,241.14689655172418 20.95,252.03770114942532 2.0,241.14689655172418 2.0,219.36528735632186" style="stroke:grey;fill:grey;"/><polygon points="60.849999999999994,208.47448275862072 79.8,219.36528735632186 79.8,241.14689655172418 60.849999999999994,252.03770114942532 41.89999999999999,241.14689655172418 41.89999999999999,219.36528735632186" style="stroke:grey;fill:grey;"/><polygon points="100.75,208.47448275862072 119.7,219.36528735632186 119.7,241.14689655172418 100.75,252.03770114942532 81.8,241.14689655172418 81.8,219.36528735632186" style="stroke:grey;fill:grey;"/><polygon points="140.65,208.47448275862072 159.6,219.36528735632186 159.6,241.14689655172418 140.65,252.03770114942532 121.7,241.14689655172418 121.7,219.36528735632186" style="stroke:grey;fill:grey;"/><polygon points="180.55,208.47448275862072 199.5,219.36528735632186 199.5,241.14689655172418 180.55,252.03770114942532 161.60000000000002,241.14689655172418 161.60000000000002,219.36528735632186" style="stroke:grey;fill:grey;"/><polygon points="220.45000000000002,208.47448275862072 239.4,219.36528735632186 239.4,241.14689655172418 220.45000000000002,252.03770114942532 201.50000000000003,241.14689655172418 201.50000000000003,219.36528735632186" style="stroke:grey;fill:grey;"/><polygon points="260.35,208.47448275862072 279.3,219.36528735632186 279.3,241.14689655172418 260.35,252.03770114942532 241.40000000000003,241.14689655172418 241.40000000000003,219.36528735632186" style="stroke:grey;fill:grey;"/><polygon points="300.25,208.47448275862072 319.2,219.36528735632186 319.2,241.14689655172418 300.25,252.03770114942532 281.3,241.14689655172418 281.3,219.36528735632186" style="stroke:grey;fill:grey;"/><polygon points="340.15,208.47448275862072 359.09999999999997,219.36528735632186 359.09999999999997,241.14689655172418 340.15,252.03770114942532 321.2,241.14689655172418 321.2,219.36528735632186" style="stroke:grey;fill:grey;"/><polygon points="380.04999999999995,208.47448275862072 398.99999999999994,219.36528735632186 398.99999999999994,241.14689655172418 380.04999999999995,252.03770114942532 361.09999999999997,241.14689655172418 361.09999999999997,219.36528735632186" style="stroke:grey;fill:grey;"/><polygon points="419.94999999999993,208.47448275862072 438.8999999999999,219.36528735632186 438.8999999999999,241.14689655172418 419.94999999999993,252.03770114942532 400.99999999999994,241.14689655172418 400.99999999999994,219.36528735632186" style="stroke:grey;fill:grey;"/><polygon points="459.8499999999999,208.47448275862072 478.7999999999999,219.36528735632186 478.7999999999999,241.14689655172418 459.8499999999999,252.03770114942532 440.8999999999999,241.14689655172418 440.8999999999999,219.36528735632186" style="stroke:grey;fill:grey;"/><polygon points="499.7499999999999,208.47448275862072 518.6999999999999,219.36528735632186 518.6999999999999,241.14689655172418 499.7499999999999,252.03770114942532 480.7999999999999,241.14689655172418 480.7999999999999,219.36528735632186" style="stroke:grey;fill:grey;"/><polygon points="539.6499999999999,208.47448275862072 558.5999999999999,219.36528735632186 558.5999999999999,241.14689655172418 539.6499999999999,252.03770114942532 520.6999999999998,241.14689655172418 520.6999999999998,219.36528735632186" style="stroke:grey;fill:grey;"/><polygon points="579.5499999999998,208.47448275862072 598.4999999999999,219.36528735632186 598.4999999999999,241.14689655172418 579.5499999999998,252.03770114942532 560.5999999999998,241.14689655172418 560.5999999999998,219.36528735632186" style="stroke:grey;fill:grey;"/><polygon points="619.4499999999998,208.47448275862072 638.3999999999999,219.36528735632186 638.3999999999999,241.14689655172418 619.4499999999998,252.03770114942532 600.4999999999998,241.14689655172418 600.4999999999998,219.36528735632186" style="stroke:grey;fill:grey;"/><polygon points="659.3499999999998,208.47448275862072 678.2999999999998,219.36528735632186 678.2999999999998,241.14689655172418 659.3499999999998,252.03770114942532 640.3999999999997,241.14689655172418 640.3999999999997,219.36528735632186" style="stroke:grey;fill:grey;"/><polygon points="699.2499999999998,208.47448275862072 718.1999999999998,219.36528735632186 718.1999999999998,241.14689655172418 699.2499999999998,252.03770114942532 680.2999999999997,241.14689655172418 680.2999999999997,219.36528735632186" style="stroke:grey;fill:grey;"/><polygon points="739.1499999999997,208.47448275862072 758.0999999999998,219.36528735632186 758.0999999999998,241.14689655172418 739.1499999999997,252.03770114942532 720.1999999999997,241.14689655172418 720.1999999999997,219.36528735632186" style="stroke:grey;fill:grey;"/><polygon points="779.0499999999997,208.47448275862072 797.9999999999998,219.36528735632186 797.9999999999998,241.14689655172418 779.0499999999997,252.03770114942532 760.0999999999997,241.14689655172418 760.0999999999997,219.36528735632186" style="stroke:grey;fill:grey;"/><polygon points="40.9,242.88689655172416 59.849999999999994,253.7777011494253 59.849999999999994,275.5593103448276 40.9,286.4501149425288 21.95,275.5593103448276 21.95,253.7777011494253" style="stroke:grey;fill:grey;"/><polygon points="80.8,242.88689655172416 99.75,253.7777011494253 99.75,275.5593103448276 80.8,286.4501149425288 61.849999999999994,275.5593103448276 61.849999999999994,253.7777011494253" style="stroke:grey;fill:grey;"/><polygon points="120.69999999999999,242.88689655172416 139.64999999999998,253.7777011494253 139.64999999999998,275.5593103448276 120.69999999999999,286.4501149425288 101.74999999999999,275.5593103448276 101.74999999999999,253.7777011494253" style="stroke:grey;fill:grey;"/><polygon points="160.6,242.88689655172416 179.54999999999998,253.7777011494253 179.54999999999998,275.5593103448276 160.6,286.4501149425288 141.65,275.5593103448276 141.65,253.7777011494253" style="stroke:grey;fill:grey;"/><polygon points="200.5,242.88689655172416 219.45,253.7777011494253 219.45,275.5593103448276 200.5,286.4501149425288 181.55,275.5593103448276 181.55,253.7777011494253" style="stroke:grey;fill:grey;"/><polygon points="240.4,242.88689655172416 259.35,253.7777011494253 259.35,275.5593103448276 240.4,286.4501149425288 221.45000000000002,275.5593103448276 221.45000000000002,253.7777011494253" style="stroke:grey;fill:grey;"/><polygon points="280.3,242.88689655172416 299.25,253.7777011494253 299.25,275.5593103448276 280.3,286.4501149425288 261.35,275.5593103448276 261.35,253.7777011494253" style="stroke:grey;fill:grey;"/><polygon points="320.2,242.88689655172416 339.15,253.7777011494253 339.15,275.5593103448276 320.2,286.4501149425288 301.25,275.5593103448276 301.25,253.7777011494253" style="stroke:grey;fill:grey;"/><polygon points="360.09999999999997,242.88689655172416 379.04999999999995,253.7777011494253 379.04999999999995,275.5593103448276 360.09999999999997,286.4501149425288 341.15,275.5593103448276 341.15,253.7777011494253" style="stroke:grey;fill:grey;"/><polygon points="399.99999999999994,242.88689655172416 418.94999999999993,253.7777011494253 418.94999999999993,275.5593103448276 399.99999999999994,286.4501149425288 381.04999999999995,275.5593103448276 381.04999999999995,253.7777011494253" style="stroke:grey;fill:grey;"/><polygon points="439.8999999999999,242.88689655172416 458.8499999999999,253.7777011494253 458.8499999999999,275.5593103448276 439.8999999999999,286.4501149425288 420.94999999999993,275.5593103448276 420.94999999999993,253.7777011494253" style="stroke:grey;fill:grey;"/><polygon points="479.7999999999999,242.88689655172416 498.7499999999999,253.7777011494253 498.7499999999999,275.5593103448276 479.7999999999999,286.4501149425288 460.8499999999999,275.5593103448276 460.8499999999999,253.7777011494253" style="stroke:grey;fill:grey;"/><polygon points="519.6999999999999,242.88689655172416 538.65,253.7777011494253 538.65,275.5593103448276 519.6999999999999,286.4501149425288 500.74999999999994,275.5593103448276 500.74999999999994,253.7777011494253" style="stroke:grey;fill:grey;"/><polygon points="559.5999999999999,242.88689655172416 578.55,253.7777011494253 578.55,275.5593103448276 559.5999999999999,286.4501149425288 540.6499999999999,275.5593103448276 540.6499999999999,253.7777011494253" style="stroke:grey;fill:grey;"/><polygon points="599.4999999999999,242.88689655172416 618.4499999999999,253.7777011494253 618.4499999999999,275.5593103448276 599.4999999999999,286.4501149425288 580.5499999999998,275.5593103448276 580.5499999999998,253.7777011494253" style="stroke:grey;fill:grey;"/><polygon points="639.3999999999999,242.88689655172416 658.3499999999999,253.7777011494253 658.3499999999999,275.5593103448276 639.3999999999999,286.4501149425288 620.4499999999998,275.5593103448276 620.4499999999998,253.7777011494253" style="stroke:grey;fill:grey;"/><polygon points="679.2999999999998,242.88689655172416 698.2499999999999,253.7777011494253 698.2499999999999,275.5593103448276 679.2999999999998,286.4501149425288 660.3499999999998,275.5593103448276 660.3499999999998,253.7777011494253" style="stroke:grey;fill:grey;"/><polygon points="719.1999999999998,242.88689655172416 738.1499999999999,253.7777011494253 738.1499999999999,275.5593103448276 719.1999999999998,286.4501149425288 700.2499999999998,275.5593103448276 700.2499999999998,253.7777011494253" style="stroke:grey;fill:grey;"/><polygon points="759.0999999999998,242.88689655172416 778.0499999999998,253.7777011494253 778.0499999999998,275.5593103448276 759.0999999999998,286.4501149425288 740.1499999999997,275.5593103448276 740.1499999999997,253.7777011494253" style="stroke:grey;fill:grey;"/><polygon points="20.95,277.2993103448276 39.9,288.19011494252874 39.9,309.97172413793106 20.95,320.8625287356322 2.0,309.97172413793106 2.0,288.19011494252874" style="stroke:grey;fill:grey;"/><polygon points="60.849999999999994,277.2993103448276 79.8,288.19011494252874 79.8,309.97172413793106 60.849999999999994,320.8625287356322 41.89999999999999,309.97172413793106 41.89999999999999,288.19011494252874" style="stroke:grey;fill:grey;"/><polygon points="100.75,277.2993103448276 119.7,288.19011494252874 119.7,309.97172413793106 100.75,320.8625287356322 81.8,309.97172413793106 81.8,288.19011494252874" style="stroke:grey;fill:grey;"/><polygon points="140.65,277.2993103448276 159.6,288.19011494252874 159.6,309.97172413793106 140.65,320.8625287356322 121.7,309.97172413793106 121.7,288.19011494252874" style="stroke:grey;fill:grey;"/><polygon points="180.55,277.2993103448276 199.5,288.19011494252874 199.5,309.97172413793106 180.55,320.8625287356322 161.60000000000002,309.97172413793106 161.60000000000002,288.19011494252874" style="stroke:grey;fill:grey;"/><polygon points="220.45000000000002,277.2993103448276 239.4,288.19011494252874 239.4,309.97172413793106 220.45000000000002,320.8625287356322 201.50000000000003,309.97172413793106 201.50000000000003,288.19011494252874" style="stroke:grey;fill:grey;"/><polygon points="260.35,277.2993103448276 279.3,288.19011494252874 279.3,309.97172413793106 260.35,320.8625287356322 241.40000000000003,309.97172413793106 241.40000000000003,288.19011494252874" style="stroke:grey;fill:grey;"/><polygon points="300.25,277.2993103448276 319.2,288.19011494252874 319.2,309.97172413793106 300.25,320.8625287356322 281.3,309.97172413793106 281.3,288.19011494252874" style="stroke:grey;fill:grey;"/><polygon points="340.15,277.2993103448276 359.09999999999997,288.19011494252874 359.09999999999997,309.97172413793106 340.15,320.8625287356322 321.2,309.97172413793106 321.2,288.19011494252874" style="stroke:grey;fill:grey;"/><polygon points="380.04999999999995,277.2993103448276 398.99999999999994,288.19011494252874 398.99999999999994,309.97172413793106 380.04999999999995,320.8625287356322 361.09999999999997,309.97172413793106 361.09999999999997,288.19011494252874" style="stroke:grey;fill:grey;"/><polygon points="419.94999999999993,277.2993103448276 438.8999999999999,288.19011494252874 438.8999999999999,309.97172413793106 419.94999999999993,320.8625287356322 400.99999999999994,309.97172413793106 400.99999999999994,288.19011494252874" style="stroke:grey;fill:grey;"/><polygon points="459.8499999999999,277.2993103448276 478.7999999999999,288.19011494252874 478.7999999999999,309.97172413793106 459.8499999999999,320.8625287356322 440.8999999999999,309.97172413793106 440.8999999999999,288.19011494252874" style="stroke:grey;fill:grey;"/><polygon points="499.7499999999999,277.2993103448276 518.6999999999999,288.19011494252874 518.6999999999999,309.97172413793106 499.7499999999999,320.8625287356322 480.7999999999999,309.97172413793106 480.7999999999999,288.19011494252874" style="stroke:grey;fill:grey;"/><polygon points="539.6499999999999,277.2993103448276 558.5999999999999,288.19011494252874 558.5999999999999,309.97172413793106 539.6499999999999,320.8625287356322 520.6999999999998,309.97172413793106 520.6999999999998,288.19011494252874" style="stroke:grey;fill:grey;"/><polygon points="579.5499999999998,277.2993103448276 598.4999999999999,288.19011494252874 598.4999999999999,309.97172413793106 579.5499999999998,320.8625287356322 560.5999999999998,309.97172413793106 560.5999999999998,288.19011494252874" style="stroke:grey;fill:grey;"/><polygon points="619.4499999999998,277.2993103448276 638.3999999999999,288.19011494252874 638.3999999999999,309.97172413793106 619.4499999999998,320.8625287356322 600.4999999999998,309.97172413793106 600.4999999999998,288.19011494252874" style="stroke:grey;fill:grey;"/><polygon points="659.3499999999998,277.2993103448276 678.2999999999998,288.19011494252874 678.2999999999998,309.97172413793106 659.3499999999998,320.8625287356322 640.3999999999997,309.97172413793106 640.3999999999997,288.19011494252874" style="stroke:grey;fill:grey;"/><polygon points="699.2499999999998,277.2993103448276 718.1999999999998,288.19011494252874 718.1999999999998,309.97172413793106 699.2499999999998,320.8625287356322 680.2999999999997,309.97172413793106 680.2999999999997,288.19011494252874" style="stroke:grey;fill:grey;"/><polygon points="739.1499999999997,277.2993103448276 758.0999999999998,288.19011494252874 758.0999999999998,309.97172413793106 739.1499999999997,320.8625287356322 720.1999999999997,309.97172413793106 720.1999999999997,288.19011494252874" style="stroke:grey;fill:grey;"/><polygon points="779.0499999999997,277.2993103448276 797.9999999999998,288.19011494252874 797.9999999999998,309.97172413793106 779.0499999999997,320.8625287356322 760.0999999999997,309.97172413793106 760.0999999999997,288.19011494252874" style="stroke:grey;fill:grey;"/><polygon points="40.9,311.711724137931 59.849999999999994,322.6025287356322 59.849999999999994,344.3841379310345 40.9,355.27494252873566 21.95,344.3841379310345 21.95,322.6025287356322" style="stroke:grey;fill:grey;"/><polygon points="80.8,311.711724137931 99.75,322.6025287356322 99.75,344.3841379310345 80.8,355.27494252873566 61.849999999999994,344.3841379310345 61.849999999999994,322.6025287356322" style="stroke:grey;fill:grey;"/><polygon points="120.69999999999999,311.711724137931 139.64999999999998,322.6025287356322 139.64999999999998,344.3841379310345 120.69999999999999,355.27494252873566 101.74999999999999,344.3841379310345 101.74999999999999,322.6025287356322" style="stroke:grey;fill:grey;"/><polygon points="160.6,311.711724137931 179.54999999999998,322.6025287356322 179.54999999999998,344.3841379310345 160.6,355.27494252873566 141.65,344.3841379310345 141.65,322.6025287356322" style="stroke:grey;fill:grey;"/><polygon points="200.5,311.711724137931 219.45,322.6025287356322 219.45,344.3841379310345 200.5,355.27494252873566 181.55,344.3841379310345 181.55,322.6025287356322" style="stroke:grey;fill:grey;"/><polygon points="240.4,311.711724137931 259.35,322.6025287356322 259.35,344.3841379310345 240.4,355.27494252873566 221.45000000000002,344.3841379310345 221.45000000000002,322.6025287356322" style="stroke:grey;fill:grey;"/><polygon points="280.3,311.711724137931 299.25,322.6025287356322 299.25,344.3841379310345 280.3,355.27494252873566 261.35,344.3841379310345 261.35,322.6025287356322" style="stroke:grey;fill:grey;"/><polygon points="320.2,311.711724137931 339.15,322.6025287356322 339.15,344.3841379310345 320.2,355.27494252873566 301.25,344.3841379310345 301.25,322.6025287356322" style="stroke:grey;fill:grey;"/><polygon points="360.09999999999997,311.711724137931 379.04999999999995,322.6025287356322 379.04999999999995,344.3841379310345 360.09999999999997,355.27494252873566 341.15,344.3841379310345 341.15,322.6025287356322" style="stroke:grey;fill:grey;"/><polygon points="399.99999999999994,311.711724137931 418.94999999999993,322.6025287356322 418.94999999999993,344.3841379310345 399.99999999999994,355.27494252873566 381.04999999999995,344.3841379310345 381.04999999999995,322.6025287356322" style="stroke:grey;fill:grey;"/><polygon points="439.8999999999999,311.711724137931 458.8499999999999,322.6025287356322 458.8499999999999,344.3841379310345 439.8999999999999,355.27494252873566 420.94999999999993,344.3841379310345 420.94999999999993,322.6025287356322" style="stroke:grey;fill:grey;"/><polygon points="479.7999999999999,311.711724137931 498.7499999999999,322.6025287356322 498.7499999999999,344.3841379310345 479.7999999999999,355.27494252873566 460.8499999999999,344.3841379310345 460.8499999999999,322.6025287356322" style="stroke:grey;fill:grey;"/><polygon points="519.6999999999999,311.711724137931 538.65,322.6025287356322 538.65,344.3841379310345 519.6999999999999,355.27494252873566 500.74999999999994,344.3841379310345 500.74999999999994,322.6025287356322" style="stroke:grey;fill:grey;"/><polygon points="559.5999999999999,311.711724137931 578.55,322.6025287356322 578.55,344.3841379310345 559.5999999999999,355.27494252873566 540.6499999999999,344.3841379310345 540.6499999999999,322.6025287356322" style="stroke:grey;fill:grey;"/><polygon points="599.4999999999999,311.711724137931 618.4499999999999,322.6025287356322 618.4499999999999,344.3841379310345 599.4999999999999,355.27494252873566 580.5499999999998,344.3841379310345 580.5499999999998,322.6025287356322" style="stroke:grey;fill:grey;"/><polygon points="639.3999999999999,311.711724137931 658.3499999999999,322.6025287356322 658.3499999999999,344.3841379310345 639.3999999999999,355.27494252873566 620.4499999999998,344.3841379310345 620.4499999999998,322.6025287356322" style="stroke:grey;fill:grey;"/><polygon points="679.2999999999998,311.711724137931 698.2499999999999,322.6025287356322 698.2499999999999,344.3841379310345 679.2999999999998,355.27494252873566 660.3499999999998,344.3841379310345 660.3499999999998,322.6025287356322" style="stroke:grey;fill:grey;"/><polygon points="719.1999999999998,311.711724137931 738.1499999999999,322.6025287356322 738.1499999999999,344.3841379310345 719.1999999999998,355.27494252873566 700.2499999999998,344.3841379310345 700.2499999999998,322.6025287356322" style="stroke:grey;fill:grey;"/><polygon points="759.0999999999998,311.711724137931 778.0499999999998,322.6025287356322 778.0499999999998,344.3841379310345 759.0999999999998,355.27494252873566 740.1499999999997,344.3841379310345 740.1499999999997,322.6025287356322" style="stroke:grey;fill:grey;"/><polygon points="20.95,346.12413793103445 39.9,357.0149425287356 39.9,378.79655172413794 20.95,389.6873563218391 2.0,378.79655172413794 2.0,357.0149425287356" style="stroke:grey;fill:grey;"/><polygon points="60.849999999999994,346.12413793103445 79.8,357.0149425287356 79.8,378.79655172413794 60.849999999999994,389.6873563218391 41.89999999999999,378.79655172413794 41.89999999999999,357.0149425287356" style="stroke:grey;fill:grey;"/><polygon points="100.75,346.12413793103445 119.7,357.0149425287356 119.7,378.79655172413794 100.75,389.6873563218391 81.8,378.79655172413794 81.8,357.0149425287356" style="stroke:grey;fill:grey;"/><polygon points="140.65,346.12413793103445 159.6,357.0149425287356 159.6,378.79655172413794 140.65,389.6873563218391 121.7,378.79655172413794 121.7,357.0149425287356" style="stroke:grey;fill:grey;"/><polygon points="180.55,346.12413793103445 199.5,357.0149425287356 199.5,378.79655172413794 180.55,389.6873563218391 161.60000000000002,378.79655172413794 161.60000000000002,357.0149425287356" style="stroke:grey;fill:grey;"/><polygon points="220.45000000000002,346.12413793103445 239.4,357.0149425287356 239.4,378.79655172413794 220.45000000000002,389.6873563218391 201.50000000000003,378.79655172413794 201.50000000000003,357.0149425287356" style="stroke:grey;fill:grey;"/><polygon points="260.35,346.12413793103445 279.3,357.0149425287356 279.3,378.79655172413794 260.35,389.6873563218391 241.40000000000003,378.79655172413794 241.40000000000003,357.0149425287356" style="stroke:grey;fill:grey;"/><polygon points="300.25,346.12413793103445 319.2,357.0149425287356 319.2,378.79655172413794 300.25,389.6873563218391 281.3,378.79655172413794 281.3,357.0149425287356" style="stroke:grey;fill:grey;"/><polygon points="340.15,346.12413793103445 359.09999999999997,357.0149425287356 359.09999999999997,378.79655172413794 340.15,389.6873563218391 321.2,378.79655172413794 321.2,357.0149425287356" style="stroke:grey;fill:grey;"/><polygon points="380.04999999999995,346.12413793103445 398.99999999999994,357.0149425287356 398.99999999999994,378.79655172413794 380.04999999999995,389.6873563218391 361.09999999999997,378.79655172413794 361.09999999999997,357.0149425287356" style="stroke:grey;fill:grey;"/><polygon points="419.94999999999993,346.12413793103445 438.8999999999999,357.0149425287356 438.8999999999999,378.79655172413794 419.94999999999993,389.6873563218391 400.99999999999994,378.79655172413794 400.99999999999994,357.0149425287356" style="stroke:grey;fill:grey;"/><polygon points="459.8499999999999,346.12413793103445 478.7999999999999,357.0149425287356 478.7999999999999,378.79655172413794 459.8499999999999,389.6873563218391 440.8999999999999,378.79655172413794 440.8999999999999,357.0149425287356" style="stroke:grey;fill:grey;"/><polygon points="499.7499999999999,346.12413793103445 518.6999999999999,357.0149425287356 518.6999999999999,378.79655172413794 499.7499999999999,389.6873563218391 480.7999999999999,378.79655172413794 480.7999999999999,357.0149425287356" style="stroke:grey;fill:grey;"/><polygon points="539.6499999999999,346.12413793103445 558.5999999999999,357.0149425287356 558.5999999999999,378.79655172413794 539.6499999999999,389.6873563218391 520.6999999999998,378.79655172413794 520.6999999999998,357.0149425287356" style="stroke:grey;fill:grey;"/><polygon points="579.5499999999998,346.12413793103445 598.4999999999999,357.0149425287356 598.4999999999999,378.79655172413794 579.5499999999998,389.6873563218391 560.5999999999998,378.79655172413794 560.5999999999998,357.0149425287356" style="stroke:grey;fill:grey;"/><polygon points="619.4499999999998,346.12413793103445 638.3999999999999,357.0149425287356 638.3999999999999,378.79655172413794 619.4499999999998,389.6873563218391 600.4999999999998,378.79655172413794 600.4999999999998,357.0149425287356" style="stroke:grey;fill:grey;"/><polygon points="659.3499999999998,346.12413793103445 678.2999999999998,357.0149425287356 678.2999999999998,378.79655172413794 659.3499999999998,389.6873563218391 640.3999999999997,378.79655172413794 640.3999999999997,357.0149425287356" style="stroke:grey;fill:grey;"/><polygon points="699.2499999999998,346.12413793103445 718.1999999999998,357.0149425287356 718.1999999999998,378.79655172413794 699.2499999999998,389.6873563218391 680.2999999999997,378.79655172413794 680.2999999999997,357.0149425287356" style="stroke:grey;fill:grey;"/><polygon points="739.1499999999997,346.12413793103445 758.0999999999998,357.0149425287356 758.0999999999998,378.79655172413794 739.1499999999997,389.6873563218391 720.1999999999997,378.79655172413794 720.1999999999997,357.0149425287356" style="stroke:grey;fill:grey;"/><polygon points="779.0499999999997,346.12413793103445 797.9999999999998,357.0149425287356 797.9999999999998,378.79655172413794 779.0499999999997,389.6873563218391 760.0999999999997,378.79655172413794 760.0999999999997,357.0149425287356" style="stroke:grey;fill:grey;"/></svg>
