<?xml version="1.0" standalone="no"?>
<!DOCTYPE svg PUBLIC "-//W3C//DTD SVG 1.1//EN"
  "http://www.w3.org/Graphics/SVG/1.1/DTD/svg11.dtd">
<svg width="400" height="400" version="1.1"
  xmlns="http://www.w3.org/2000/svg">
<polygon points="20.900000000000002,0.0 39.800000000000004,10.862068965517242 39.800000000000004,32.58620689655173 20.900000000000002,43.44827586206897 2.0,32.58620689655173 2.0,10.862068965517242" style="stroke:grey;fill:grey;"/><polygon points="60.7,0.0 79.60000000000001,10.862068965517242 79.60000000000001,32.58620689655173 60.7,43.44827586206897 41.8,32.58620689655173 41.8,10.862068965517242" style="stroke:grey;fill:grey;"/><polygon points="100.5,0.0 119.4,10.862068965517242 119.4,32.58620689655173 100.5,43.44827586206897 81.6,32.58620689655173 81.6,10.862068965517242" style="stroke:grey;fill:grey;"/><polygon points="140.3,0.0 159.20000000000002,10.862068965517242 159.20000000000002,32.58620689655173 140.3,43.44827586206897 121.4,32.58620689655173 121.4,10.862068965517242" style="stroke:grey;fill:grey;"/><polygon points="180.10000000000002,0.0 199.00000000000003,10.862068965517242 199.00000000000003,32.58620689655173 180.10000000000002,43.44827586206897 161.20000000000002,32.58620689655173 161.20000000000002,10.862068965517242" style="stroke:grey;fill:grey;"/><polygon points="219.90000000000003,0.0 238.80000000000004,10.862068965517242 238.80000000000004,32.58620689655173 219.90000000000003,43.44827586206897 201.00000000000003,32.58620689655173 201.00000000000003,10.862068965517242" style="stroke:grey;fill:grey;"/><polygon points="259.70000000000005,0.0 278.6,10.862068965517242 278.6,32.58620689655173 259.70000000000005,43.44827586206897 240.80000000000004,32.58620689655173 240.80000000000004,10.862068965517242" style="stroke:grey;fill:grey;"/><polygon points="299.50000000000006,0.0 318.40000000000003,10.862068965517242 318.40000000000003,32.58620689655173 299.50000000000006,43.44827586206897 280.6000000000001,32.58620689655173 280.6000000000001,10.862068965517242" style="stroke:grey;fill:grey;"/><polygon points="339.30000000000007,0.0 358.20000000000005,10.862068965517242 358.20000000000005,32.58620689655173 339.30000000000007,43.44827586206897 320.4000000000001,32.58620689655173 320.4000000000001,10.862068965517242" style="stroke:grey;fill:grey;"/><polygon points="379.1000000000001,0.0 398.00000000000006,10.862068965517242 398.00000000000006,32.58620689655173 379.1000000000001,43.44827586206897 360.2000000000001,32.58620689655173 360.2000000000001,10.862068965517242" style="stroke:grey;fill:grey;"/><polygon points="40.800000000000004,34.32620689655173 59.7,45.18827586206898 59.7,66.91241379310345 40.800000000000004,77.7744827586207 21.900000000000002,66.91241379310345 21.900000000000002,45.18827586206898" style="stroke:grey;fill:grey;"/><polygon points="80.60000000000001,34.32620689655173 99.50000000000001,45.18827586206898 99.50000000000001,66.91241379310345 80.60000000000001,77.7744827586207 61.7,66.91241379310345 61.7,45.18827586206898" style="stroke:grey;fill:grey;"/><polygon points="120.4,34.32620689655173 139.3,45.18827586206898 139.3,66.91241379310345 120.4,77.7744827586207 101.5,66.91241379310345 101.5,45.18827586206898" style="stroke:grey;fill:grey;"/><polygon points="160.20000000000002,34.32620689655173 179.10000000000002,45.18827586206898 179.10000000000002,66.91241379310345 160.20000000000002,77.7744827586207 141.3,66.91241379310345 141.3,45.18827586206898" style="stroke:grey;fill:grey;"/><polygon points="200.00000000000003,34.32620689655173 218.90000000000003,45.18827586206898 218.90000000000003,66.91241379310345 200.00000000000003,77.7744827586207 181.10000000000002,66.91241379310345 181.10000000000002,45.18827586206898" style="stroke:grey;fill:grey;"/><polygon points="239.80000000000004,34.32620689655173 258.70000000000005,45.18827586206898 258.70000000000005,66.91241379310345 239.80000000000004,77.7744827586207 220.90000000000003,66.91241379310345 220.90000000000003,45.18827586206898" style="stroke:grey;fill:grey;"/><polygon points="279.6,34.32620689655173 298.5,45.18827586206898 298.5,66.91241379310345 279.6,77.7744827586207 260.70000000000005,66.91241379310345 260.70000000000005,45.18827586206898" style="stroke:grey;fill:grey;"/><polygon points="319.40000000000003,34.32620689655173 338.3,45.18827586206898 338.3,66.91241379310345 319.40000000000003,77.7744827586207 300.50000000000006,66.91241379310345 300.50000000000006,45.18827586206898" style="stroke:grey;fill:grey;"/><polygon points="359.20000000000005,34.32620689655173 378.1,45.18827586206898 378.1,66.91241379310345 359.20000000000005,77.7744827586207 340.30000000000007,66.91241379310345 340.30000000000007,45.18827586206898" style="stroke:grey;fill:grey;"/><polygon points="399.00000000000006,34.32620689655173 417.90000000000003,45.18827586206898 417.90000000000003,66.91241379310345 399.00000000000006,77.7744827586207 380.1000000000001,66.91241379310345 380.1000000000001,45.18827586206898" style="stroke:grey;fill:grey;"/><polygon points="20.900000000000002,68.65241379310348 39.800000000000004,79.51448275862072 39.800000000000004,101.23862068965519 20.900000000000002,112.10068965517243 2.0,101.23862068965519 2.0,79.51448275862072" style="stroke:grey;fill:grey;"/><polygon points="60.7,68.65241379310348 79.60000000000001,79.51448275862072 79.60000000000001,101.23862068965519 60.7,112.10068965517243 41.8,101.23862068965519 41.8,79.51448275862072" style="stroke:grey;fill:grey;"/><polygon points="100.5,68.65241379310348 119.4,79.51448275862072 119.4,101.23862068965519 100.5,112.10068965517243 81.6,101.23862068965519 81.6,79.51448275862072" style="stroke:grey;fill:grey;"/><polygon points="140.3,68.65241379310348 159.20000000000002,79.51448275862072 159.20000000000002,101.23862068965519 140.3,112.10068965517243 121.4,101.23862068965519 121.4,79.51448275862072" style="stroke:grey;fill:grey;"/><polygon points="180.10000000000002,68.65241379310348 199.00000000000003,79.51448275862072 199.00000000000003,101.23862068965519 180.10000000000002,112.10068965517243 161.20000000000002,101.23862068965519 161.20000000000002,79.51448275862072" style="stroke:grey;fill:grey;"/><polygon points="219.90000000000003,68.65241379310348 238.80000000000004,79.51448275862072 238.80000000000004,101.23862068965519 219.90000000000003,112.10068965517243 201.00000000000003,101.23862068965519 201.00000000000003,79.51448275862072" style="stroke:grey;fill:grey;"/><polygon points="259.70000000000005,68.65241379310348 278.6,79.51448275862072 278.6,101.23862068965519 259.70000000000005,112.10068965517243 240.80000000000004,101.23862068965519 240.80000000000004,79.51448275862072" style="stroke:grey;fill:grey;"/><polygon points="299.50000000000006,68.65241379310348 318.40000000000003,79.51448275862072 318.40000000000003,101.23862068965519 299.50000000000006,112.10068965517243 280.6000000000001,101.23862068965519 280.6000000000001,79.51448275862072" style="stroke:grey;fill:grey;"/><polygon points="339.30000000000007,68.65241379310348 358.20000000000005,79.51448275862072 358.20000000000005,101.23862068965519 339.30000000000007,112.10068965517243 320.4000000000001,101.23862068965519 320.4000000000001,79.51448275862072" style="stroke:grey;fill:grey;"/><polygon points="379.1000000000001,68.65241379310348 398.00000000000006,79.51448275862072 398.00000000000006,101.23862068965519 379.1000000000001,112.10068965517243 360.2000000000001,101.23862068965519 360.2000000000001,79.51448275862072" style="stroke:grey;fill:grey;"/><polygon points="40.800000000000004,102.9786206896552 59.7,113.84068965517244 59.7,135.56482758620692 40.800000000000004,146.42689655172416 21.900000000000002,135.56482758620692 21.900000000000002,113.84068965517244" style="stroke:grey;fill:grey;"/><polygon points="80.60000000000001,102.9786206896552 99.50000000000001,113.84068965517244 99.50000000000001,135.56482758620692 80.60000000000001,146.42689655172416 61.7,135.56482758620692 61.7,113.84068965517244" style="stroke:grey;fill:grey;"/><polygon points="120.4,102.9786206896552 139.3,113.84068965517244 139.3,135.56482758620692 120.4,146.42689655172416 101.5,135.56482758620692 101.5,113.84068965517244" style="stroke:grey;fill:grey;"/><polygon points="160.20000000000002,102.9786206896552 179.10000000000002,113.84068965517244 179.10000000000002,135.56482758620692 160.20000000000002,146.42689655172416 141.3,135.56482758620692 141.3,113.84068965517244" style="stroke:grey;fill:grey;"/><polygon points="200.00000000000003,102.9786206896552 218.90000000000003,113.84068965517244 218.90000000000003,135.56482758620692 200.00000000000003,146.42689655172416 181.10000000000002,135.56482758620692 181.10000000000002,113.84068965517244" style="stroke:grey;fill:grey;"/><polygon points="239.80000000000004,102.9786206896552 258.70000000000005,113.84068965517244 258.70000000000005,135.56482758620692 239.80000000000004,146.42689655172416 220.90000000000003,135.56482758620692 220.90000000000003,113.84068965517244" style="stroke:grey;fill:grey;"/><polygon points="279.6,102.9786206896552 298.5,113.84068965517244 298.5,135.56482758620692 279.6,146.42689655172416 260.70000000000005,135.56482758620692 260.70000000000005,113.84068965517244" style="stroke:grey;fill:grey;"/><polygon points="319.40000000000003,102.9786206896552 338.3,113.84068965517244 338.3,135.56482758620692 319.40000000000003,146.42689655172416 300.50000000000006,135.56482758620692 300.50000000000006,113.84068965517244" style="stroke:grey;fill:grey;"/><polygon points="359.20000000000005,102.9786206896552 378.1,113.84068965517244 378.1,135.56482758620692 359.20000000000005,146.42689655172416 340.30000000000007,135.56482758620692 340.30000000000007,113.84068965517244" style="stroke:grey;fill:grey;"/><polygon points="399.00000000000006,102.9786206896552 417.90000000000003,113.84068965517244 417.90000000000003,135.56482758620692 399.00000000000006,146.42689655172416 380.1000000000001,135.56482758620692 380.1000000000001,113.84068965517244" style="stroke:grey;fill:grey;"/><polygon points="20.900000000000002,137.30482758620693 39.800000000000004,148.16689655172416 39.800000000000004,169.89103448275864 20.900000000000002,180.75310344827588 2.0,169.89103448275864 2.0,148.16689655172416" style="stroke:grey;fill:grey;"/><polygon points="60.7,137.30482758620693 79.60000000000001,148.16689655172416 79.60000000000001,169.89103448275864 60.7,180.75310344827588 41.8,169.89103448275864 41.8,148.16689655172416" style="stroke:grey;fill:grey;"/><polygon points="100.5,137.30482758620693 119.4,148.16689655172416 119.4,169.89103448275864 100.5,180.75310344827588 81.6,169.89103448275864 81.6,148.16689655172416" style="stroke:grey;fill:grey;"/><polygon points="140.3,137.30482758620693 159.20000000000002,148.16689655172416 159.20000000000002,169.89103448275864 140.3,180.75310344827588 121.4,169.89103448275864 121.4,148.16689655172416" style="stroke:grey;fill:grey;"/><polygon points="180.10000000000002,137.30482758620693 199.00000000000003,148.16689655172416 199.00000000000003,169.89103448275864 180.10000000000002,180.75310344827588 161.20000000000002,169.89103448275864 161.20000000000002,148.16689655172416" style="stroke:grey;fill:grey;"/><polygon points="219.90000000000003,137.30482758620693 238.80000000000004,148.16689655172416 238.80000000000004,169.89103448275864 219.90000000000003,180.75310344827588 201.00000000000003,169.89103448275864 201.00000000000003,148.16689655172416" style="stroke:grey;fill:grey;"/><polygon points="259.70000000000005,137.30482758620693 278.6,148.16689655172416 278.6,169.89103448275864 259.70000000000005,180.75310344827588 240.80000000000004,169.89103448275864 240.80000000000004,148.16689655172416" style="stroke:grey;fill:grey;"/><polygon points="299.50000000000006,137.30482758620693 318.40000000000003,148.16689655172416 318.40000000000003,169.89103448275864 299.50000000000006,180.75310344827588 280.6000000000001,169.89103448275864 280.6000000000001,148.16689655172416" style="stroke:grey;fill:grey;"/><polygon points="339.30000000000007,137.30482758620693 358.20000000000005,148.16689655172416 358.20000000000005,169.89103448275864 339.30000000000007,180.75310344827588 320.4000000000001,169.89103448275864 320.4000000000001,148.16689655172416" style="stroke:grey;fill:grey;"/><polygon points="379.1000000000001,137.30482758620693 398.00000000000006,148.16689655172416 398.00000000000006,169.89103448275864 379.1000000000001,180.75310344827588 360.2000000000001,169.89103448275864 360.2000000000001,148.16689655172416" style="stroke:grey;fill:grey;"/><polygon points="40.800000000000004,171.63103448275865 59.7,182.4931034482759 59.7,204.21724137931037 40.800000000000004,215.0793103448276 21.900000000000002,204.21724137931037 21.900000000000002,182.4931034482759" style="stroke:grey;fill:grey;"/><polygon points="80.60000000000001,171.63103448275865 99.50000000000001,182.4931034482759 99.50000000000001,204.21724137931037 80.60000000000001,215.0793103448276 61.7,204.21724137931037 61.7,182.4931034482759" style="stroke:grey;fill:grey;"/><polygon points="120.4,171.63103448275865 139.3,182.4931034482759 139.3,204.21724137931037 120.4,215.0793103448276 101.5,204.21724137931037 101.5,182.4931034482759" style="stroke:grey;fill:grey;"/><polygon points="160.20000000000002,171.63103448275865 179.10000000000002,182.4931034482759 179.10000000000002,204.21724137931037 160.20000000000002,215.0793103448276 141.3,204.21724137931037 141.3,182.4931034482759" style="stroke:grey;fill:grey;"/><polygon points="200.00000000000003,171.63103448275865 218.90000000000003,182.4931034482759 218.90000000000003,204.21724137931037 200.00000000000003,215.0793103448276 181.10000000000002,204.21724137931037 181.10000000000002,182.4931034482759" style="stroke:grey;fill:grey;"/><polygon points="239.80000000000004,171.63103448275865 258.70000000000005,182.4931034482759 258.70000000000005,204.21724137931037 239.80000000000004,215.0793103448276 220.90000000000003,204.21724137931037 220.90000000000003,182.4931034482759" style="stroke:grey;fill:grey;"/><polygon points="279.6,171.63103448275865 298.5,182.4931034482759 298.5,204.21724137931037 279.6,215.0793103448276 260.70000000000005,204.21724137931037 260.70000000000005,182.4931034482759" style="stroke:grey;fill:grey;"/><polygon points="319.40000000000003,171.63103448275865 338.3,182.4931034482759 338.3,204.21724137931037 319.40000000000003,215.0793103448276 300.50000000000006,204.21724137931037 300.50000000000006,182.4931034482759" style="stroke:grey;fill:grey;"/><polygon points="359.20000000000005,171.63103448275865 378.1,182.4931034482759 378.1,204.21724137931037 359.20000000000005,215.0793103448276 340.30000000000007,204.21724137931037 340.30000000000007,182.4931034482759" style="stroke:grey;fill:grey;"/><polygon points="399.00000000000006,171.63103448275865 417.90000000000003,182.4931034482759 417.90000000000003,204.21724137931037 399.00000000000006,215.0793103448276 380.1000000000001,204.21724137931037 380.1000000000001,182.4931034482759" style="stroke:grey;fill:grey;"/><polygon points="20.900000000000002,205.95724137931037 39.800000000000004,216.8193103448276 39.800000000000004,238.5434482758621 20.900000000000002,249.40551724137933 2.0,238.5434482758621 2.0,216.8193103448276" style="stroke:grey;fill:grey;"/><polygon points="60.7,205.95724137931037 79.60000000000001,216.8193103448276 79.60000000000001,238.5434482758621 60.7,249.40551724137933 41.8,238.5434482758621 41.8,216.8193103448276" style="stroke:grey;fill:grey;"/><polygon points="100.5,205.95724137931037 119.4,216.8193103448276 119.4,238.5434482758621 100.5,249.40551724137933 81.6,238.5434482758621 81.6,216.8193103448276" style="stroke:grey;fill:grey;"/><polygon points="140.3,205.95724137931037 159.20000000000002,216.8193103448276 159.20000000000002,238.5434482758621 140.3,249.40551724137933 121.4,238.5434482758621 121.4,216.8193103448276" style="stroke:grey;fill:grey;"/><polygon points="180.10000000000002,205.95724137931037 199.00000000000003,216.8193103448276 199.00000000000003,238.5434482758621 180.10000000000002,249.40551724137933 161.20000000000002,238.5434482758621 161.20000000000002,216.8193103448276" style="stroke:grey;fill:grey;"/><polygon points="219.90000000000003,205.95724137931037 238.80000000000004,216.8193103448276 238.80000000000004,238.5434482758621 219.90000000000003,249.40551724137933 201.00000000000003,238.5434482758621 201.00000000000003,216.8193103448276" style="stroke:grey;fill:grey;"/><polygon points="259.70000000000005,205.95724137931037 278.6,216.8193103448276 278.6,238.5434482758621 259.70000000000005,249.40551724137933 240.80000000000004,238.5434482758621 240.80000000000004,216.8193103448276" style="stroke:grey;fill:grey;"/><polygon points="299.50000000000006,205.95724137931037 318.40000000000003,216.8193103448276 318.40000000000003,238.5434482758621 299.50000000000006,249.40551724137933 280.6000000000001,238.5434482758621 280.6000000000001,216.8193103448276" style="stroke:grey;fill:grey;"/><polygon points="339.30000000000007,205.95724137931037 358.20000000000005,216.8193103448276 358.20000000000005,238.5434482758621 339.30000000000007,249.40551724137933 320.4000000000001,238.5434482758621 320.4000000000001,216.8193103448276" style="stroke:grey;fill:grey;"/><polygon points="379.1000000000001,205.95724137931037 398.00000000000006,216.8193103448276 398.00000000000006,238.5434482758621 379.1000000000001,249.40551724137933 360.2000000000001,238.5434482758621 360.2000000000001,216.8193103448276" style="stroke:grey;fill:grey;"/><polygon points="40.800000000000004,240.2834482758621 59.7,251.14551724137934 59.7,272.86965517241384 40.800000000000004,283.73172413793105 21.900000000000002,272.86965517241384 21.900000000000002,251.14551724137934" style="stroke:grey;fill:grey;"/><polygon points="80.60000000000001,240.2834482758621 99.50000000000001,251.14551724137934 99.50000000000001,272.86965517241384 80.60000000000001,283.73172413793105 61.7,272.86965517241384 61.7,251.14551724137934" style="stroke:grey;fill:grey;"/><polygon points="120.4,240.2834482758621 139.3,251.14551724137934 139.3,272.86965517241384 120.4,283.73172413793105 101.5,272.86965517241384 101.5,251.14551724137934" style="stroke:grey;fill:grey;"/><polygon points="160.20000000000002,240.2834482758621 179.10000000000002,251.14551724137934 179.10000000000002,272.86965517241384 160.20000000000002,283.73172413793105 141.3,272.86965517241384 141.3,251.14551724137934" style="stroke:grey;fill:grey;"/><polygon points="200.00000000000003,240.2834482758621 218.90000000000003,251.14551724137934 218.90000000000003,272.86965517241384 200.00000000000003,283.73172413793105 181.10000000000002,272.86965517241384 181.10000000000002,251.14551724137934" style="stroke:grey;fill:grey;"/><polygon points="239.80000000000004,240.2834482758621 258.70000000000005,251.14551724137934 258.70000000000005,272.86965517241384 239.80000000000004,283.73172413793105 220.90000000000003,272.86965517241384 220.90000000000003,251.14551724137934" style="stroke:grey;fill:grey;"/><polygon points="279.6,240.2834482758621 298.5,251.14551724137934 298.5,272.86965517241384 279.6,283.73172413793105 260.70000000000005,272.86965517241384 260.70000000000005,251.14551724137934" style="stroke:grey;fill:grey;"/><polygon points="319.40000000000003,240.2834482758621 338.3,251.14551724137934 338.3,272.86965517241384 319.40000000000003,283.73172413793105 300.50000000000006,272.86965517241384 300.50000000000006,251.14551724137934" style="stroke:grey;fill:grey;"/><polygon points="359.20000000000005,240.2834482758621 378.1,251.14551724137934 378.1,272.86965517241384 359.20000000000005,283.73172413793105 340.30000000000007,272.86965517241384 340.30000000000007,251.14551724137934" style="stroke:grey;fill:grey;"/><polygon points="399.00000000000006,240.2834482758621 417.90000000000003,251.14551724137934 417.90000000000003,272.86965517241384 399.00000000000006,283.73172413793105 380.1000000000001,272.86965517241384 380.1000000000001,251.14551724137934" style="stroke:grey;fill:grey;"/><polygon points="20.900000000000002,274.60965517241385 39.800000000000004,285.47172413793106 39.800000000000004,307.1958620689656 20.900000000000002,318.0579310344828 2.0,307.1958620689656 2.0,285.47172413793106" style="stroke:grey;fill:grey;"/><polygon points="60.7,274.60965517241385 79.60000000000001,285.47172413793106 79.60000000000001,307.1958620689656 60.7,318.0579310344828 41.8,307.1958620689656 41.8,285.47172413793106" style="stroke:grey;fill:grey;"/><polygon points="100.5,274.60965517241385 119.4,285.47172413793106 119.4,307.1958620689656 100.5,318.0579310344828 81.6,307.1958620689656 81.6,285.47172413793106" style="stroke:grey;fill:grey;"/><polygon points="140.3,274.60965517241385 159.20000000000002,285.47172413793106 159.20000000000002,307.1958620689656 140.3,318.0579310344828 121.4,307.1958620689656 121.4,285.47172413793106" style="stroke:grey;fill:grey;"/><polygon points="180.10000000000002,274.60965517241385 199.00000000000003,285.47172413793106 199.00000000000003,307.1958620689656 180.10000000000002,318.0579310344828 161.20000000000002,307.1958620689656 161.20000000000002,285.47172413793106" style="stroke:grey;fill:grey;"/><polygon points="219.90000000000003,274.60965517241385 238.80000000000004,285.47172413793106 238.80000000000004,307.1958620689656 219.90000000000003,318.0579310344828 201.00000000000003,307.1958620689656 201.00000000000003,285.47172413793106" style="stroke:grey;fill:grey;"/><polygon points="259.70000000000005,274.60965517241385 278.6,285.47172413793106 278.6,307.1958620689656 259.70000000000005,318.0579310344828 240.80000000000004,307.1958620689656 240.80000000000004,285.47172413793106" style="stroke:grey;fill:grey;"/><polygon points="299.50000000000006,274.60965517241385 318.40000000000003,285.47172413793106 318.40000000000003,307.1958620689656 299.50000000000006,318.0579310344828 280.6000000000001,307.1958620689656 280.6000000000001,285.47172413793106" style="stroke:grey;fill:grey;"/><polygon points="339.30000000000007,274.60965517241385 358.20000000000005,285.47172413793106 358.20000000000005,307.1958620689656 339.30000000000007,318.0579310344828 320.4000000000001,307.1958620689656 320.4000000000001,285.47172413793106" style="stroke:grey;fill:grey;"/><polygon points="379.1000000000001,274.60965517241385 398.00000000000006,285.47172413793106 398.00000000000006,307.1958620689656 379.1000000000001,318.0579310344828 360.2000000000001,307.1958620689656 360.2000000000001,285.47172413793106" style="stroke:grey;fill:grey;"/><polygon points="40.800000000000004,308.9358620689656 59.7,319.7979310344828 59.7,341.52206896551735 40.800000000000004,352.38413793103456 21.900000000000002,341.52206896551735 21.900000000000002,319.7979310344828" style="stroke:grey;fill:grey;"/><polygon points="80.60000000000001,308.9358620689656 99.50000000000001,319.7979310344828 99.50000000000001,341.52206896551735 80.60000000000001,352.38413793103456 61.7,341.52206896551735 61.7,319.7979310344828" style="stroke:grey;fill:grey;"/><polygon points="120.4,308.9358620689656 139.3,319.7979310344828 139.3,341.52206896551735 120.4,352.38413793103456 101.5,341.52206896551735 101.5,319.7979310344828" style="stroke:grey;fill:grey;"/><polygon points="160.20000000000002,308.9358620689656 179.10000000000002,319.7979310344828 179.10000000000002,341.52206896551735 160.20000000000002,352.38413793103456 141.3,341.52206896551735 141.3,319.7979310344828" style="stroke:grey;fill:grey;"/><polygon points="200.00000000000003,308.9358620689656 218.90000000000003,319.7979310344828 218.90000000000003,341.52206896551735 200.00000000000003,352.38413793103456 181.10000000000002,341.52206896551735 181.10000000000002,319.7979310344828" style="stroke:grey;fill:grey;"/><polygon points="239.80000000000004,308.9358620689656 258.70000000000005,319.7979310344828 258.70000000000005,341.52206896551735 239.80000000000004,352.38413793103456 220.90000000000003,341.52206896551735 220.90000000000003,319.7979310344828" style="stroke:grey;fill:grey;"/><polygon points="279.6,308.9358620689656 298.5,319.7979310344828 298.5,341.52206896551735 279.6,352.38413793103456 260.70000000000005,341.52206896551735 260.70000000000005,319.7979310344828" style="stroke:grey;fill:grey;"/><polygon points="319.40000000000003,308.9358620689656 338.3,319.7979310344828 338.3,341.52206896551735 319.40000000000003,352.38413793103456 300.50000000000006,341.52206896551735 300.50000000000006,319.7979310344828" style="stroke:grey;fill:grey;"/><polygon points="359.20000000000005,308.9358620689656 378.1,319.7979310344828 378.1,341.52206896551735 359.20000000000005,352.38413793103456 340.30000000000007,341.52206896551735 340.30000000000007,319.7979310344828" style="stroke:grey;fill:grey;"/><polygon points="399.00000000000006,308.9358620689656 417.90000000000003,319.7979310344828 417.90000000000003,341.52206896551735 399.00000000000006,352.38413793103456 380.1000000000001,341.52206896551735 380.1000000000001,319.7979310344828" style="stroke:grey;fill:grey;"/><polygon points="20.900000000000002,343.26206896551736 39.800000000000004,354.12413793103457 39.800000000000004,375.8482758620691 20.900000000000002,386.7103448275863 2.0,375.8482758620691 2.0,354.12413793103457" style="stroke:grey;fill:grey;"/><polygon points="60.7,343.26206896551736 79.60000000000001,354.12413793103457 79.60000000000001,375.8482758620691 60.7,386.7103448275863 41.8,375.8482758620691 41.8,354.12413793103457" style="stroke:grey;fill:grey;"/><polygon points="100.5,343.26206896551736 119.4,354.12413793103457 119.4,375.8482758620691 100.5,386.7103448275863 81.6,375.8482758620691 81.6,354.12413793103457" style="stroke:grey;fill:grey;"/><polygon points="140.3,343.26206896551736 159.20000000000002,354.12413793103457 159.20000000000002,375.8482758620691 140.3,386.7103448275863 121.4,375.8482758620691 121.4,354.12413793103457" style="stroke:grey;fill:grey;"/><polygon points="180.10000000000002,343.26206896551736 199.00000000000003,354.12413793103457 199.00000000000003,375.8482758620691 180.10000000000002,386.7103448275863 161.20000000000002,375.8482758620691 161.20000000000002,354.12413793103457" style="stroke:grey;fill:grey;"/><polygon points="219.90000000000003,343.26206896551736 238.80000000000004,354.12413793103457 238.80000000000004,375.8482758620691 219.90000000000003,386.7103448275863 201.00000000000003,375.8482758620691 201.00000000000003,354.12413793103457" style="stroke:grey;fill:grey;"/><polygon points="259.70000000000005,343.26206896551736 278.6,354.12413793103457 278.6,375.8482758620691 259.70000000000005,386.7103448275863 240.80000000000004,375.8482758620691 240.80000000000004,354.12413793103457" style="stroke:grey;fill:grey;"/><polygon points="299.50000000000006,343.26206896551736 318.40000000000003,354.12413793103457 318.40000000000003,375.8482758620691 299.50000000000006,386.7103448275863 280.6000000000001,375.8482758620691 280.6000000000001,354.12413793103457" style="stroke:grey;fill:grey;"/><polygon points="339.30000000000007,343.26206896551736 358.20000000000005,354.12413793103457 358.20000000000005,375.8482758620691 339.30000000000007,386.7103448275863 320.4000000000001,375.8482758620691 320.4000000000001,354.12413793103457" style="stroke:grey;fill:grey;"/><polygon points="379.1000000000001,343.26206896551736 398.00000000000006,354.12413793103457 398.00000000000006,375.8482758620691 379.1000000000001,386.7103448275863 360.2000000000001,375.8482758620691 360.2000000000001,354.12413793103457" style="stroke:grey;fill:grey;"/><polygon points="40.800000000000004,377.5882758620691 59.7,388.4503448275863 59.7,410.17448275862085 40.800000000000004,421.03655172413806 21.900000000000002,410.17448275862085 21.900000000000002,388.4503448275863" style="stroke:grey;fill:grey;"/><polygon points="80.60000000000001,377.5882758620691 99.50000000000001,388.4503448275863 99.50000000000001,410.17448275862085 80.60000000000001,421.03655172413806 61.7,410.17448275862085 61.7,388.4503448275863" style="stroke:grey;fill:grey;"/><polygon points="120.4,377.5882758620691 139.3,388.4503448275863 139.3,410.17448275862085 120.4,421.03655172413806 101.5,410.17448275862085 101.5,388.4503448275863" style="stroke:grey;fill:grey;"/><polygon points="160.20000000000002,377.5882758620691 179.10000000000002,388.4503448275863 179.10000000000002,410.17448275862085 160.20000000000002,421.03655172413806 141.3,410.17448275862085 141.3,388.4503448275863" style="stroke:grey;fill:grey;"/><polygon points="200.00000000000003,377.5882758620691 218.90000000000003,388.4503448275863 218.90000000000003,410.17448275862085 200.00000000000003,421.03655172413806 181.10000000000002,410.17448275862085 181.10000000000002,388.4503448275863" style="stroke:grey;fill:grey;"/><polygon points="239.80000000000004,377.5882758620691 258.70000000000005,388.4503448275863 258.70000000000005,410.17448275862085 239.80000000000004,421.03655172413806 220.90000000000003,410.17448275862085 220.90000000000003,388.4503448275863" style="stroke:grey;fill:grey;"/><polygon points="279.6,377.5882758620691 298.5,388.4503448275863 298.5,410.17448275862085 279.6,421.03655172413806 260.70000000000005,410.17448275862085 260.70000000000005,388.4503448275863" style="stroke:grey;fill:grey;"/><polygon points="319.40000000000003,377.5882758620691 338.3,388.4503448275863 338.3,410.17448275862085 319.40000000000003,421.03655172413806 300.50000000000006,410.17448275862085 300.50000000000006,388.4503448275863" style="stroke:grey;fill:grey;"/><polygon points="359.20000000000005,377.5882758620691 378.1,388.4503448275863 378.1,410.17448275862085 359.20000000000005,421.03655172413806 340.30000000000007,410.17448275862085 340.30000000000007,388.4503448275863" style="stroke:grey;fill:grey;"/><polygon points="399.00000000000006,377.5882758620691 417.90000000000003,388.4503448275863 417.90000000000003,410.17448275862085 399.00000000000006,421.03655172413806 380.1000000000001,410.17448275862085 380.1000000000001,388.4503448275863" style="stroke:grey;fill:grey;"/></svg>
