<?xml version="1.0" standalone="no"?>
<!DOCTYPE svg PUBLIC "-//W3C//DTD SVG 1.1//EN"
  "http://www.w3.org/Graphics/SVG/1.1/DTD/svg11.dtd">
<svg width="347.56" height="400" version="1.1"
  xmlns="http://www.w3.org/2000/svg">
<polygon points="44.195,2.0 86.39,26.25 86.39,74.75 44.195,99.0 2.0,74.75 2.0,26.25" style="stroke:grey;fill:grey;"/><polygon points="41.16375,45.225625 47.22625,45.225625 50.2575,50.5 47.22625,55.774375 41.16375,55.774375 38.1325,50.5" style="stroke:black;fill:black;"/><polygon points="41.16375,28.614375000000003 47.22625,28.614375000000003 50.2575,33.88875 47.22625,39.163125 41.16375,39.163125 38.1325,33.88875" style="stroke:black;fill:black;"/><polygon points="55.6155375,36.92 61.6780375,36.92 64.7092875,42.194375 61.6780375,47.46875 55.6155375,47.46875 52.5842875,42.194375" style="stroke:black;fill:black;"/><polygon points="55.6155375,53.53125 61.6780375,53.53125 64.7092875,58.805625 61.6780375,64.08 55.6155375,64.08 52.5842875,58.805625" style="stroke:black;fill:black;"/><polygon points="41.16375,61.836875 47.22625,61.836875 50.2575,67.11125 47.22625,72.385625 41.16375,72.385625 38.1325,67.11125" style="stroke:black;fill:black;"/><polygon points="26.711962500000002,53.53125 32.7744625,53.53125 35.8057125,58.805625 32.7744625,64.08 26.711962500000002,64.08 23.680712500000002,58.805625" style="stroke:black;fill:black;"/><polygon points="26.711962500000002,36.92 32.7744625,36.92 35.8057125,42.194375 32.7744625,47.46875 26.711962500000002,47.46875 23.680712500000002,42.194375" style="stroke:black;fill:black;"/><polygon points="41.16375,12.003125000000004 47.22625,12.003125000000004 50.2575,17.277500000000003 47.22625,22.551875000000003 41.16375,22.551875000000003 38.1325,17.277500000000003" style="stroke:black;fill:black;"/><polygon points="55.9259375,20.308750000000003 61.9884375,20.308750000000003 65.0196875,25.583125000000003 61.9884375,30.8575 55.9259375,30.8575 52.8946875,25.583125000000003" style="stroke:black;fill:black;"/><polygon points="70.067325,28.614375000000003 76.129825,28.614375000000003 79.161075,33.88875 76.129825,39.163125 70.067325,39.163125 67.036075,33.88875" style="stroke:black;fill:black;"/><polygon points="70.067325,45.225625 76.129825,45.225625 79.161075,50.5 76.129825,55.774375 70.067325,55.774375 67.036075,50.5" style="stroke:black;fill:black;"/><polygon points="70.067325,61.836875 76.129825,61.836875 79.161075,67.11125 76.129825,72.385625 70.067325,72.385625 67.036075,67.11125" style="stroke:black;fill:black;"/><polygon points="55.3051375,70.1425 61.3676375,70.1425 64.3988875,75.416875 61.3676375,80.69125000000001 55.3051375,80.69125000000001 52.2738875,75.416875" style="stroke:black;fill:black;"/><polygon points="41.16375,78.44812499999999 47.22625,78.44812499999999 50.2575,83.7225 47.22625,88.996875 41.16375,88.996875 38.1325,83.7225" style="stroke:black;fill:black;"/><polygon points="26.4015625,70.1425 32.4640625,70.1425 35.4953125,75.416875 32.4640625,80.69125000000001 26.4015625,80.69125000000001 23.3703125,75.416875" style="stroke:black;fill:black;"/><polygon points="12.260175000000004,61.836875 18.322675000000004,61.836875 21.353925000000004,67.11125 18.322675000000004,72.385625 12.260175000000004,72.385625 9.228925000000004,67.11125" style="stroke:black;fill:black;"/><polygon points="12.260175000000004,45.225625 18.322675000000004,45.225625 21.353925000000004,50.5 18.322675000000004,55.774375 12.260175000000004,55.774375 9.228925000000004,50.5" style="stroke:black;fill:black;"/><polygon points="12.260175000000004,28.614375000000003 18.322675000000004,28.614375000000003 21.353925000000004,33.88875 18.322675000000004,39.163125 12.260175000000004,39.163125 9.228925000000004,33.88875" style="stroke:black;fill:black;"/><polygon points="27.022362500000003,20.308750000000003 33.0848625,20.308750000000003 36.1161125,25.583125000000003 33.0848625,30.8575 27.022362500000003,30.8575 23.991112500000003,25.583125000000003" style="stroke:black;fill:black;"/><polygon points="130.585,2.0 172.78,26.25 172.78,74.75 130.585,99.0 88.39000000000001,74.75 88.39000000000001,26.25" style="stroke:grey;fill:grey;"/><polygon points="127.55375000000001,45.225625 133.61625,45.225625 136.6475,50.5 133.61625,55.774375 127.55375000000001,55.774375 124.52250000000001,50.5" style="stroke:black;fill:black;"/><polygon points="127.55375000000001,28.614375000000003 133.61625,28.614375000000003 136.6475,33.88875 133.61625,39.163125 127.55375000000001,39.163125 124.52250000000001,33.88875" style="stroke:black;fill:black;"/><polygon points="142.0055375,36.92 148.0680375,36.92 151.0992875,42.194375 148.0680375,47.46875 142.0055375,47.46875 138.9742875,42.194375" style="stroke:black;fill:black;"/><polygon points="142.0055375,53.53125 148.0680375,53.53125 151.0992875,58.805625 148.0680375,64.08 142.0055375,64.08 138.9742875,58.805625" style="stroke:black;fill:black;"/><polygon points="127.55375000000001,61.836875 133.61625,61.836875 136.6475,67.11125 133.61625,72.385625 127.55375000000001,72.385625 124.52250000000001,67.11125" style="stroke:black;fill:black;"/><polygon points="113.10196250000001,53.53125 119.16446250000001,53.53125 122.19571250000001,58.805625 119.16446250000001,64.08 113.10196250000001,64.08 110.07071250000001,58.805625" style="stroke:black;fill:black;"/><polygon points="113.10196250000001,36.92 119.16446250000001,36.92 122.19571250000001,42.194375 119.16446250000001,47.46875 113.10196250000001,47.46875 110.07071250000001,42.194375" style="stroke:black;fill:black;"/><polygon points="127.55375000000001,12.003125000000004 133.61625,12.003125000000004 136.6475,17.277500000000003 133.61625,22.551875000000003 127.55375000000001,22.551875000000003 124.52250000000001,17.277500000000003" style="stroke:black;fill:black;"/><polygon points="142.31593750000002,20.308750000000003 148.37843750000002,20.308750000000003 151.40968750000002,25.583125000000003 148.37843750000002,30.8575 142.31593750000002,30.8575 139.28468750000002,25.583125000000003" style="stroke:black;fill:black;"/><polygon points="156.457325,28.614375000000003 162.519825,28.614375000000003 165.551075,33.88875 162.519825,39.163125 156.457325,39.163125 153.426075,33.88875" style="stroke:black;fill:black;"/><polygon points="156.457325,45.225625 162.519825,45.225625 165.551075,50.5 162.519825,55.774375 156.457325,55.774375 153.426075,50.5" style="stroke:black;fill:black;"/><polygon points="156.457325,61.836875 162.519825,61.836875 165.551075,67.11125 162.519825,72.385625 156.457325,72.385625 153.426075,67.11125" style="stroke:black;fill:black;"/><polygon points="141.6951375,70.1425 147.7576375,70.1425 150.7888875,75.416875 147.7576375,80.69125000000001 141.6951375,80.69125000000001 138.6638875,75.416875" style="stroke:black;fill:black;"/><polygon points="127.55375000000001,78.44812499999999 133.61625,78.44812499999999 136.6475,83.7225 133.61625,88.996875 127.55375000000001,88.996875 124.52250000000001,83.7225" style="stroke:black;fill:black;"/><polygon points="112.79156250000001,70.1425 118.85406250000001,70.1425 121.88531250000001,75.416875 118.85406250000001,80.69125000000001 112.79156250000001,80.69125000000001 109.76031250000001,75.416875" style="stroke:black;fill:black;"/><polygon points="98.65017500000002,61.836875 104.71267500000002,61.836875 107.74392500000002,67.11125 104.71267500000002,72.385625 98.65017500000002,72.385625 95.61892500000002,67.11125" style="stroke:black;fill:black;"/><polygon points="98.65017500000002,45.225625 104.71267500000002,45.225625 107.74392500000002,50.5 104.71267500000002,55.774375 98.65017500000002,55.774375 95.61892500000002,50.5" style="stroke:black;fill:black;"/><polygon points="98.65017500000002,28.614375000000003 104.71267500000002,28.614375000000003 107.74392500000002,33.88875 104.71267500000002,39.163125 98.65017500000002,39.163125 95.61892500000002,33.88875" style="stroke:black;fill:black;"/><polygon points="113.41236250000001,20.308750000000003 119.47486250000001,20.308750000000003 122.50611250000001,25.583125000000003 119.47486250000001,30.8575 113.41236250000001,30.8575 110.38111250000001,25.583125000000003" style="stroke:black;fill:black;"/><polygon points="216.97500000000002,2.0 259.17,26.25 259.17,74.75 216.97500000000002,99.0 174.78000000000003,74.75 174.78000000000003,26.25" style="stroke:grey;fill:grey;"/><polygon points="213.94375000000002,45.225625 220.00625000000002,45.225625 223.03750000000002,50.5 220.00625000000002,55.774375 213.94375000000002,55.774375 210.91250000000002,50.5" style="stroke:black;fill:black;"/><polygon points="213.94375000000002,28.614375000000003 220.00625000000002,28.614375000000003 223.03750000000002,33.88875 220.00625000000002,39.163125 213.94375000000002,39.163125 210.91250000000002,33.88875" style="stroke:black;fill:black;"/><polygon points="228.39553750000002,36.92 234.45803750000002,36.92 237.48928750000002,42.194375 234.45803750000002,47.46875 228.39553750000002,47.46875 225.36428750000002,42.194375" style="stroke:black;fill:black;"/><polygon points="228.39553750000002,53.53125 234.45803750000002,53.53125 237.48928750000002,58.805625 234.45803750000002,64.08 228.39553750000002,64.08 225.36428750000002,58.805625" style="stroke:black;fill:black;"/><polygon points="213.94375000000002,61.836875 220.00625000000002,61.836875 223.03750000000002,67.11125 220.00625000000002,72.385625 213.94375000000002,72.385625 210.91250000000002,67.11125" style="stroke:black;fill:black;"/><polygon points="199.49196250000003,53.53125 205.55446250000003,53.53125 208.58571250000003,58.805625 205.55446250000003,64.08 199.49196250000003,64.08 196.46071250000003,58.805625" style="stroke:black;fill:black;"/><polygon points="199.49196250000003,36.92 205.55446250000003,36.92 208.58571250000003,42.194375 205.55446250000003,47.46875 199.49196250000003,47.46875 196.46071250000003,42.194375" style="stroke:black;fill:black;"/><polygon points="213.94375000000002,12.003125000000004 220.00625000000002,12.003125000000004 223.03750000000002,17.277500000000003 220.00625000000002,22.551875000000003 213.94375000000002,22.551875000000003 210.91250000000002,17.277500000000003" style="stroke:black;fill:black;"/><polygon points="228.70593750000003,20.308750000000003 234.76843750000003,20.308750000000003 237.79968750000003,25.583125000000003 234.76843750000003,30.8575 228.70593750000003,30.8575 225.67468750000003,25.583125000000003" style="stroke:black;fill:black;"/><polygon points="242.847325,28.614375000000003 248.909825,28.614375000000003 251.941075,33.88875 248.909825,39.163125 242.847325,39.163125 239.816075,33.88875" style="stroke:black;fill:black;"/><polygon points="242.847325,45.225625 248.909825,45.225625 251.941075,50.5 248.909825,55.774375 242.847325,55.774375 239.816075,50.5" style="stroke:black;fill:black;"/><polygon points="242.847325,61.836875 248.909825,61.836875 251.941075,67.11125 248.909825,72.385625 242.847325,72.385625 239.816075,67.11125" style="stroke:black;fill:black;"/><polygon points="228.0851375,70.1425 234.1476375,70.1425 237.1788875,75.416875 234.1476375,80.69125000000001 228.0851375,80.69125000000001 225.0538875,75.416875" style="stroke:black;fill:black;"/><polygon points="213.94375000000002,78.44812499999999 220.00625000000002,78.44812499999999 223.03750000000002,83.7225 220.00625000000002,88.996875 213.94375000000002,88.996875 210.91250000000002,83.7225" style="stroke:black;fill:black;"/><polygon points="199.1815625,70.1425 205.2440625,70.1425 208.2753125,75.416875 205.2440625,80.69125000000001 199.1815625,80.69125000000001 196.1503125,75.416875" style="stroke:black;fill:black;"/><polygon points="185.04017500000003,61.836875 191.10267500000003,61.836875 194.13392500000003,67.11125 191.10267500000003,72.385625 185.04017500000003,72.385625 182.00892500000003,67.11125" style="stroke:black;fill:black;"/><polygon points="185.04017500000003,45.225625 191.10267500000003,45.225625 194.13392500000003,50.5 191.10267500000003,55.774375 185.04017500000003,55.774375 182.00892500000003,50.5" style="stroke:black;fill:black;"/><polygon points="185.04017500000003,28.614375000000003 191.10267500000003,28.614375000000003 194.13392500000003,33.88875 191.10267500000003,39.163125 185.04017500000003,39.163125 182.00892500000003,33.88875" style="stroke:black;fill:black;"/><polygon points="199.80236250000004,20.308750000000003 205.86486250000004,20.308750000000003 208.89611250000004,25.583125000000003 205.86486250000004,30.8575 199.80236250000004,30.8575 196.77111250000004,25.583125000000003" style="stroke:black;fill:black;"/><polygon points="303.365,2.0 345.56,26.25 345.56,74.75 303.365,99.0 261.17,74.75 261.17,26.25" style="stroke:grey;fill:grey;"/><polygon points="300.33375,45.225625 306.39625,45.225625 309.4275,50.5 306.39625,55.774375 300.33375,55.774375 297.3025,50.5" style="stroke:black;fill:black;"/><polygon points="300.33375,28.614375000000003 306.39625,28.614375000000003 309.4275,33.88875 306.39625,39.163125 300.33375,39.163125 297.3025,33.88875" style="stroke:black;fill:black;"/><polygon points="314.78553750000003,36.92 320.84803750000003,36.92 323.87928750000003,42.194375 320.84803750000003,47.46875 314.78553750000003,47.46875 311.75428750000003,42.194375" style="stroke:black;fill:black;"/><polygon points="314.78553750000003,53.53125 320.84803750000003,53.53125 323.87928750000003,58.805625 320.84803750000003,64.08 314.78553750000003,64.08 311.75428750000003,58.805625" style="stroke:black;fill:black;"/><polygon points="300.33375,61.836875 306.39625,61.836875 309.4275,67.11125 306.39625,72.385625 300.33375,72.385625 297.3025,67.11125" style="stroke:black;fill:black;"/><polygon points="285.8819625,53.53125 291.9444625,53.53125 294.9757125,58.805625 291.9444625,64.08 285.8819625,64.08 282.8507125,58.805625" style="stroke:black;fill:black;"/><polygon points="285.8819625,36.92 291.9444625,36.92 294.9757125,42.194375 291.9444625,47.46875 285.8819625,47.46875 282.8507125,42.194375" style="stroke:black;fill:black;"/><polygon points="300.33375,12.003125000000004 306.39625,12.003125000000004 309.4275,17.277500000000003 306.39625,22.551875000000003 300.33375,22.551875000000003 297.3025,17.277500000000003" style="stroke:black;fill:black;"/><polygon points="315.0959375,20.308750000000003 321.1584375,20.308750000000003 324.1896875,25.583125000000003 321.1584375,30.8575 315.0959375,30.8575 312.0646875,25.583125000000003" style="stroke:black;fill:black;"/><polygon points="329.237325,28.614375000000003 335.299825,28.614375000000003 338.331075,33.88875 335.299825,39.163125 329.237325,39.163125 326.206075,33.88875" style="stroke:black;fill:black;"/><polygon points="329.237325,45.225625 335.299825,45.225625 338.331075,50.5 335.299825,55.774375 329.237325,55.774375 326.206075,50.5" style="stroke:black;fill:black;"/><polygon points="329.237325,61.836875 335.299825,61.836875 338.331075,67.11125 335.299825,72.385625 329.237325,72.385625 326.206075,67.11125" style="stroke:black;fill:black;"/><polygon points="314.4751375,70.1425 320.5376375,70.1425 323.5688875,75.416875 320.5376375,80.69125000000001 314.4751375,80.69125000000001 311.4438875,75.416875" style="stroke:black;fill:black;"/><polygon points="300.33375,78.44812499999999 306.39625,78.44812499999999 309.4275,83.7225 306.39625,88.996875 300.33375,88.996875 297.3025,83.7225" style="stroke:black;fill:black;"/><polygon points="285.5715625,70.1425 291.6340625,70.1425 294.6653125,75.416875 291.6340625,80.69125000000001 285.5715625,80.69125000000001 282.5403125,75.416875" style="stroke:black;fill:black;"/><polygon points="271.430175,61.836875 277.492675,61.836875 280.523925,67.11125 277.492675,72.385625 271.430175,72.385625 268.398925,67.11125" style="stroke:black;fill:black;"/><polygon points="271.430175,45.225625 277.492675,45.225625 280.523925,50.5 277.492675,55.774375 271.430175,55.774375 268.398925,50.5" style="stroke:black;fill:black;"/><polygon points="271.430175,28.614375000000003 277.492675,28.614375000000003 280.523925,33.88875 277.492675,39.163125 271.430175,39.163125 268.398925,33.88875" style="stroke:black;fill:black;"/><polygon points="286.1923625,20.308750000000003 292.2548625,20.308750000000003 295.2861125,25.583125000000003 292.2548625,30.8575 286.1923625,30.8575 283.1611125,25.583125000000003" style="stroke:black;fill:black;"/><polygon points="87.39,76.49 129.585,100.74 129.585,149.24 87.39,173.49 45.195,149.24 45.195,100.74" style="stroke:grey;fill:grey;"/><polygon points="84.35875,119.71562499999999 90.42125,119.71562499999999 93.4525,124.99 90.42125,130.264375 84.35875,130.264375 81.3275,124.99" style="stroke:black;fill:black;"/><polygon points="84.35875,103.10437499999999 90.42125,103.10437499999999 93.4525,108.37875 90.42125,113.653125 84.35875,113.653125 81.3275,108.37875" style="stroke:black;fill:black;"/><polygon points="98.8105375,111.40999999999998 104.8730375,111.40999999999998 107.9042875,116.68437499999999 104.8730375,121.95875 98.8105375,121.95875 95.7792875,116.68437499999999" style="stroke:black;fill:black;"/><polygon points="98.8105375,128.02125 104.8730375,128.02125 107.9042875,133.295625 104.8730375,138.57 98.8105375,138.57 95.7792875,133.295625" style="stroke:black;fill:black;"/><polygon points="84.35875,136.326875 90.42125,136.326875 93.4525,141.60125 90.42125,146.87562499999999 84.35875,146.87562499999999 81.3275,141.60125" style="stroke:black;fill:black;"/><polygon points="69.9069625,128.02125 75.9694625,128.02125 79.0007125,133.295625 75.9694625,138.57 69.9069625,138.57 66.8757125,133.295625" style="stroke:black;fill:black;"/><polygon points="69.9069625,111.40999999999998 75.9694625,111.40999999999998 79.0007125,116.68437499999999 75.9694625,121.95875 69.9069625,121.95875 66.8757125,116.68437499999999" style="stroke:black;fill:black;"/><polygon points="84.35875,86.49312499999999 90.42125,86.49312499999999 93.4525,91.7675 90.42125,97.041875 84.35875,97.041875 81.3275,91.7675" style="stroke:black;fill:black;"/><polygon points="99.1209375,94.79875 105.1834375,94.79875 108.2146875,100.073125 105.1834375,105.34750000000001 99.1209375,105.34750000000001 96.0896875,100.073125" style="stroke:black;fill:black;"/><polygon points="113.262325,103.10437499999999 119.324825,103.10437499999999 122.356075,108.37875 119.324825,113.653125 113.262325,113.653125 110.231075,108.37875" style="stroke:black;fill:black;"/><polygon points="113.262325,119.71562499999999 119.324825,119.71562499999999 122.356075,124.99 119.324825,130.264375 113.262325,130.264375 110.231075,124.99" style="stroke:black;fill:black;"/><polygon points="113.262325,136.326875 119.324825,136.326875 122.356075,141.60125 119.324825,146.87562499999999 113.262325,146.87562499999999 110.231075,141.60125" style="stroke:black;fill:black;"/><polygon points="98.50013750000001,144.6325 104.56263750000001,144.6325 107.59388750000001,149.90687499999999 104.56263750000001,155.18124999999998 98.50013750000001,155.18124999999998 95.46888750000001,149.90687499999999" style="stroke:black;fill:black;"/><polygon points="84.35875,152.93812499999999 90.42125,152.93812499999999 93.4525,158.21249999999998 90.42125,163.48687499999997 84.35875,163.48687499999997 81.3275,158.21249999999998" style="stroke:black;fill:black;"/><polygon points="69.5965625,144.6325 75.6590625,144.6325 78.6903125,149.90687499999999 75.6590625,155.18124999999998 69.5965625,155.18124999999998 66.5653125,149.90687499999999" style="stroke:black;fill:black;"/><polygon points="55.455175000000004,136.326875 61.517675000000004,136.326875 64.548925,141.60125 61.517675000000004,146.87562499999999 55.455175000000004,146.87562499999999 52.423925000000004,141.60125" style="stroke:black;fill:black;"/><polygon points="55.455175000000004,119.71562499999999 61.517675000000004,119.71562499999999 64.548925,124.99 61.517675000000004,130.264375 55.455175000000004,130.264375 52.423925000000004,124.99" style="stroke:black;fill:black;"/><polygon points="55.455175000000004,103.10437499999999 61.517675000000004,103.10437499999999 64.548925,108.37875 61.517675000000004,113.653125 55.455175000000004,113.653125 52.423925000000004,108.37875" style="stroke:black;fill:black;"/><polygon points="70.21736250000001,94.79875 76.27986250000001,94.79875 79.31111250000001,100.073125 76.27986250000001,105.34750000000001 70.21736250000001,105.34750000000001 67.18611250000001,100.073125" style="stroke:black;fill:black;"/><polygon points="173.78,76.49 215.975,100.74 215.975,149.24 173.78,173.49 131.585,149.24 131.585,100.74" style="stroke:grey;fill:grey;"/><polygon points="170.74875,119.71562499999999 176.81125,119.71562499999999 179.8425,124.99 176.81125,130.264375 170.74875,130.264375 167.7175,124.99" style="stroke:black;fill:black;"/><polygon points="170.74875,103.10437499999999 176.81125,103.10437499999999 179.8425,108.37875 176.81125,113.653125 170.74875,113.653125 167.7175,108.37875" style="stroke:black;fill:black;"/><polygon points="185.2005375,111.40999999999998 191.2630375,111.40999999999998 194.2942875,116.68437499999999 191.2630375,121.95875 185.2005375,121.95875 182.1692875,116.68437499999999" style="stroke:black;fill:black;"/><polygon points="185.2005375,128.02125 191.2630375,128.02125 194.2942875,133.295625 191.2630375,138.57 185.2005375,138.57 182.1692875,133.295625" style="stroke:black;fill:black;"/><polygon points="170.74875,136.326875 176.81125,136.326875 179.8425,141.60125 176.81125,146.87562499999999 170.74875,146.87562499999999 167.7175,141.60125" style="stroke:black;fill:black;"/><polygon points="156.2969625,128.02125 162.3594625,128.02125 165.3907125,133.295625 162.3594625,138.57 156.2969625,138.57 153.2657125,133.295625" style="stroke:black;fill:black;"/><polygon points="156.2969625,111.40999999999998 162.3594625,111.40999999999998 165.3907125,116.68437499999999 162.3594625,121.95875 156.2969625,121.95875 153.2657125,116.68437499999999" style="stroke:black;fill:black;"/><polygon points="170.74875,86.49312499999999 176.81125,86.49312499999999 179.8425,91.7675 176.81125,97.041875 170.74875,97.041875 167.7175,91.7675" style="stroke:black;fill:black;"/><polygon points="185.5109375,94.79875 191.5734375,94.79875 194.6046875,100.073125 191.5734375,105.34750000000001 185.5109375,105.34750000000001 182.4796875,100.073125" style="stroke:black;fill:black;"/><polygon points="199.652325,103.10437499999999 205.714825,103.10437499999999 208.746075,108.37875 205.714825,113.653125 199.652325,113.653125 196.621075,108.37875" style="stroke:black;fill:black;"/><polygon points="199.652325,119.71562499999999 205.714825,119.71562499999999 208.746075,124.99 205.714825,130.264375 199.652325,130.264375 196.621075,124.99" style="stroke:black;fill:black;"/><polygon points="199.652325,136.326875 205.714825,136.326875 208.746075,141.60125 205.714825,146.87562499999999 199.652325,146.87562499999999 196.621075,141.60125" style="stroke:black;fill:black;"/><polygon points="184.89013749999998,144.6325 190.95263749999998,144.6325 193.98388749999998,149.90687499999999 190.95263749999998,155.18124999999998 184.89013749999998,155.18124999999998 181.85888749999998,149.90687499999999" style="stroke:black;fill:black;"/><polygon points="170.74875,152.93812499999999 176.81125,152.93812499999999 179.8425,158.21249999999998 176.81125,163.48687499999997 170.74875,163.48687499999997 167.7175,158.21249999999998" style="stroke:black;fill:black;"/><polygon points="155.9865625,144.6325 162.0490625,144.6325 165.0803125,149.90687499999999 162.0490625,155.18124999999998 155.9865625,155.18124999999998 152.9553125,149.90687499999999" style="stroke:black;fill:black;"/><polygon points="141.845175,136.326875 147.907675,136.326875 150.938925,141.60125 147.907675,146.87562499999999 141.845175,146.87562499999999 138.813925,141.60125" style="stroke:black;fill:black;"/><polygon points="141.845175,119.71562499999999 147.907675,119.71562499999999 150.938925,124.99 147.907675,130.264375 141.845175,130.264375 138.813925,124.99" style="stroke:black;fill:black;"/><polygon points="141.845175,103.10437499999999 147.907675,103.10437499999999 150.938925,108.37875 147.907675,113.653125 141.845175,113.653125 138.813925,108.37875" style="stroke:black;fill:black;"/><polygon points="156.60736250000002,94.79875 162.66986250000002,94.79875 165.70111250000002,100.073125 162.66986250000002,105.34750000000001 156.60736250000002,105.34750000000001 153.57611250000002,100.073125" style="stroke:black;fill:black;"/><polygon points="260.17,76.49 302.365,100.74 302.365,149.24 260.17,173.49 217.97500000000002,149.24 217.97500000000002,100.74" style="stroke:grey;fill:grey;"/><polygon points="257.13875,119.71562499999999 263.20125,119.71562499999999 266.2325,124.99 263.20125,130.264375 257.13875,130.264375 254.10750000000002,124.99" style="stroke:black;fill:black;"/><polygon points="257.13875,103.10437499999999 263.20125,103.10437499999999 266.2325,108.37875 263.20125,113.653125 257.13875,113.653125 254.10750000000002,108.37875" style="stroke:black;fill:black;"/><polygon points="271.59053750000004,111.40999999999998 277.65303750000004,111.40999999999998 280.68428750000004,116.68437499999999 277.65303750000004,121.95875 271.59053750000004,121.95875 268.55928750000004,116.68437499999999" style="stroke:black;fill:black;"/><polygon points="271.59053750000004,128.02125 277.65303750000004,128.02125 280.68428750000004,133.295625 277.65303750000004,138.57 271.59053750000004,138.57 268.55928750000004,133.295625" style="stroke:black;fill:black;"/><polygon points="257.13875,136.326875 263.20125,136.326875 266.2325,141.60125 263.20125,146.87562499999999 257.13875,146.87562499999999 254.10750000000002,141.60125" style="stroke:black;fill:black;"/><polygon points="242.68696250000002,128.02125 248.74946250000002,128.02125 251.78071250000002,133.295625 248.74946250000002,138.57 242.68696250000002,138.57 239.65571250000002,133.295625" style="stroke:black;fill:black;"/><polygon points="242.68696250000002,111.40999999999998 248.74946250000002,111.40999999999998 251.78071250000002,116.68437499999999 248.74946250000002,121.95875 242.68696250000002,121.95875 239.65571250000002,116.68437499999999" style="stroke:black;fill:black;"/><polygon points="257.13875,86.49312499999999 263.20125,86.49312499999999 266.2325,91.7675 263.20125,97.041875 257.13875,97.041875 254.10750000000002,91.7675" style="stroke:black;fill:black;"/><polygon points="271.9009375,94.79875 277.9634375,94.79875 280.9946875,100.073125 277.9634375,105.34750000000001 271.9009375,105.34750000000001 268.8696875,100.073125" style="stroke:black;fill:black;"/><polygon points="286.042325,103.10437499999999 292.104825,103.10437499999999 295.136075,108.37875 292.104825,113.653125 286.042325,113.653125 283.011075,108.37875" style="stroke:black;fill:black;"/><polygon points="286.042325,119.71562499999999 292.104825,119.71562499999999 295.136075,124.99 292.104825,130.264375 286.042325,130.264375 283.011075,124.99" style="stroke:black;fill:black;"/><polygon points="286.042325,136.326875 292.104825,136.326875 295.136075,141.60125 292.104825,146.87562499999999 286.042325,146.87562499999999 283.011075,141.60125" style="stroke:black;fill:black;"/><polygon points="271.2801375,144.6325 277.3426375,144.6325 280.3738875,149.90687499999999 277.3426375,155.18124999999998 271.2801375,155.18124999999998 268.2488875,149.90687499999999" style="stroke:black;fill:black;"/><polygon points="257.13875,152.93812499999999 263.20125,152.93812499999999 266.2325,158.21249999999998 263.20125,163.48687499999997 257.13875,163.48687499999997 254.10750000000002,158.21249999999998" style="stroke:black;fill:black;"/><polygon points="242.3765625,144.6325 248.4390625,144.6325 251.4703125,149.90687499999999 248.4390625,155.18124999999998 242.3765625,155.18124999999998 239.3453125,149.90687499999999" style="stroke:black;fill:black;"/><polygon points="228.23517500000003,136.326875 234.29767500000003,136.326875 237.32892500000003,141.60125 234.29767500000003,146.87562499999999 228.23517500000003,146.87562499999999 225.20392500000003,141.60125" style="stroke:black;fill:black;"/><polygon points="228.23517500000003,119.71562499999999 234.29767500000003,119.71562499999999 237.32892500000003,124.99 234.29767500000003,130.264375 228.23517500000003,130.264375 225.20392500000003,124.99" style="stroke:black;fill:black;"/><polygon points="228.23517500000003,103.10437499999999 234.29767500000003,103.10437499999999 237.32892500000003,108.37875 234.29767500000003,113.653125 228.23517500000003,113.653125 225.20392500000003,108.37875" style="stroke:black;fill:black;"/><polygon points="242.99736250000004,94.79875 249.05986250000004,94.79875 252.09111250000004,100.073125 249.05986250000004,105.34750000000001 242.99736250000004,105.34750000000001 239.96611250000004,100.073125" style="stroke:black;fill:black;"/><polygon points="44.195,150.98 86.39,175.23 86.39,223.73 44.195,247.98 2.0,223.73 2.0,175.23" style="stroke:grey;fill:grey;"/><polygon points="41.16375,194.205625 47.22625,194.205625 50.2575,199.48 47.22625,204.75437499999998 41.16375,204.75437499999998 38.1325,199.48" style="stroke:black;fill:black;"/><polygon points="41.16375,177.59437499999999 47.22625,177.59437499999999 50.2575,182.86874999999998 47.22625,188.14312499999997 41.16375,188.14312499999997 38.1325,182.86874999999998" style="stroke:black;fill:black;"/><polygon points="55.6155375,185.9 61.6780375,185.9 64.7092875,191.174375 61.6780375,196.44875 55.6155375,196.44875 52.5842875,191.174375" style="stroke:black;fill:black;"/><polygon points="55.6155375,202.51125 61.6780375,202.51125 64.7092875,207.78562499999998 61.6780375,213.05999999999997 55.6155375,213.05999999999997 52.5842875,207.78562499999998" style="stroke:black;fill:black;"/><polygon points="41.16375,210.816875 47.22625,210.816875 50.2575,216.09125 47.22625,221.365625 41.16375,221.365625 38.1325,216.09125" style="stroke:black;fill:black;"/><polygon points="26.711962500000002,202.51125 32.7744625,202.51125 35.8057125,207.78562499999998 32.7744625,213.05999999999997 26.711962500000002,213.05999999999997 23.680712500000002,207.78562499999998" style="stroke:black;fill:black;"/><polygon points="26.711962500000002,185.9 32.7744625,185.9 35.8057125,191.174375 32.7744625,196.44875 26.711962500000002,196.44875 23.680712500000002,191.174375" style="stroke:black;fill:black;"/><polygon points="41.16375,160.983125 47.22625,160.983125 50.2575,166.2575 47.22625,171.53187499999999 41.16375,171.53187499999999 38.1325,166.2575" style="stroke:black;fill:black;"/><polygon points="55.9259375,169.28875 61.9884375,169.28875 65.0196875,174.56312499999999 61.9884375,179.83749999999998 55.9259375,179.83749999999998 52.8946875,174.56312499999999" style="stroke:black;fill:black;"/><polygon points="70.067325,177.59437499999999 76.129825,177.59437499999999 79.161075,182.86874999999998 76.129825,188.14312499999997 70.067325,188.14312499999997 67.036075,182.86874999999998" style="stroke:black;fill:black;"/><polygon points="70.067325,194.20562499999997 76.129825,194.20562499999997 79.161075,199.47999999999996 76.129825,204.75437499999995 70.067325,204.75437499999995 67.036075,199.47999999999996" style="stroke:black;fill:black;"/><polygon points="70.067325,210.816875 76.129825,210.816875 79.161075,216.09125 76.129825,221.365625 70.067325,221.365625 67.036075,216.09125" style="stroke:black;fill:black;"/><polygon points="55.3051375,219.1225 61.3676375,219.1225 64.3988875,224.396875 61.3676375,229.67125 55.3051375,229.67125 52.2738875,224.396875" style="stroke:black;fill:black;"/><polygon points="41.16375,227.428125 47.22625,227.428125 50.2575,232.7025 47.22625,237.97687499999998 41.16375,237.97687499999998 38.1325,232.7025" style="stroke:black;fill:black;"/><polygon points="26.4015625,219.1225 32.4640625,219.1225 35.4953125,224.396875 32.4640625,229.67125 26.4015625,229.67125 23.3703125,224.396875" style="stroke:black;fill:black;"/><polygon points="12.260175000000004,210.816875 18.322675000000004,210.816875 21.353925000000004,216.09125 18.322675000000004,221.365625 12.260175000000004,221.365625 9.228925000000004,216.09125" style="stroke:black;fill:black;"/><polygon points="12.260175000000004,194.20562500000003 18.322675000000004,194.20562500000003 21.353925000000004,199.48000000000002 18.322675000000004,204.754375 12.260175000000004,204.754375 9.228925000000004,199.48000000000002" style="stroke:black;fill:black;"/><polygon points="12.260175000000004,177.59437499999999 18.322675000000004,177.59437499999999 21.353925000000004,182.86874999999998 18.322675000000004,188.14312499999997 12.260175000000004,188.14312499999997 9.228925000000004,182.86874999999998" style="stroke:black;fill:black;"/><polygon points="27.022362500000003,169.28875 33.0848625,169.28875 36.1161125,174.56312499999999 33.0848625,179.83749999999998 27.022362500000003,179.83749999999998 23.991112500000003,174.56312499999999" style="stroke:black;fill:black;"/><polygon points="130.585,150.98 172.78,175.23 172.78,223.73 130.585,247.98 88.39000000000001,223.73 88.39000000000001,175.23" style="stroke:grey;fill:grey;"/><polygon points="127.55375000000001,194.205625 133.61625,194.205625 136.6475,199.48 133.61625,204.75437499999998 127.55375000000001,204.75437499999998 124.52250000000001,199.48" style="stroke:black;fill:black;"/><polygon points="127.55375000000001,177.59437499999999 133.61625,177.59437499999999 136.6475,182.86874999999998 133.61625,188.14312499999997 127.55375000000001,188.14312499999997 124.52250000000001,182.86874999999998" style="stroke:black;fill:black;"/><polygon points="142.0055375,185.9 148.0680375,185.9 151.0992875,191.174375 148.0680375,196.44875 142.0055375,196.44875 138.9742875,191.174375" style="stroke:black;fill:black;"/><polygon points="142.0055375,202.51125 148.0680375,202.51125 151.0992875,207.78562499999998 148.0680375,213.05999999999997 142.0055375,213.05999999999997 138.9742875,207.78562499999998" style="stroke:black;fill:black;"/><polygon points="127.55375000000001,210.816875 133.61625,210.816875 136.6475,216.09125 133.61625,221.365625 127.55375000000001,221.365625 124.52250000000001,216.09125" style="stroke:black;fill:black;"/><polygon points="113.10196250000001,202.51125 119.16446250000001,202.51125 122.19571250000001,207.78562499999998 119.16446250000001,213.05999999999997 113.10196250000001,213.05999999999997 110.07071250000001,207.78562499999998" style="stroke:black;fill:black;"/><polygon points="113.10196250000001,185.9 119.16446250000001,185.9 122.19571250000001,191.174375 119.16446250000001,196.44875 113.10196250000001,196.44875 110.07071250000001,191.174375" style="stroke:black;fill:black;"/><polygon points="127.55375000000001,160.983125 133.61625,160.983125 136.6475,166.2575 133.61625,171.53187499999999 127.55375000000001,171.53187499999999 124.52250000000001,166.2575" style="stroke:black;fill:black;"/><polygon points="142.31593750000002,169.28875 148.37843750000002,169.28875 151.40968750000002,174.56312499999999 148.37843750000002,179.83749999999998 142.31593750000002,179.83749999999998 139.28468750000002,174.56312499999999" style="stroke:black;fill:black;"/><polygon points="156.457325,177.59437499999999 162.519825,177.59437499999999 165.551075,182.86874999999998 162.519825,188.14312499999997 156.457325,188.14312499999997 153.426075,182.86874999999998" style="stroke:black;fill:black;"/><polygon points="156.457325,194.20562499999997 162.519825,194.20562499999997 165.551075,199.47999999999996 162.519825,204.75437499999995 156.457325,204.75437499999995 153.426075,199.47999999999996" style="stroke:black;fill:black;"/><polygon points="156.457325,210.816875 162.519825,210.816875 165.551075,216.09125 162.519825,221.365625 156.457325,221.365625 153.426075,216.09125" style="stroke:black;fill:black;"/><polygon points="141.6951375,219.1225 147.7576375,219.1225 150.7888875,224.396875 147.7576375,229.67125 141.6951375,229.67125 138.6638875,224.396875" style="stroke:black;fill:black;"/><polygon points="127.55375000000001,227.428125 133.61625,227.428125 136.6475,232.7025 133.61625,237.97687499999998 127.55375000000001,237.97687499999998 124.52250000000001,232.7025" style="stroke:black;fill:black;"/><polygon points="112.79156250000001,219.1225 118.85406250000001,219.1225 121.88531250000001,224.396875 118.85406250000001,229.67125 112.79156250000001,229.67125 109.76031250000001,224.396875" style="stroke:black;fill:black;"/><polygon points="98.65017500000002,210.816875 104.71267500000002,210.816875 107.74392500000002,216.09125 104.71267500000002,221.365625 98.65017500000002,221.365625 95.61892500000002,216.09125" style="stroke:black;fill:black;"/><polygon points="98.65017500000002,194.20562500000003 104.71267500000002,194.20562500000003 107.74392500000002,199.48000000000002 104.71267500000002,204.754375 98.65017500000002,204.754375 95.61892500000002,199.48000000000002" style="stroke:black;fill:black;"/><polygon points="98.65017500000002,177.59437499999999 104.71267500000002,177.59437499999999 107.74392500000002,182.86874999999998 104.71267500000002,188.14312499999997 98.65017500000002,188.14312499999997 95.61892500000002,182.86874999999998" style="stroke:black;fill:black;"/><polygon points="113.41236250000001,169.28875 119.47486250000001,169.28875 122.50611250000001,174.56312499999999 119.47486250000001,179.83749999999998 113.41236250000001,179.83749999999998 110.38111250000001,174.56312499999999" style="stroke:black;fill:black;"/><polygon points="216.97500000000002,150.98 259.17,175.23 259.17,223.73 216.97500000000002,247.98 174.78000000000003,223.73 174.78000000000003,175.23" style="stroke:grey;fill:grey;"/><polygon points="213.94375000000002,194.205625 220.00625000000002,194.205625 223.03750000000002,199.48 220.00625000000002,204.75437499999998 213.94375000000002,204.75437499999998 210.91250000000002,199.48" style="stroke:black;fill:black;"/><polygon points="213.94375000000002,177.59437499999999 220.00625000000002,177.59437499999999 223.03750000000002,182.86874999999998 220.00625000000002,188.14312499999997 213.94375000000002,188.14312499999997 210.91250000000002,182.86874999999998" style="stroke:black;fill:black;"/><polygon points="228.39553750000002,185.9 234.45803750000002,185.9 237.48928750000002,191.174375 234.45803750000002,196.44875 228.39553750000002,196.44875 225.36428750000002,191.174375" style="stroke:black;fill:black;"/><polygon points="228.39553750000002,202.51125 234.45803750000002,202.51125 237.48928750000002,207.78562499999998 234.45803750000002,213.05999999999997 228.39553750000002,213.05999999999997 225.36428750000002,207.78562499999998" style="stroke:black;fill:black;"/><polygon points="213.94375000000002,210.816875 220.00625000000002,210.816875 223.03750000000002,216.09125 220.00625000000002,221.365625 213.94375000000002,221.365625 210.91250000000002,216.09125" style="stroke:black;fill:black;"/><polygon points="199.49196250000003,202.51125 205.55446250000003,202.51125 208.58571250000003,207.78562499999998 205.55446250000003,213.05999999999997 199.49196250000003,213.05999999999997 196.46071250000003,207.78562499999998" style="stroke:black;fill:black;"/><polygon points="199.49196250000003,185.9 205.55446250000003,185.9 208.58571250000003,191.174375 205.55446250000003,196.44875 199.49196250000003,196.44875 196.46071250000003,191.174375" style="stroke:black;fill:black;"/><polygon points="213.94375000000002,160.983125 220.00625000000002,160.983125 223.03750000000002,166.2575 220.00625000000002,171.53187499999999 213.94375000000002,171.53187499999999 210.91250000000002,166.2575" style="stroke:black;fill:black;"/><polygon points="228.70593750000003,169.28875 234.76843750000003,169.28875 237.79968750000003,174.56312499999999 234.76843750000003,179.83749999999998 228.70593750000003,179.83749999999998 225.67468750000003,174.56312499999999" style="stroke:black;fill:black;"/><polygon points="242.847325,177.59437499999999 248.909825,177.59437499999999 251.941075,182.86874999999998 248.909825,188.14312499999997 242.847325,188.14312499999997 239.816075,182.86874999999998" style="stroke:black;fill:black;"/><polygon points="242.847325,194.20562499999997 248.909825,194.20562499999997 251.941075,199.47999999999996 248.909825,204.75437499999995 242.847325,204.75437499999995 239.816075,199.47999999999996" style="stroke:black;fill:black;"/><polygon points="242.847325,210.816875 248.909825,210.816875 251.941075,216.09125 248.909825,221.365625 242.847325,221.365625 239.816075,216.09125" style="stroke:black;fill:black;"/><polygon points="228.0851375,219.1225 234.1476375,219.1225 237.1788875,224.396875 234.1476375,229.67125 228.0851375,229.67125 225.0538875,224.396875" style="stroke:black;fill:black;"/><polygon points="213.94375000000002,227.428125 220.00625000000002,227.428125 223.03750000000002,232.7025 220.00625000000002,237.97687499999998 213.94375000000002,237.97687499999998 210.91250000000002,232.7025" style="stroke:black;fill:black;"/><polygon points="199.1815625,219.1225 205.2440625,219.1225 208.2753125,224.396875 205.2440625,229.67125 199.1815625,229.67125 196.1503125,224.396875" style="stroke:black;fill:black;"/><polygon points="185.04017500000003,210.816875 191.10267500000003,210.816875 194.13392500000003,216.09125 191.10267500000003,221.365625 185.04017500000003,221.365625 182.00892500000003,216.09125" style="stroke:black;fill:black;"/><polygon points="185.04017500000003,194.20562500000003 191.10267500000003,194.20562500000003 194.13392500000003,199.48000000000002 191.10267500000003,204.754375 185.04017500000003,204.754375 182.00892500000003,199.48000000000002" style="stroke:black;fill:black;"/><polygon points="185.04017500000003,177.59437499999999 191.10267500000003,177.59437499999999 194.13392500000003,182.86874999999998 191.10267500000003,188.14312499999997 185.04017500000003,188.14312499999997 182.00892500000003,182.86874999999998" style="stroke:black;fill:black;"/><polygon points="199.80236250000004,169.28875 205.86486250000004,169.28875 208.89611250000004,174.56312499999999 205.86486250000004,179.83749999999998 199.80236250000004,179.83749999999998 196.77111250000004,174.56312499999999" style="stroke:black;fill:black;"/><polygon points="303.365,150.98 345.56,175.23 345.56,223.73 303.365,247.98 261.17,223.73 261.17,175.23" style="stroke:grey;fill:grey;"/><polygon points="300.33375,194.205625 306.39625,194.205625 309.4275,199.48 306.39625,204.75437499999998 300.33375,204.75437499999998 297.3025,199.48" style="stroke:black;fill:black;"/><polygon points="300.33375,177.59437499999999 306.39625,177.59437499999999 309.4275,182.86874999999998 306.39625,188.14312499999997 300.33375,188.14312499999997 297.3025,182.86874999999998" style="stroke:black;fill:black;"/><polygon points="314.78553750000003,185.9 320.84803750000003,185.9 323.87928750000003,191.174375 320.84803750000003,196.44875 314.78553750000003,196.44875 311.75428750000003,191.174375" style="stroke:black;fill:black;"/><polygon points="314.78553750000003,202.51125 320.84803750000003,202.51125 323.87928750000003,207.78562499999998 320.84803750000003,213.05999999999997 314.78553750000003,213.05999999999997 311.75428750000003,207.78562499999998" style="stroke:black;fill:black;"/><polygon points="300.33375,210.816875 306.39625,210.816875 309.4275,216.09125 306.39625,221.365625 300.33375,221.365625 297.3025,216.09125" style="stroke:black;fill:black;"/><polygon points="285.8819625,202.51125 291.9444625,202.51125 294.9757125,207.78562499999998 291.9444625,213.05999999999997 285.8819625,213.05999999999997 282.8507125,207.78562499999998" style="stroke:black;fill:black;"/><polygon points="285.8819625,185.9 291.9444625,185.9 294.9757125,191.174375 291.9444625,196.44875 285.8819625,196.44875 282.8507125,191.174375" style="stroke:black;fill:black;"/><polygon points="300.33375,160.983125 306.39625,160.983125 309.4275,166.2575 306.39625,171.53187499999999 300.33375,171.53187499999999 297.3025,166.2575" style="stroke:black;fill:black;"/><polygon points="315.0959375,169.28875 321.1584375,169.28875 324.1896875,174.56312499999999 321.1584375,179.83749999999998 315.0959375,179.83749999999998 312.0646875,174.56312499999999" style="stroke:black;fill:black;"/><polygon points="329.237325,177.59437499999999 335.299825,177.59437499999999 338.331075,182.86874999999998 335.299825,188.14312499999997 329.237325,188.14312499999997 326.206075,182.86874999999998" style="stroke:black;fill:black;"/><polygon points="329.237325,194.20562499999997 335.299825,194.20562499999997 338.331075,199.47999999999996 335.299825,204.75437499999995 329.237325,204.75437499999995 326.206075,199.47999999999996" style="stroke:black;fill:black;"/><polygon points="329.237325,210.816875 335.299825,210.816875 338.331075,216.09125 335.299825,221.365625 329.237325,221.365625 326.206075,216.09125" style="stroke:black;fill:black;"/><polygon points="314.4751375,219.1225 320.5376375,219.1225 323.5688875,224.396875 320.5376375,229.67125 314.4751375,229.67125 311.4438875,224.396875" style="stroke:black;fill:black;"/><polygon points="300.33375,227.428125 306.39625,227.428125 309.4275,232.7025 306.39625,237.97687499999998 300.33375,237.97687499999998 297.3025,232.7025" style="stroke:black;fill:black;"/><polygon points="285.5715625,219.1225 291.6340625,219.1225 294.6653125,224.396875 291.6340625,229.67125 285.5715625,229.67125 282.5403125,224.396875" style="stroke:black;fill:black;"/><polygon points="271.430175,210.816875 277.492675,210.816875 280.523925,216.09125 277.492675,221.365625 271.430175,221.365625 268.398925,216.09125" style="stroke:black;fill:black;"/><polygon points="271.430175,194.20562500000003 277.492675,194.20562500000003 280.523925,199.48000000000002 277.492675,204.754375 271.430175,204.754375 268.398925,199.48000000000002" style="stroke:black;fill:black;"/><polygon points="271.430175,177.59437499999999 277.492675,177.59437499999999 280.523925,182.86874999999998 277.492675,188.14312499999997 271.430175,188.14312499999997 268.398925,182.86874999999998" style="stroke:black;fill:black;"/><polygon points="286.1923625,169.28875 292.2548625,169.28875 295.2861125,174.56312499999999 292.2548625,179.83749999999998 286.1923625,179.83749999999998 283.1611125,174.56312499999999" style="stroke:black;fill:black;"/><polygon points="87.39,225.46999999999997 129.585,249.71999999999997 129.585,298.21999999999997 87.39,322.46999999999997 45.195,298.21999999999997 45.195,249.71999999999997" style="stroke:grey;fill:grey;"/><polygon points="84.35875,268.69562499999995 90.42125,268.69562499999995 93.4525,273.96999999999997 90.42125,279.244375 84.35875,279.244375 81.3275,273.96999999999997" style="stroke:black;fill:black;"/><polygon points="84.35875,252.084375 90.42125,252.084375 93.4525,257.35875 90.42125,262.633125 84.35875,262.633125 81.3275,257.35875" style="stroke:black;fill:black;"/><polygon points="98.8105375,260.38999999999993 104.8730375,260.38999999999993 107.9042875,265.66437499999995 104.8730375,270.93874999999997 98.8105375,270.93874999999997 95.7792875,265.66437499999995" style="stroke:black;fill:black;"/><polygon points="98.8105375,277.00124999999997 104.8730375,277.00124999999997 107.9042875,282.275625 104.8730375,287.55 98.8105375,287.55 95.7792875,282.275625" style="stroke:black;fill:black;"/><polygon points="84.35875,285.30687499999993 90.42125,285.30687499999993 93.4525,290.58124999999995 90.42125,295.855625 84.35875,295.855625 81.3275,290.58124999999995" style="stroke:black;fill:black;"/><polygon points="69.9069625,277.00124999999997 75.9694625,277.00124999999997 79.0007125,282.275625 75.9694625,287.55 69.9069625,287.55 66.8757125,282.275625" style="stroke:black;fill:black;"/><polygon points="69.9069625,260.38999999999993 75.9694625,260.38999999999993 79.0007125,265.66437499999995 75.9694625,270.93874999999997 69.9069625,270.93874999999997 66.8757125,265.66437499999995" style="stroke:black;fill:black;"/><polygon points="84.35875,235.47312499999998 90.42125,235.47312499999998 93.4525,240.74749999999997 90.42125,246.02187499999997 84.35875,246.02187499999997 81.3275,240.74749999999997" style="stroke:black;fill:black;"/><polygon points="99.1209375,243.77874999999997 105.1834375,243.77874999999997 108.2146875,249.05312499999997 105.1834375,254.32749999999996 99.1209375,254.32749999999996 96.0896875,249.05312499999997" style="stroke:black;fill:black;"/><polygon points="113.262325,252.084375 119.324825,252.084375 122.356075,257.35875 119.324825,262.633125 113.262325,262.633125 110.231075,257.35875" style="stroke:black;fill:black;"/><polygon points="113.262325,268.69562499999995 119.324825,268.69562499999995 122.356075,273.96999999999997 119.324825,279.244375 113.262325,279.244375 110.231075,273.96999999999997" style="stroke:black;fill:black;"/><polygon points="113.262325,285.30687499999993 119.324825,285.30687499999993 122.356075,290.58124999999995 119.324825,295.855625 113.262325,295.855625 110.231075,290.58124999999995" style="stroke:black;fill:black;"/><polygon points="98.50013750000001,293.61249999999995 104.56263750000001,293.61249999999995 107.59388750000001,298.886875 104.56263750000001,304.16125 98.50013750000001,304.16125 95.46888750000001,298.886875" style="stroke:black;fill:black;"/><polygon points="84.35875,301.918125 90.42125,301.918125 93.4525,307.1925 90.42125,312.466875 84.35875,312.466875 81.3275,307.1925" style="stroke:black;fill:black;"/><polygon points="69.5965625,293.61249999999995 75.6590625,293.61249999999995 78.6903125,298.886875 75.6590625,304.16125 69.5965625,304.16125 66.5653125,298.886875" style="stroke:black;fill:black;"/><polygon points="55.455175000000004,285.30687499999993 61.517675000000004,285.30687499999993 64.548925,290.58124999999995 61.517675000000004,295.855625 55.455175000000004,295.855625 52.423925000000004,290.58124999999995" style="stroke:black;fill:black;"/><polygon points="55.455175000000004,268.69562499999995 61.517675000000004,268.69562499999995 64.548925,273.96999999999997 61.517675000000004,279.244375 55.455175000000004,279.244375 52.423925000000004,273.96999999999997" style="stroke:black;fill:black;"/><polygon points="55.455175000000004,252.084375 61.517675000000004,252.084375 64.548925,257.35875 61.517675000000004,262.633125 55.455175000000004,262.633125 52.423925000000004,257.35875" style="stroke:black;fill:black;"/><polygon points="70.21736250000001,243.77875 76.27986250000001,243.77875 79.31111250000001,249.053125 76.27986250000001,254.3275 70.21736250000001,254.3275 67.18611250000001,249.053125" style="stroke:black;fill:black;"/><polygon points="173.78,225.46999999999997 215.975,249.71999999999997 215.975,298.21999999999997 173.78,322.46999999999997 131.585,298.21999999999997 131.585,249.71999999999997" style="stroke:grey;fill:grey;"/><polygon points="170.74875,268.69562499999995 176.81125,268.69562499999995 179.8425,273.96999999999997 176.81125,279.244375 170.74875,279.244375 167.7175,273.96999999999997" style="stroke:black;fill:black;"/><polygon points="170.74875,252.084375 176.81125,252.084375 179.8425,257.35875 176.81125,262.633125 170.74875,262.633125 167.7175,257.35875" style="stroke:black;fill:black;"/><polygon points="185.2005375,260.38999999999993 191.2630375,260.38999999999993 194.2942875,265.66437499999995 191.2630375,270.93874999999997 185.2005375,270.93874999999997 182.1692875,265.66437499999995" style="stroke:black;fill:black;"/><polygon points="185.2005375,277.00124999999997 191.2630375,277.00124999999997 194.2942875,282.275625 191.2630375,287.55 185.2005375,287.55 182.1692875,282.275625" style="stroke:black;fill:black;"/><polygon points="170.74875,285.30687499999993 176.81125,285.30687499999993 179.8425,290.58124999999995 176.81125,295.855625 170.74875,295.855625 167.7175,290.58124999999995" style="stroke:black;fill:black;"/><polygon points="156.2969625,277.00124999999997 162.3594625,277.00124999999997 165.3907125,282.275625 162.3594625,287.55 156.2969625,287.55 153.2657125,282.275625" style="stroke:black;fill:black;"/><polygon points="156.2969625,260.38999999999993 162.3594625,260.38999999999993 165.3907125,265.66437499999995 162.3594625,270.93874999999997 156.2969625,270.93874999999997 153.2657125,265.66437499999995" style="stroke:black;fill:black;"/><polygon points="170.74875,235.47312499999998 176.81125,235.47312499999998 179.8425,240.74749999999997 176.81125,246.02187499999997 170.74875,246.02187499999997 167.7175,240.74749999999997" style="stroke:black;fill:black;"/><polygon points="185.5109375,243.77874999999997 191.5734375,243.77874999999997 194.6046875,249.05312499999997 191.5734375,254.32749999999996 185.5109375,254.32749999999996 182.4796875,249.05312499999997" style="stroke:black;fill:black;"/><polygon points="199.652325,252.084375 205.714825,252.084375 208.746075,257.35875 205.714825,262.633125 199.652325,262.633125 196.621075,257.35875" style="stroke:black;fill:black;"/><polygon points="199.652325,268.69562499999995 205.714825,268.69562499999995 208.746075,273.96999999999997 205.714825,279.244375 199.652325,279.244375 196.621075,273.96999999999997" style="stroke:black;fill:black;"/><polygon points="199.652325,285.30687499999993 205.714825,285.30687499999993 208.746075,290.58124999999995 205.714825,295.855625 199.652325,295.855625 196.621075,290.58124999999995" style="stroke:black;fill:black;"/><polygon points="184.89013749999998,293.61249999999995 190.95263749999998,293.61249999999995 193.98388749999998,298.886875 190.95263749999998,304.16125 184.89013749999998,304.16125 181.85888749999998,298.886875" style="stroke:black;fill:black;"/><polygon points="170.74875,301.918125 176.81125,301.918125 179.8425,307.1925 176.81125,312.466875 170.74875,312.466875 167.7175,307.1925" style="stroke:black;fill:black;"/><polygon points="155.9865625,293.61249999999995 162.0490625,293.61249999999995 165.0803125,298.886875 162.0490625,304.16125 155.9865625,304.16125 152.9553125,298.886875" style="stroke:black;fill:black;"/><polygon points="141.845175,285.30687499999993 147.907675,285.30687499999993 150.938925,290.58124999999995 147.907675,295.855625 141.845175,295.855625 138.813925,290.58124999999995" style="stroke:black;fill:black;"/><polygon points="141.845175,268.69562499999995 147.907675,268.69562499999995 150.938925,273.96999999999997 147.907675,279.244375 141.845175,279.244375 138.813925,273.96999999999997" style="stroke:black;fill:black;"/><polygon points="141.845175,252.084375 147.907675,252.084375 150.938925,257.35875 147.907675,262.633125 141.845175,262.633125 138.813925,257.35875" style="stroke:black;fill:black;"/><polygon points="156.60736250000002,243.77875 162.66986250000002,243.77875 165.70111250000002,249.053125 162.66986250000002,254.3275 156.60736250000002,254.3275 153.57611250000002,249.053125" style="stroke:black;fill:black;"/><polygon points="260.17,225.46999999999997 302.365,249.71999999999997 302.365,298.21999999999997 260.17,322.46999999999997 217.97500000000002,298.21999999999997 217.97500000000002,249.71999999999997" style="stroke:grey;fill:grey;"/><polygon points="257.13875,268.69562499999995 263.20125,268.69562499999995 266.2325,273.96999999999997 263.20125,279.244375 257.13875,279.244375 254.10750000000002,273.96999999999997" style="stroke:black;fill:black;"/><polygon points="257.13875,252.084375 263.20125,252.084375 266.2325,257.35875 263.20125,262.633125 257.13875,262.633125 254.10750000000002,257.35875" style="stroke:black;fill:black;"/><polygon points="271.59053750000004,260.38999999999993 277.65303750000004,260.38999999999993 280.68428750000004,265.66437499999995 277.65303750000004,270.93874999999997 271.59053750000004,270.93874999999997 268.55928750000004,265.66437499999995" style="stroke:black;fill:black;"/><polygon points="271.59053750000004,277.00124999999997 277.65303750000004,277.00124999999997 280.68428750000004,282.275625 277.65303750000004,287.55 271.59053750000004,287.55 268.55928750000004,282.275625" style="stroke:black;fill:black;"/><polygon points="257.13875,285.30687499999993 263.20125,285.30687499999993 266.2325,290.58124999999995 263.20125,295.855625 257.13875,295.855625 254.10750000000002,290.58124999999995" style="stroke:black;fill:black;"/><polygon points="242.68696250000002,277.00124999999997 248.74946250000002,277.00124999999997 251.78071250000002,282.275625 248.74946250000002,287.55 242.68696250000002,287.55 239.65571250000002,282.275625" style="stroke:black;fill:black;"/><polygon points="242.68696250000002,260.38999999999993 248.74946250000002,260.38999999999993 251.78071250000002,265.66437499999995 248.74946250000002,270.93874999999997 242.68696250000002,270.93874999999997 239.65571250000002,265.66437499999995" style="stroke:black;fill:black;"/><polygon points="257.13875,235.47312499999998 263.20125,235.47312499999998 266.2325,240.74749999999997 263.20125,246.02187499999997 257.13875,246.02187499999997 254.10750000000002,240.74749999999997" style="stroke:black;fill:black;"/><polygon points="271.9009375,243.77874999999997 277.9634375,243.77874999999997 280.9946875,249.05312499999997 277.9634375,254.32749999999996 271.9009375,254.32749999999996 268.8696875,249.05312499999997" style="stroke:black;fill:black;"/><polygon points="286.042325,252.084375 292.104825,252.084375 295.136075,257.35875 292.104825,262.633125 286.042325,262.633125 283.011075,257.35875" style="stroke:black;fill:black;"/><polygon points="286.042325,268.69562499999995 292.104825,268.69562499999995 295.136075,273.96999999999997 292.104825,279.244375 286.042325,279.244375 283.011075,273.96999999999997" style="stroke:black;fill:black;"/><polygon points="286.042325,285.30687499999993 292.104825,285.30687499999993 295.136075,290.58124999999995 292.104825,295.855625 286.042325,295.855625 283.011075,290.58124999999995" style="stroke:black;fill:black;"/><polygon points="271.2801375,293.61249999999995 277.3426375,293.61249999999995 280.3738875,298.886875 277.3426375,304.16125 271.2801375,304.16125 268.2488875,298.886875" style="stroke:black;fill:black;"/><polygon points="257.13875,301.918125 263.20125,301.918125 266.2325,307.1925 263.20125,312.466875 257.13875,312.466875 254.10750000000002,307.1925" style="stroke:black;fill:black;"/><polygon points="242.3765625,293.61249999999995 248.4390625,293.61249999999995 251.4703125,298.886875 248.4390625,304.16125 242.3765625,304.16125 239.3453125,298.886875" style="stroke:black;fill:black;"/><polygon points="228.23517500000003,285.30687499999993 234.29767500000003,285.30687499999993 237.32892500000003,290.58124999999995 234.29767500000003,295.855625 228.23517500000003,295.855625 225.20392500000003,290.58124999999995" style="stroke:black;fill:black;"/><polygon points="228.23517500000003,268.69562499999995 234.29767500000003,268.69562499999995 237.32892500000003,273.96999999999997 234.29767500000003,279.244375 228.23517500000003,279.244375 225.20392500000003,273.96999999999997" style="stroke:black;fill:black;"/><polygon points="228.23517500000003,252.084375 234.29767500000003,252.084375 237.32892500000003,257.35875 234.29767500000003,262.633125 228.23517500000003,262.633125 225.20392500000003,257.35875" style="stroke:black;fill:black;"/><polygon points="242.99736250000004,243.77875 249.05986250000004,243.77875 252.09111250000004,249.053125 249.05986250000004,254.3275 242.99736250000004,254.3275 239.96611250000004,249.053125" style="stroke:black;fill:black;"/><polygon points="44.195,299.96 86.39,324.21 86.39,372.71 44.195,396.96 2.0,372.71 2.0,324.21" style="stroke:grey;fill:grey;"/><polygon points="41.16375,343.18562499999996 47.22625,343.18562499999996 50.2575,348.46 47.22625,353.734375 41.16375,353.734375 38.1325,348.46" style="stroke:black;fill:black;"/><polygon points="41.16375,326.574375 47.22625,326.574375 50.2575,331.84875 47.22625,337.123125 41.16375,337.123125 38.1325,331.84875" style="stroke:black;fill:black;"/><polygon points="55.6155375,334.87999999999994 61.6780375,334.87999999999994 64.7092875,340.15437499999996 61.6780375,345.42875 55.6155375,345.42875 52.5842875,340.15437499999996" style="stroke:black;fill:black;"/><polygon points="55.6155375,351.49125 61.6780375,351.49125 64.7092875,356.765625 61.6780375,362.04 55.6155375,362.04 52.5842875,356.765625" style="stroke:black;fill:black;"/><polygon points="41.16375,359.79687499999994 47.22625,359.79687499999994 50.2575,365.07124999999996 47.22625,370.345625 41.16375,370.345625 38.1325,365.07124999999996" style="stroke:black;fill:black;"/><polygon points="26.711962500000002,351.49125 32.7744625,351.49125 35.8057125,356.765625 32.7744625,362.04 26.711962500000002,362.04 23.680712500000002,356.765625" style="stroke:black;fill:black;"/><polygon points="26.711962500000002,334.87999999999994 32.7744625,334.87999999999994 35.8057125,340.15437499999996 32.7744625,345.42875 26.711962500000002,345.42875 23.680712500000002,340.15437499999996" style="stroke:black;fill:black;"/><polygon points="41.16375,309.96312499999993 47.22625,309.96312499999993 50.2575,315.23749999999995 47.22625,320.511875 41.16375,320.511875 38.1325,315.23749999999995" style="stroke:black;fill:black;"/><polygon points="55.9259375,318.26874999999995 61.9884375,318.26874999999995 65.0196875,323.543125 61.9884375,328.8175 55.9259375,328.8175 52.8946875,323.543125" style="stroke:black;fill:black;"/><polygon points="70.067325,326.574375 76.129825,326.574375 79.161075,331.84875 76.129825,337.123125 70.067325,337.123125 67.036075,331.84875" style="stroke:black;fill:black;"/><polygon points="70.067325,343.18562499999996 76.129825,343.18562499999996 79.161075,348.46 76.129825,353.734375 70.067325,353.734375 67.036075,348.46" style="stroke:black;fill:black;"/><polygon points="70.067325,359.79687499999994 76.129825,359.79687499999994 79.161075,365.07124999999996 76.129825,370.345625 70.067325,370.345625 67.036075,365.07124999999996" style="stroke:black;fill:black;"/><polygon points="55.3051375,368.10249999999996 61.3676375,368.10249999999996 64.3988875,373.376875 61.3676375,378.65125 55.3051375,378.65125 52.2738875,373.376875" style="stroke:black;fill:black;"/><polygon points="41.16375,376.408125 47.22625,376.408125 50.2575,381.6825 47.22625,386.956875 41.16375,386.956875 38.1325,381.6825" style="stroke:black;fill:black;"/><polygon points="26.4015625,368.10249999999996 32.4640625,368.10249999999996 35.4953125,373.376875 32.4640625,378.65125 26.4015625,378.65125 23.3703125,373.376875" style="stroke:black;fill:black;"/><polygon points="12.260175000000004,359.79687499999994 18.322675000000004,359.79687499999994 21.353925000000004,365.07124999999996 18.322675000000004,370.345625 12.260175000000004,370.345625 9.228925000000004,365.07124999999996" style="stroke:black;fill:black;"/><polygon points="12.260175000000004,343.18562499999996 18.322675000000004,343.18562499999996 21.353925000000004,348.46 18.322675000000004,353.734375 12.260175000000004,353.734375 9.228925000000004,348.46" style="stroke:black;fill:black;"/><polygon points="12.260175000000004,326.574375 18.322675000000004,326.574375 21.353925000000004,331.84875 18.322675000000004,337.123125 12.260175000000004,337.123125 9.228925000000004,331.84875" style="stroke:black;fill:black;"/><polygon points="27.022362500000003,318.26874999999995 33.0848625,318.26874999999995 36.1161125,323.543125 33.0848625,328.8175 27.022362500000003,328.8175 23.991112500000003,323.543125" style="stroke:black;fill:black;"/><polygon points="130.585,299.96 172.78,324.21 172.78,372.71 130.585,396.96 88.39000000000001,372.71 88.39000000000001,324.21" style="stroke:grey;fill:grey;"/><polygon points="127.55375000000001,343.18562499999996 133.61625,343.18562499999996 136.6475,348.46 133.61625,353.734375 127.55375000000001,353.734375 124.52250000000001,348.46" style="stroke:black;fill:black;"/><polygon points="127.55375000000001,326.574375 133.61625,326.574375 136.6475,331.84875 133.61625,337.123125 127.55375000000001,337.123125 124.52250000000001,331.84875" style="stroke:black;fill:black;"/><polygon points="142.0055375,334.87999999999994 148.0680375,334.87999999999994 151.0992875,340.15437499999996 148.0680375,345.42875 142.0055375,345.42875 138.9742875,340.15437499999996" style="stroke:black;fill:black;"/><polygon points="142.0055375,351.49125 148.0680375,351.49125 151.0992875,356.765625 148.0680375,362.04 142.0055375,362.04 138.9742875,356.765625" style="stroke:black;fill:black;"/><polygon points="127.55375000000001,359.79687499999994 133.61625,359.79687499999994 136.6475,365.07124999999996 133.61625,370.345625 127.55375000000001,370.345625 124.52250000000001,365.07124999999996" style="stroke:black;fill:black;"/><polygon points="113.10196250000001,351.49125 119.16446250000001,351.49125 122.19571250000001,356.765625 119.16446250000001,362.04 113.10196250000001,362.04 110.07071250000001,356.765625" style="stroke:black;fill:black;"/><polygon points="113.10196250000001,334.87999999999994 119.16446250000001,334.87999999999994 122.19571250000001,340.15437499999996 119.16446250000001,345.42875 113.10196250000001,345.42875 110.07071250000001,340.15437499999996" style="stroke:black;fill:black;"/><polygon points="127.55375000000001,309.96312499999993 133.61625,309.96312499999993 136.6475,315.23749999999995 133.61625,320.511875 127.55375000000001,320.511875 124.52250000000001,315.23749999999995" style="stroke:black;fill:black;"/><polygon points="142.31593750000002,318.26874999999995 148.37843750000002,318.26874999999995 151.40968750000002,323.543125 148.37843750000002,328.8175 142.31593750000002,328.8175 139.28468750000002,323.543125" style="stroke:black;fill:black;"/><polygon points="156.457325,326.574375 162.519825,326.574375 165.551075,331.84875 162.519825,337.123125 156.457325,337.123125 153.426075,331.84875" style="stroke:black;fill:black;"/><polygon points="156.457325,343.18562499999996 162.519825,343.18562499999996 165.551075,348.46 162.519825,353.734375 156.457325,353.734375 153.426075,348.46" style="stroke:black;fill:black;"/><polygon points="156.457325,359.79687499999994 162.519825,359.79687499999994 165.551075,365.07124999999996 162.519825,370.345625 156.457325,370.345625 153.426075,365.07124999999996" style="stroke:black;fill:black;"/><polygon points="141.6951375,368.10249999999996 147.7576375,368.10249999999996 150.7888875,373.376875 147.7576375,378.65125 141.6951375,378.65125 138.6638875,373.376875" style="stroke:black;fill:black;"/><polygon points="127.55375000000001,376.408125 133.61625,376.408125 136.6475,381.6825 133.61625,386.956875 127.55375000000001,386.956875 124.52250000000001,381.6825" style="stroke:black;fill:black;"/><polygon points="112.79156250000001,368.10249999999996 118.85406250000001,368.10249999999996 121.88531250000001,373.376875 118.85406250000001,378.65125 112.79156250000001,378.65125 109.76031250000001,373.376875" style="stroke:black;fill:black;"/><polygon points="98.65017500000002,359.79687499999994 104.71267500000002,359.79687499999994 107.74392500000002,365.07124999999996 104.71267500000002,370.345625 98.65017500000002,370.345625 95.61892500000002,365.07124999999996" style="stroke:black;fill:black;"/><polygon points="98.65017500000002,343.18562499999996 104.71267500000002,343.18562499999996 107.74392500000002,348.46 104.71267500000002,353.734375 98.65017500000002,353.734375 95.61892500000002,348.46" style="stroke:black;fill:black;"/><polygon points="98.65017500000002,326.574375 104.71267500000002,326.574375 107.74392500000002,331.84875 104.71267500000002,337.123125 98.65017500000002,337.123125 95.61892500000002,331.84875" style="stroke:black;fill:black;"/><polygon points="113.41236250000001,318.26874999999995 119.47486250000001,318.26874999999995 122.50611250000001,323.543125 119.47486250000001,328.8175 113.41236250000001,328.8175 110.38111250000001,323.543125" style="stroke:black;fill:black;"/><polygon points="216.97500000000002,299.96 259.17,324.21 259.17,372.71 216.97500000000002,396.96 174.78000000000003,372.71 174.78000000000003,324.21" style="stroke:grey;fill:grey;"/><polygon points="213.94375000000002,343.18562499999996 220.00625000000002,343.18562499999996 223.03750000000002,348.46 220.00625000000002,353.734375 213.94375000000002,353.734375 210.91250000000002,348.46" style="stroke:black;fill:black;"/><polygon points="213.94375000000002,326.574375 220.00625000000002,326.574375 223.03750000000002,331.84875 220.00625000000002,337.123125 213.94375000000002,337.123125 210.91250000000002,331.84875" style="stroke:black;fill:black;"/><polygon points="228.39553750000002,334.87999999999994 234.45803750000002,334.87999999999994 237.48928750000002,340.15437499999996 234.45803750000002,345.42875 228.39553750000002,345.42875 225.36428750000002,340.15437499999996" style="stroke:black;fill:black;"/><polygon points="228.39553750000002,351.49125 234.45803750000002,351.49125 237.48928750000002,356.765625 234.45803750000002,362.04 228.39553750000002,362.04 225.36428750000002,356.765625" style="stroke:black;fill:black;"/><polygon points="213.94375000000002,359.79687499999994 220.00625000000002,359.79687499999994 223.03750000000002,365.07124999999996 220.00625000000002,370.345625 213.94375000000002,370.345625 210.91250000000002,365.07124999999996" style="stroke:black;fill:black;"/><polygon points="199.49196250000003,351.49125 205.55446250000003,351.49125 208.58571250000003,356.765625 205.55446250000003,362.04 199.49196250000003,362.04 196.46071250000003,356.765625" style="stroke:black;fill:black;"/><polygon points="199.49196250000003,334.87999999999994 205.55446250000003,334.87999999999994 208.58571250000003,340.15437499999996 205.55446250000003,345.42875 199.49196250000003,345.42875 196.46071250000003,340.15437499999996" style="stroke:black;fill:black;"/><polygon points="213.94375000000002,309.96312499999993 220.00625000000002,309.96312499999993 223.03750000000002,315.23749999999995 220.00625000000002,320.511875 213.94375000000002,320.511875 210.91250000000002,315.23749999999995" style="stroke:black;fill:black;"/><polygon points="228.70593750000003,318.26874999999995 234.76843750000003,318.26874999999995 237.79968750000003,323.543125 234.76843750000003,328.8175 228.70593750000003,328.8175 225.67468750000003,323.543125" style="stroke:black;fill:black;"/><polygon points="242.847325,326.574375 248.909825,326.574375 251.941075,331.84875 248.909825,337.123125 242.847325,337.123125 239.816075,331.84875" style="stroke:black;fill:black;"/><polygon points="242.847325,343.18562499999996 248.909825,343.18562499999996 251.941075,348.46 248.909825,353.734375 242.847325,353.734375 239.816075,348.46" style="stroke:black;fill:black;"/><polygon points="242.847325,359.79687499999994 248.909825,359.79687499999994 251.941075,365.07124999999996 248.909825,370.345625 242.847325,370.345625 239.816075,365.07124999999996" style="stroke:black;fill:black;"/><polygon points="228.0851375,368.10249999999996 234.1476375,368.10249999999996 237.1788875,373.376875 234.1476375,378.65125 228.0851375,378.65125 225.0538875,373.376875" style="stroke:black;fill:black;"/><polygon points="213.94375000000002,376.408125 220.00625000000002,376.408125 223.03750000000002,381.6825 220.00625000000002,386.956875 213.94375000000002,386.956875 210.91250000000002,381.6825" style="stroke:black;fill:black;"/><polygon points="199.1815625,368.10249999999996 205.2440625,368.10249999999996 208.2753125,373.376875 205.2440625,378.65125 199.1815625,378.65125 196.1503125,373.376875" style="stroke:black;fill:black;"/><polygon points="185.04017500000003,359.79687499999994 191.10267500000003,359.79687499999994 194.13392500000003,365.07124999999996 191.10267500000003,370.345625 185.04017500000003,370.345625 182.00892500000003,365.07124999999996" style="stroke:black;fill:black;"/><polygon points="185.04017500000003,343.18562499999996 191.10267500000003,343.18562499999996 194.13392500000003,348.46 191.10267500000003,353.734375 185.04017500000003,353.734375 182.00892500000003,348.46" style="stroke:black;fill:black;"/><polygon points="185.04017500000003,326.574375 191.10267500000003,326.574375 194.13392500000003,331.84875 191.10267500000003,337.123125 185.04017500000003,337.123125 182.00892500000003,331.84875" style="stroke:black;fill:black;"/><polygon points="199.80236250000004,318.26874999999995 205.86486250000004,318.26874999999995 208.89611250000004,323.543125 205.86486250000004,328.8175 199.80236250000004,328.8175 196.77111250000004,323.543125" style="stroke:black;fill:black;"/><polygon points="303.365,299.96 345.56,324.21 345.56,372.71 303.365,396.96 261.17,372.71 261.17,324.21" style="stroke:grey;fill:grey;"/><polygon points="300.33375,343.18562499999996 306.39625,343.18562499999996 309.4275,348.46 306.39625,353.734375 300.33375,353.734375 297.3025,348.46" style="stroke:black;fill:black;"/><polygon points="300.33375,326.574375 306.39625,326.574375 309.4275,331.84875 306.39625,337.123125 300.33375,337.123125 297.3025,331.84875" style="stroke:black;fill:black;"/><polygon points="314.78553750000003,334.87999999999994 320.84803750000003,334.87999999999994 323.87928750000003,340.15437499999996 320.84803750000003,345.42875 314.78553750000003,345.42875 311.75428750000003,340.15437499999996" style="stroke:black;fill:black;"/><polygon points="314.78553750000003,351.49125 320.84803750000003,351.49125 323.87928750000003,356.765625 320.84803750000003,362.04 314.78553750000003,362.04 311.75428750000003,356.765625" style="stroke:black;fill:black;"/><polygon points="300.33375,359.79687499999994 306.39625,359.79687499999994 309.4275,365.07124999999996 306.39625,370.345625 300.33375,370.345625 297.3025,365.07124999999996" style="stroke:black;fill:black;"/><polygon points="285.8819625,351.49125 291.9444625,351.49125 294.9757125,356.765625 291.9444625,362.04 285.8819625,362.04 282.8507125,356.765625" style="stroke:black;fill:black;"/><polygon points="285.8819625,334.87999999999994 291.9444625,334.87999999999994 294.9757125,340.15437499999996 291.9444625,345.42875 285.8819625,345.42875 282.8507125,340.15437499999996" style="stroke:black;fill:black;"/><polygon points="300.33375,309.96312499999993 306.39625,309.96312499999993 309.4275,315.23749999999995 306.39625,320.511875 300.33375,320.511875 297.3025,315.23749999999995" style="stroke:black;fill:black;"/><polygon points="315.0959375,318.26874999999995 321.1584375,318.26874999999995 324.1896875,323.543125 321.1584375,328.8175 315.0959375,328.8175 312.0646875,323.543125" style="stroke:black;fill:black;"/><polygon points="329.237325,326.574375 335.299825,326.574375 338.331075,331.84875 335.299825,337.123125 329.237325,337.123125 326.206075,331.84875" style="stroke:black;fill:black;"/><polygon points="329.237325,343.18562499999996 335.299825,343.18562499999996 338.331075,348.46 335.299825,353.734375 329.237325,353.734375 326.206075,348.46" style="stroke:black;fill:black;"/><polygon points="329.237325,359.79687499999994 335.299825,359.79687499999994 338.331075,365.07124999999996 335.299825,370.345625 329.237325,370.345625 326.206075,365.07124999999996" style="stroke:black;fill:black;"/><polygon points="314.4751375,368.10249999999996 320.5376375,368.10249999999996 323.5688875,373.376875 320.5376375,378.65125 314.4751375,378.65125 311.4438875,373.376875" style="stroke:black;fill:black;"/><polygon points="300.33375,376.408125 306.39625,376.408125 309.4275,381.6825 306.39625,386.956875 300.33375,386.956875 297.3025,381.6825" style="stroke:black;fill:black;"/><polygon points="285.5715625,368.10249999999996 291.6340625,368.10249999999996 294.6653125,373.376875 291.6340625,378.65125 285.5715625,378.65125 282.5403125,373.376875" style="stroke:black;fill:black;"/><polygon points="271.430175,359.79687499999994 277.492675,359.79687499999994 280.523925,365.07124999999996 277.492675,370.345625 271.430175,370.345625 268.398925,365.07124999999996" style="stroke:black;fill:black;"/><polygon points="271.430175,343.18562499999996 277.492675,343.18562499999996 280.523925,348.46 277.492675,353.734375 271.430175,353.734375 268.398925,348.46" style="stroke:black;fill:black;"/><polygon points="271.430175,326.574375 277.492675,326.574375 280.523925,331.84875 277.492675,337.123125 271.430175,337.123125 268.398925,331.84875" style="stroke:black;fill:black;"/><polygon points="286.1923625,318.26874999999995 292.2548625,318.26874999999995 295.2861125,323.543125 292.2548625,328.8175 286.1923625,328.8175 283.1611125,323.543125" style="stroke:black;fill:black;"/></svg>
